<svg width="33" height="39" viewBox="0 0 33 39" fill="none" xmlns="http://www.w3.org/2000/svg">
<path d="M10.2951 23.1025C10.5481 23.2787 10.801 23.455 11.0616 23.6366C13.1704 24.9877 15.5197 25.4022 17.9958 25.0965C19.5653 24.7219 20.9714 24.316 22.2383 23.2983C22.8444 22.8176 22.8444 22.8176 23.6109 22.7998C26.9896 23.8822 29.5042 25.7633 31.2942 28.8343C31.9782 30.2658 32.2477 31.7506 32.5237 33.3039C32.6177 33.7762 32.6177 33.7762 32.7137 34.258C32.9964 35.7511 33.1315 36.6782 32.8267 38.1998C30.9444 38.1998 29.062 38.1998 27.1225 38.1998C27.1225 36.5078 27.1225 34.8157 27.1225 33.0724C26.6519 33.0724 26.1813 33.0724 25.6965 33.0724C25.6024 34.7644 25.5082 36.4565 25.4113 38.1998C19.4818 38.1998 13.5522 38.1998 7.44303 38.1998C7.34891 36.5078 7.25479 34.8157 7.15782 33.0724C6.78134 33.0724 6.40486 33.0724 6.01698 33.0724C5.92286 34.7644 5.82874 36.4565 5.73177 38.1998C3.84938 38.1998 1.96699 38.1998 0.02756 38.1998C-0.15024 33.9379 0.486927 29.7931 3.27183 26.4317C4.83006 24.7647 7.87213 22.056 10.2951 23.1025Z" fill="#FEAA39"/>
<path d="M11.2221 9.59961C11.4456 9.68826 11.6691 9.77692 11.8994 9.86825C12.9567 10.1648 13.8867 10.1496 14.9691 10.0994C16.4492 10.0642 17.5514 10.1337 18.8279 10.9095C20.7641 12.04 23.0725 12.1574 25.2648 12.2652C25.4447 15.1364 24.9643 17.4466 23.1044 19.729C21.3518 21.4825 19.6998 22.7384 17.122 22.7996C16.9295 22.7979 16.7371 22.7962 16.5388 22.7945C16.3373 22.7929 16.1357 22.7914 15.9281 22.7898C13.6786 22.7183 12.116 21.9549 10.4626 20.462C8.30611 18.1527 7.59829 15.616 7.71145 12.5318C7.95095 12.4273 8.19046 12.3229 8.43722 12.2153C9.6704 11.5492 10.4466 10.7479 11.2221 9.59961Z" fill="#FEAA39"/>
<path d="M21.8152 2.78187C22.4886 3.95608 22.4074 4.82727 22.3174 6.19066C22.3231 7.05139 22.4426 7.47141 22.864 8.1851C23.6493 8.80609 24.3522 9.19467 25.3 9.39C25.3 10.0858 25.3 10.7817 25.3 11.4986C21.5498 11.7108 18.1879 10.5268 15.2854 7.88387C15.0174 7.88387 14.7495 7.88387 14.4734 7.88387C14.4734 8.3809 14.4734 8.87792 14.4734 9.39C12.9747 9.28462 11.9663 9.10841 10.6841 8.1851C9.80184 8.39511 9.80184 8.39511 9.48301 9.33352C9.34345 9.65037 9.20389 9.96723 9.0601 10.2937C8.31647 11.3144 7.79913 11.6545 6.62412 11.7998C6.49891 8.91988 6.82099 6.74392 8.53569 4.49509C12.1466 0.332276 17.4565 -0.419659 21.8152 2.78187Z" fill="#FEAA39"/>
<path d="M26.1944 0.799805C26.3672 0.799805 26.54 0.799805 26.718 0.799805C27.0277 1.35084 27.3322 1.90396 27.6344 2.45938C27.8045 2.76744 27.9746 3.0755 28.1498 3.39289C28.5648 4.35481 28.6775 4.9106 28.5508 5.94787C28.0108 6.72686 28.0108 6.72686 27.2417 7.30263C26.2055 7.47195 25.6685 7.46793 24.7708 6.8962C24.3225 6.15398 24.1682 5.59007 24.2052 4.71166C24.545 3.27749 25.3543 1.98 26.1944 0.799805Z" fill="#FEAA39"/>
</svg>
