<svg width="42" height="41" viewBox="0 0 42 41" fill="none" xmlns="http://www.w3.org/2000/svg">
<path d="M28.854 11.2622C29.4944 11.7728 30.0739 12.319 30.635 12.9151C30.5715 13.0715 30.5081 13.2279 30.4428 13.3891C29.987 14.542 29.8189 15.4503 30.2634 16.6435C30.8698 17.5845 31.4693 18.0229 32.544 18.2963C32.7935 18.347 33.0429 18.3978 33.3 18.4501C33.4344 22.1393 32.5211 24.6933 30.3482 27.6653C28.9732 29.5564 28.1543 31.4474 28.38 33.8251C28.5788 34.8538 28.8215 35.8586 29.2168 36.8304C29.4555 37.4389 29.4754 37.892 29.405 38.5401C29.1737 38.8792 29.1737 38.8792 28.79 39.1551C28.2143 39.2345 28.2143 39.2345 27.5067 39.2379C27.242 39.2405 26.9772 39.2431 26.7045 39.2458C26.4152 39.2453 26.1259 39.2447 25.8367 39.2439C25.5403 39.2449 25.2439 39.246 24.9475 39.2472C24.3264 39.249 23.7054 39.2485 23.0843 39.2465C22.288 39.2441 21.4919 39.2483 20.6957 39.2543C20.0837 39.258 19.4717 39.258 18.8597 39.2568C18.5661 39.2568 18.2725 39.258 17.9789 39.2606C17.5687 39.2636 17.1584 39.2609 16.7482 39.2579C16.398 39.2579 16.398 39.2579 16.0406 39.2578C15.465 39.1551 15.465 39.1551 15.0866 38.7638C14.5609 37.8114 14.3723 36.7532 14.44 35.6701C14.237 35.7377 14.0341 35.8054 13.825 35.8751C12.9294 36.0986 12.0404 36.1333 11.1215 36.1441C10.9803 36.1477 10.839 36.1513 10.6935 36.1549C9.78759 36.1541 9.21408 36.0217 8.49496 35.4651C8.09911 34.6734 8.22535 33.6794 8.4309 32.8385C8.46261 32.6165 8.46261 32.6165 8.49496 32.3901C8.29437 32.1807 8.0891 31.9758 7.87996 31.7751C7.84152 31.2626 7.84152 31.2626 7.87996 30.7501C7.92805 30.1482 7.92805 30.1482 7.66215 29.7251C7.46996 29.3151 7.46996 29.3151 7.67496 28.7001C7.33248 28.662 7.33248 28.662 6.98309 28.6232C6.23996 28.4951 6.23996 28.4951 5.82996 28.0851C5.60653 26.8297 6.25959 26.0862 6.93184 25.0997C7.91915 23.573 8.41633 22.3405 8.49496 20.5001C8.53609 20.1027 8.57867 19.7055 8.62309 19.3085C8.64947 19.0224 8.67541 18.7363 8.69996 18.4501C8.83605 18.4199 8.97215 18.3898 9.11236 18.3588C10.4059 18.0302 11.0457 17.7343 11.775 16.6051C12.1857 15.3728 11.9601 14.3147 11.57 13.1201C15.8078 8.80371 23.7967 7.58246 28.854 11.2622ZM17.515 12.7101C17.6503 12.8284 17.7856 12.9468 17.925 13.0688C18.335 13.5301 18.335 13.5301 18.335 14.3501C16.9459 14.1556 16.9459 14.1556 16.285 14.0041C15.4815 13.9204 14.9806 14.0382 14.235 14.3501C13.52 15.0099 13.0484 15.6738 12.9153 16.6435C13.0358 17.6934 13.5028 18.1403 14.235 18.8601C14.3499 18.9753 14.4649 19.0905 14.5833 19.2092C14.6713 19.2969 14.7593 19.3847 14.85 19.4751C14.7823 19.678 14.7147 19.881 14.645 20.0901C14.4547 20.0562 14.2644 20.0224 14.0684 19.9876C13.4239 19.8692 13.4239 19.8692 12.8 19.8851C13.1162 20.9311 13.4034 21.8122 14.2862 22.4988C14.9527 22.8018 15.5593 22.8889 16.285 22.9601C16.285 22.4865 16.285 22.013 16.285 21.5251C16.759 21.5251 16.759 21.5251 17.31 21.7301C17.5031 22.1301 17.6247 22.5348 17.7576 22.9585C18.06 23.7022 18.667 24.0486 19.36 24.3951C19.7563 24.4255 20.154 24.4404 20.5515 24.4463C20.7643 24.4516 20.977 24.4569 21.1962 24.4623C22.1163 24.3631 22.6418 23.9955 23.2678 23.3316C23.665 22.9601 23.665 22.9601 24.485 22.9601C24.5301 23.7506 24.4037 24.291 24.075 25.0101C24.1714 25.0774 24.2679 25.1448 24.3672 25.2143C25.4367 26.0313 25.8215 26.7844 26.125 28.0851C26.4665 28.0938 26.8084 28.0934 27.15 28.0851C27.4165 27.8658 27.4165 27.8658 27.3662 27.3491C27.289 25.9109 27.0908 24.8588 26.342 23.6199C26.0899 23.0915 26.0852 22.7185 26.125 22.1401C26.5392 22.2634 26.9493 22.401 27.355 22.5501C27.4226 22.6854 27.4903 22.8207 27.56 22.9601C27.6953 22.9601 27.8306 22.9601 27.97 22.9601C27.9826 22.8459 27.9953 22.7317 28.0084 22.6141C28.175 22.1401 28.175 22.1401 28.7003 21.6916C29.3111 20.9868 29.3434 20.6163 29.2832 19.7105C29.1495 19.0032 28.9343 18.7048 28.38 18.2451C27.7768 17.9887 27.1684 17.7965 26.535 17.6301C26.535 17.2918 26.535 16.9536 26.535 16.6051C27.1438 16.6051 27.7527 16.6051 28.38 16.6051C28.3635 16.044 28.2666 15.6839 27.8923 15.2597C27.0876 14.5396 26.3 14.1589 25.305 13.7351C24.7284 13.1969 24.7284 13.1969 24.28 12.7101C23.66 12.4001 23.1192 12.4697 22.435 12.5051C22.1601 12.6386 21.8864 12.7747 21.615 12.9151C20.9879 12.8391 20.7229 12.662 20.18 12.3001C19.0738 11.9732 18.5053 12.2149 17.515 12.7101Z" fill="#FEAA39"/>
<path d="M36.9901 10.6602C37.7937 11.0096 38.0679 11.3165 38.4251 12.0952C38.2475 12.1955 38.2475 12.1955 38.0663 12.2978C37.838 12.4322 37.838 12.4322 37.6051 12.5693C37.4528 12.6573 37.3006 12.7453 37.1438 12.8359C37.0254 12.9297 36.907 13.0236 36.7851 13.1202C36.7851 13.3232 36.7851 13.5261 36.7851 13.7352C37.3501 13.6332 37.3501 13.6332 37.8101 13.3252C38.7703 13.1863 39.4529 13.1973 40.2829 13.7224C40.7456 14.4538 40.8286 14.9011 40.7818 15.7532C40.6174 16.4674 40.2283 16.7936 39.6551 17.2202C38.5936 17.574 37.4573 17.4714 36.3461 17.4745C35.9047 17.4764 35.4635 17.4828 35.0221 17.4893C34.7393 17.4906 34.4565 17.4917 34.1737 17.4925C33.7899 17.4954 33.7899 17.4954 33.3983 17.4983C32.4056 17.3966 31.7125 17.1092 31.0579 16.349C30.7607 15.5797 30.8193 15.1403 31.0451 14.3502C31.4807 13.748 31.4807 13.748 32.0701 13.3252C32.8516 13.2612 32.8516 13.2612 33.5051 13.3252C33.5516 13.0715 33.5981 12.8178 33.646 12.5565C33.8572 11.6982 34.179 11.3409 34.9401 10.8652C35.5948 10.5379 36.2777 10.5836 36.9901 10.6602Z" fill="#FEAA39"/>
<path d="M7.47004 10.6601C8.02286 11.0049 8.46351 11.4131 8.90504 11.8901C8.49504 12.3001 8.49504 12.3001 7.86723 12.5692C7.21714 12.8532 7.21714 12.8532 7.08567 13.4661C7.07721 13.6225 7.06875 13.7789 7.06004 13.9401C7.72626 13.7171 7.72626 13.7171 8.29004 13.3251C9.72558 13.1816 9.72558 13.1816 10.5322 13.7479C11.0436 14.4763 11.1757 14.8952 11.16 15.7851C10.8218 16.4746 10.5756 16.8925 9.88755 17.2507C8.81948 17.5761 7.69789 17.4933 6.59013 17.4898C6.15235 17.4892 5.71485 17.494 5.2771 17.4992C4.99616 17.4997 4.71522 17.4998 4.43428 17.4996C4.18101 17.5002 3.92773 17.5008 3.66678 17.5014C2.88494 17.417 2.39536 17.2241 1.73004 16.8101C1.17923 15.9839 1.1586 15.3205 1.32004 14.3501C1.73004 13.7223 1.73004 13.7223 2.34504 13.3251C2.92051 13.2443 3.39922 13.2755 3.98504 13.3251C4.00407 13.0017 4.00407 13.0017 4.02348 12.6717C4.21902 11.7541 4.50379 11.4549 5.21504 10.8651C5.93518 10.5051 6.68639 10.5185 7.47004 10.6601Z" fill="#FEAA39"/>
<path d="M22.4734 15.2084C23.3136 15.7499 23.9059 16.2669 24.3568 17.1687C24.5821 18.3399 24.4766 19.2939 23.934 20.359C23.1064 21.3209 22.3112 21.8552 21.0168 21.9542C20.1075 21.9132 19.3201 21.647 18.6336 21.0405C17.9905 20.3106 17.5139 19.616 17.5158 18.6269C17.6173 17.3195 17.9524 16.5025 18.95 15.6312C20.0516 14.805 21.2076 14.7368 22.4734 15.2084ZM21.836 17.3289C21.7123 17.462 21.5886 17.5952 21.4612 17.7325C21.3354 17.8656 21.2096 17.9988 21.08 18.136C20.986 18.2396 20.8919 18.3432 20.795 18.45C20.6047 18.3104 20.4144 18.1709 20.2184 18.0271C20.0028 17.8961 19.7871 17.765 19.565 17.63C19.362 17.6976 19.1591 17.7653 18.95 17.835C19.0119 18.5581 19.1611 18.8678 19.6162 19.4493C20.1255 19.9394 20.1255 19.9394 20.666 19.8649C21.3437 19.6323 21.6897 19.3044 22.1915 18.7959C22.3535 18.636 22.5155 18.4761 22.6824 18.3114C23.1334 17.827 23.1334 17.827 23.05 17.015C22.2529 16.9298 22.2529 16.9298 21.836 17.3289Z" fill="#FEAA39"/>
<path d="M11.16 4.50977C11.7082 4.56447 11.9274 4.65442 12.2931 5.07352C12.6024 5.56695 12.91 6.06067 13.21 6.55977C13.3136 6.72361 13.4172 6.88745 13.5239 7.05625C13.6191 7.21375 13.7142 7.37125 13.8122 7.53352C13.8986 7.67621 13.985 7.81891 14.0741 7.96594C14.2787 8.52369 14.1886 8.86648 14.03 9.42977C13.8271 9.49742 13.6241 9.56507 13.415 9.63477C12.648 8.94178 12.1399 8.16546 11.6085 7.29008C11.5225 7.1557 11.4364 7.02133 11.3478 6.88288C10.7412 5.88647 10.7412 5.88647 10.7861 5.14318C10.955 4.71477 10.955 4.71477 11.16 4.50977Z" fill="#FEAA39"/>
<path d="M28.175 2.66482C28.388 3.32148 28.3662 3.73859 28.1902 4.40251C28.1452 4.57375 28.1001 4.74499 28.0537 4.92142C28.005 5.09847 27.9562 5.27552 27.906 5.45794C27.8596 5.63658 27.8132 5.81522 27.7654 5.99927C27.4092 7.32565 27.4092 7.32565 26.945 7.78982C26.4069 7.71294 26.4069 7.71294 25.92 7.58482C25.8608 6.40958 26.063 5.45096 26.4069 4.33044C26.4524 4.17242 26.4978 4.01439 26.5446 3.85158C26.6644 3.45161 26.8033 3.0575 26.945 2.66482C27.4557 2.4095 27.6442 2.50558 28.175 2.66482Z" fill="#FEAA39"/>
<path d="M16.285 2.45996C16.8231 2.53684 16.8231 2.53684 17.31 2.66496C17.4828 3.25382 17.6533 3.84319 17.8225 4.43309C17.8714 4.59878 17.9203 4.76447 17.9706 4.93518C18.2276 5.83805 18.4188 6.6359 18.335 7.58496C18.13 7.78996 18.13 7.78996 17.6047 7.80277C17.4398 7.79854 17.2749 7.79432 17.105 7.78996C16.9366 7.278 16.7704 6.76548 16.6053 6.25246C16.5581 6.10976 16.511 5.96706 16.4624 5.82004C16.1477 4.83499 15.9369 3.90487 15.875 2.86996C16.0103 2.73466 16.1456 2.59936 16.285 2.45996Z" fill="#FEAA39"/>
<path d="M32.48 4.50977C32.9285 4.57383 32.9285 4.57383 33.3 4.71477C33.4821 5.21647 33.5347 5.45611 33.3434 5.96333C33.2577 6.11233 33.1721 6.26132 33.0838 6.41482C32.9916 6.57774 32.8994 6.74065 32.8044 6.90851C32.7058 7.07671 32.6072 7.24491 32.5057 7.4182C32.4087 7.58878 32.3117 7.75936 32.2118 7.93511C31.4992 9.18062 31.4992 9.18062 31.25 9.42977C30.9085 9.4381 30.5666 9.43852 30.225 9.42977C30.0259 8.91164 29.9654 8.54769 30.1662 8.02259C30.3942 7.58535 30.6378 7.16212 30.8913 6.73914C30.9751 6.59248 31.0588 6.44581 31.1451 6.29471C31.899 4.99791 31.899 4.99791 32.48 4.50977Z" fill="#FEAA39"/>
<path d="M22.1275 1.81934C22.64 1.84496 22.64 1.84496 22.845 2.04996C22.8653 2.41252 22.8718 2.77589 22.8722 3.13902C22.8724 3.35941 22.8727 3.57981 22.873 3.80688C22.8722 4.03889 22.8714 4.27091 22.8706 4.50996C22.8714 4.74198 22.8722 4.974 22.873 5.21305C22.8727 5.43344 22.8725 5.65383 22.8722 5.8809C22.8719 6.08464 22.8717 6.28838 22.8715 6.4983C22.845 6.96996 22.845 6.96996 22.64 7.17496C22.1275 7.20059 22.1275 7.20059 21.615 7.17496C21.2632 6.82325 21.3833 6.36035 21.3827 5.8809C21.3825 5.66051 21.3822 5.44012 21.3819 5.21305C21.3831 4.86502 21.3831 4.86502 21.3843 4.50996C21.3835 4.27794 21.3827 4.04592 21.3819 3.80688C21.3822 3.58648 21.3825 3.36609 21.3827 3.13902C21.383 2.93528 21.3832 2.73154 21.3834 2.52162C21.4206 1.86008 21.463 1.85256 22.1275 1.81934Z" fill="#FEAA39"/>
</svg>
