<svg width="33" height="33" viewBox="0 0 33 33" fill="none" xmlns="http://www.w3.org/2000/svg">
<path d="M16.5 17.9299L5.5 14.7867V4.12494C5.50013 3.48656 5.64843 2.85692 5.93322 2.28559C6.218 1.71425 6.63151 1.21681 7.14119 0.832416C7.65087 0.448025 8.24281 0.187174 8.87042 0.0703951C9.49802 -0.0463834 10.1442 -0.0159021 10.758 0.15944L12.0299 0.41244C12.9108 0.647234 13.6905 1.16433 14.2495 1.88452C14.8085 2.60471 15.1161 3.48829 15.125 4.39994V14.6712L16.5 15.0644L17.875 14.6712V4.39994C17.8794 3.50519 18.1732 2.63588 18.7125 1.92189C19.2518 1.2079 20.0076 0.687544 20.867 0.438565L22.3451 0.13744C22.9451 -0.0248477 23.5746 -0.0462428 24.1842 0.0749249C24.7939 0.196093 25.3673 0.456544 25.8596 0.83594C26.3706 1.21828 26.785 1.71483 27.0699 2.28591C27.3547 2.85699 27.502 3.48677 27.5 4.12494V14.7853L16.5 17.9299ZM33 27.4999V8.24994C32.9965 7.39983 32.7304 6.57157 32.2381 5.87848C31.7459 5.18538 31.0515 4.6613 30.25 4.37794V16.8616L16.5 20.7899L2.75 16.8616V4.37794C1.9485 4.6613 1.25413 5.18538 0.761871 5.87848C0.269615 6.57157 0.00352408 7.39983 0 8.24994L0 27.4999H15.125V30.2499H9.625V32.9999H23.375V30.2499H17.875V27.4999H33Z" fill="#FEAA39"/>
</svg>
