<svg width="32" height="42" viewBox="0 0 32 42" fill="none" xmlns="http://www.w3.org/2000/svg">
<path d="M15.8539 26.8254C18.8248 26.8254 21.796 26.8254 24.7674 26.8254C25.5972 26.8254 26.3679 26.6171 26.9975 26.0502C28.2096 24.9598 28.1566 23.1203 26.8855 21.9358C26.2085 21.283 25.3024 20.9218 24.3619 20.9299C20.6942 20.9299 17.0264 20.9388 13.3587 20.9246C12.275 20.9091 11.232 20.5096 10.4153 19.7973C9.59857 19.0849 9.06109 18.1058 8.89853 17.0343C8.50643 14.5951 10.1644 12.3031 12.5991 11.8214C13.5842 11.6264 14.579 11.7385 15.5686 11.7273C17.7426 11.7026 19.9174 11.7086 22.0915 11.7049C22.2526 11.7028 22.4136 11.7128 22.5732 11.7347C22.9578 11.7892 23.1475 12.017 23.1319 12.3852C23.1258 12.5477 23.0592 12.702 22.9452 12.8179C22.8312 12.9338 22.678 13.003 22.5157 13.0118C22.4291 13.0193 22.3417 13.0118 22.2551 13.0118C19.4574 13.0118 16.6605 13.0044 13.8628 13.0156C12.6932 13.02 11.6618 13.4047 10.918 14.3427C9.42431 16.23 10.4281 18.9731 12.7933 19.5086C13.4065 19.6475 14.0301 19.6042 14.6477 19.6072C17.718 19.6251 20.7883 19.6326 23.8585 19.6139C25.1416 19.6065 26.341 19.8073 27.4127 20.5744C29.6197 22.1524 29.8863 25.2406 27.9445 27.0338C27.0617 27.8486 25.9803 28.1541 24.8025 28.1541C19.0593 28.1575 13.3159 28.1575 7.57213 28.1541C6.96346 28.1541 6.36075 28.1623 5.77971 28.3781C4.6236 28.8143 4.00521 29.6687 3.81476 30.8629C3.60415 32.1825 4.14936 33.2251 5.01943 34.149C5.14639 34.2841 5.21584 34.264 5.34355 34.149C7.36002 32.3185 9.72303 31.2064 12.4035 30.7755C16.3528 30.1399 20.0213 30.8621 23.3372 33.1407C26.1439 35.0713 27.9677 37.7136 28.8123 41.0222C28.9356 41.5046 28.7757 41.8437 28.4016 41.9542C28.0274 42.0648 27.6779 41.8205 27.5434 41.3373C27.2539 40.2616 26.8301 39.2265 26.282 38.2566C24.7764 35.6427 22.5523 33.8846 19.7726 32.7987C17.8621 32.0518 15.8838 31.7949 13.8337 31.9533C10.6402 32.1997 7.90822 33.4275 5.65499 35.7017C4.1404 37.2297 3.13962 39.0624 2.54962 41.1252C2.50929 41.2679 2.46447 41.4098 2.41144 41.5479C2.35653 41.707 2.2419 41.8385 2.09179 41.9146C1.94169 41.9907 1.76787 42.0054 1.60709 41.9557C1.2852 41.8541 1.11046 41.5472 1.19186 41.1962C1.65711 39.1741 2.57911 37.2854 3.8872 35.6748C4.1008 35.4096 4.18071 35.2662 3.8872 34.9488C3.03795 34.0634 2.53446 32.9027 2.4682 31.6777C2.35692 29.7829 3.09257 28.3266 4.73488 27.3602C5.41152 26.9628 6.16957 26.8232 6.94404 26.8209C9.91498 26.812 12.8867 26.8172 15.8583 26.8172L15.8539 26.8254Z" fill="#FEAA39"/>
<path d="M21.4626 4.89135C21.5052 2.42079 23.3096 0.331127 25.7383 0.0368709C28.5091 -0.299208 30.9662 1.7083 31.2791 4.17961C31.4539 5.5523 31.0476 6.77115 30.4576 7.95714C29.6234 9.63231 28.4822 11.0991 27.2985 12.5353C26.9997 12.8997 26.6719 13.1604 26.1513 13.0327C25.9573 12.9896 25.7831 12.8831 25.6562 12.7302C24.338 11.1618 23.0706 9.56135 22.1572 7.71217C21.7203 6.82268 21.4559 5.89361 21.4626 4.89135ZM29.8646 4.75916C29.8646 3.89207 29.4643 3.06009 28.7324 2.37524C27.3291 1.06154 25.0348 1.13324 23.8324 2.53431C22.748 3.79946 22.6606 5.20502 23.2715 6.69871C23.9788 8.43064 25.1506 9.86383 26.2663 11.3329C26.4239 11.5405 26.4904 11.3575 26.5599 11.2582C27.3269 10.2537 28.0894 9.24171 28.7376 8.15804C29.3381 7.15802 29.8542 6.11766 29.8669 4.75916H29.8646Z" fill="#FEAA39"/>
<path d="M14.938 34.7545C18.773 34.7127 22.7447 36.9853 24.225 40.851C24.2474 40.9082 24.2675 40.9665 24.2855 41.0258C24.4169 41.4552 24.2683 41.8167 23.9053 41.9488C23.564 42.0736 23.2212 41.9033 23.0562 41.488C22.7955 40.8301 22.4953 40.1953 22.0756 39.6209C20.7574 37.8196 18.9851 36.6866 16.82 36.2467C13.507 35.5745 10.6743 36.5141 8.3934 39.0205C7.78685 39.6944 7.31889 40.4811 7.01623 41.3357C6.92063 41.6008 6.83175 41.8898 6.50613 41.9727C5.95272 42.1139 5.55316 41.6882 5.72418 41.1161C5.98857 40.2281 6.43593 39.4283 6.99382 38.6926C8.73919 36.3774 11.0955 35.1332 13.9395 34.7575C14.2628 34.7172 14.6026 34.7545 14.938 34.7545Z" fill="#FEAA39"/>
<path d="M6.09734 10.7808C5.7986 10.7808 5.71421 10.612 5.68135 10.4208C5.50136 9.37522 5.32958 8.32292 5.15856 7.2736C5.12483 7.10373 5.0999 6.93222 5.08387 6.75978C5.07416 6.59099 5.00321 6.53572 4.83591 6.50809C3.62005 6.29524 2.4072 6.06895 1.19358 5.84489C1.09708 5.82678 1.00198 5.80183 0.909028 5.77021C0.770862 5.72316 0.665553 5.64847 0.681237 5.47595C0.681433 5.40082 0.709117 5.32836 0.759058 5.27223C0.808998 5.2161 0.877734 5.18018 0.952332 5.17124C1.70366 5.02188 2.4535 4.86877 3.20482 4.72314C3.73881 4.62082 4.27355 4.52224 4.81053 4.44232C5.00546 4.41394 5.06073 4.34748 5.0906 4.14359C5.27358 2.92026 5.48119 1.69992 5.68284 0.479578C5.69588 0.39348 5.72448 0.31047 5.76724 0.234611C5.80209 0.168109 5.85532 0.113036 5.92061 0.0759575C5.98589 0.0388791 6.06047 0.0213615 6.13543 0.0254964C6.30347 0.0374459 6.38786 0.147234 6.42819 0.313034C6.57756 0.915735 6.62313 1.53337 6.72022 2.14354C6.82925 2.8269 6.92782 3.5125 7.02342 4.19811C7.04807 4.37361 7.15412 4.40423 7.30274 4.43037C8.5059 4.64546 9.70757 4.86952 10.91 5.08984C10.9346 5.09432 10.9608 5.08984 10.9847 5.09506C11.2237 5.15631 11.5343 5.1944 11.5381 5.49313C11.5418 5.77768 11.2154 5.78365 11.0153 5.81203C9.80466 5.98754 8.60598 6.22952 7.39834 6.42146C7.14217 6.46253 7.04882 6.52826 7.00923 6.79488C6.82925 8.00551 6.61639 9.21166 6.42669 10.4208C6.3901 10.6673 6.26837 10.7718 6.09734 10.7808Z" fill="#FEAA39"/>
<path d="M26.3278 3.06375C27.3943 3.04582 28.3353 3.92336 28.3442 4.94131C28.351 6.03469 27.448 6.94658 26.336 6.96376C25.3083 6.98019 24.4375 6.10639 24.4196 5.03989C24.4161 4.5264 24.6138 4.03195 24.9705 3.66255C25.3272 3.29315 25.8145 3.07819 26.3278 3.06375ZM25.7512 4.99807C25.7462 5.07531 25.7564 5.15279 25.7814 5.22604C25.8064 5.2993 25.8457 5.36689 25.8969 5.42492C25.9481 5.48295 26.0103 5.53028 26.0799 5.56417C26.1495 5.59807 26.2251 5.61787 26.3024 5.62243C26.3855 5.63019 26.4693 5.62122 26.5489 5.59603C26.6285 5.57084 26.7022 5.52995 26.7657 5.47578C26.8292 5.42161 26.8812 5.35526 26.9186 5.28065C26.956 5.20604 26.9781 5.12468 26.9835 5.04139C26.987 4.89231 26.9358 4.7471 26.8394 4.63328C26.7431 4.51945 26.6083 4.44491 26.4607 4.42375C26.0649 4.37744 25.793 4.59851 25.7512 4.99732V4.99807Z" fill="#FEAA39"/>
</svg>
