<svg width="52" height="52" viewBox="0 0 52 52" fill="none" xmlns="http://www.w3.org/2000/svg">
<path d="M25.9241 36.7305C21.6633 36.6532 17.861 35.3136 14.536 32.6225C13.3812 31.692 12.331 30.6388 11.4039 29.4813C10.9637 28.9302 10.941 28.8101 11.3639 28.2608C14.0831 24.7404 17.5399 22.2685 21.9016 21.2908C27.6866 19.993 32.9378 21.1999 37.5296 25.0323C38.5636 25.8958 39.5173 26.8513 40.3788 27.887C41.0855 28.7337 41.0918 28.7419 40.4025 29.5986C38.539 31.9168 36.3018 33.7821 33.5916 35.0271C31.1643 36.1457 28.6097 36.745 25.9241 36.7305ZM32.1283 28.6692C32.2056 25.9208 30.0821 22.6432 26.106 22.5868C22.0871 22.5304 19.9218 25.5198 19.8672 28.5682C19.799 32.206 22.4337 34.9607 25.9296 34.9734C29.4446 34.9853 32.0992 32.286 32.1283 28.6692ZM20.3192 23.4408C19.9035 23.5529 19.4996 23.7052 19.1133 23.8955C16.7242 25.0168 14.707 26.6184 12.9918 28.6164C12.8181 28.8192 12.9318 28.8893 13.04 29.0138C14.4757 30.6943 16.1986 32.1062 18.1283 33.1837C18.8662 33.6018 19.6448 33.9437 20.452 34.2041C17.7336 31.252 17.5872 26.2891 20.3192 23.4408ZM31.4726 34.2113C31.54 34.2037 31.6066 34.1906 31.6718 34.1722C32.1029 33.9958 32.5403 33.8321 32.9605 33.6338C35.3251 32.5189 37.2494 30.8409 38.971 28.9047C39.1456 28.7074 39.0219 28.6191 38.9137 28.4991C37.1794 26.5702 35.185 24.9732 32.8332 23.8609C32.4194 23.6654 32.0001 23.4626 31.4908 23.348C34.2992 26.0309 34.5156 30.9482 31.4726 34.2113Z" fill="#FEAA39"/>
<path d="M26.3109 46.9916C21.6055 47.0398 17.5257 45.9121 13.7488 43.6958C12.5056 42.9759 11.3512 42.1127 10.3093 41.1238C9.86999 40.7037 9.87363 40.2044 10.2902 39.8779C10.613 39.6242 10.9877 39.6496 11.3569 39.9798C13.0742 41.5309 15.0395 42.783 17.171 43.6839C19.0876 44.4907 21.1082 45.0237 23.1734 45.2673C26.9021 45.712 30.5199 45.3118 34.033 43.9941C36.4022 43.1046 38.5039 41.7577 40.4465 40.1489C40.5708 40.0387 40.7008 39.9349 40.8357 39.8379C41.1677 39.6123 41.5769 39.6515 41.8197 39.9443C42.0626 40.2371 42.1035 40.5882 41.8452 40.8965C41.6516 41.1082 41.4408 41.3035 41.215 41.4803C37.9728 44.2769 34.224 45.9921 30.0115 46.7042C28.6864 46.927 27.3459 47.0316 26.3109 46.9916Z" fill="#FEAA39"/>
<path d="M26.0973 42.7345C21.0808 42.689 16.6027 41.1457 12.7285 37.9144C12.1464 37.4315 11.5929 36.9153 11.0705 36.3684C10.9155 36.2238 10.7933 36.0477 10.7122 35.8518C10.6104 35.5371 10.6404 35.2152 10.9614 35.0078C11.317 34.7841 11.6653 34.8378 11.9509 35.127C12.6033 35.801 13.2989 36.4317 14.0335 37.015C16.6882 39.0849 19.6548 40.4709 22.9961 40.9556C26.8485 41.5158 30.5845 41.0766 34.1314 39.4096C36.2964 38.3929 38.2621 36.997 39.9355 35.288C40.1346 35.0861 40.3074 34.8605 40.6512 34.8814C41.1841 34.9123 41.5197 35.4016 41.3242 35.9027C41.2135 36.1523 41.051 36.3755 40.8476 36.5575C37.7828 39.5796 34.1768 41.6004 29.9343 42.4116C28.6706 42.6568 27.3842 42.765 26.0973 42.7345Z" fill="#FEAA39"/>
<path d="M25.2019 9.08696C25.2019 7.99562 25.2019 6.90428 25.2019 5.81932C25.2019 5.32458 25.4747 5.019 25.9067 5.00081C26.3897 4.98172 26.7507 5.30002 26.7734 5.78476C26.7862 6.08785 26.7835 6.39139 26.7652 6.6942C26.7507 6.9343 26.8398 7.00978 27.0772 7.00251C27.591 6.98614 28.1067 7.00888 28.6232 6.98887C28.8861 6.97886 28.9479 7.07435 28.9561 7.32536C28.9907 8.47854 28.9989 8.47854 27.8648 8.48218C26.7634 8.48218 26.7643 8.48218 26.7652 9.58533C26.7652 10.5384 26.7752 11.4952 26.758 12.4446C26.758 12.6947 26.8162 12.8166 27.0663 12.893C28.4887 13.3304 29.4045 14.7064 29.2489 16.1433C29.0771 17.7367 27.8848 18.9517 26.3624 19.0972C24.8491 19.2418 23.6077 18.5725 23.0211 17.2947C22.7315 16.6751 22.6425 15.9806 22.7664 15.308C22.8903 14.6353 23.2209 14.0181 23.7122 13.5423C24.0239 13.2324 24.4135 13.0124 24.84 12.9057C25.1128 12.8384 25.2192 12.7038 25.2137 12.4046C25.1937 11.3005 25.2056 10.1956 25.2056 9.09151L25.2019 9.08696ZM25.9595 17.5539C26.9544 17.5539 27.6729 16.8727 27.6802 15.9105C27.6883 14.9674 26.9526 14.2608 25.9649 14.2626C25.0173 14.2626 24.2561 14.9802 24.2424 15.8832C24.2288 16.8082 24.99 17.5484 25.9595 17.5539Z" fill="#FEAA39"/>
<path d="M28.9642 28.7173C28.9978 30.3479 27.6418 31.7876 26.0312 31.7839C24.1841 31.7794 23.0719 30.3816 23.0391 28.8546C23.001 27.0903 24.306 25.6788 25.9839 25.6661C27.6355 25.6543 28.9278 26.9775 28.9642 28.7173Z" fill="#FEAA39"/>
</svg>
