<svg width="40" height="40" viewBox="0 0 40 40" fill="none" xmlns="http://www.w3.org/2000/svg">
<path d="M11.2631 31.9802C10.7052 32.4149 10.2017 32.9203 9.59849 33.2952C9.30415 33.4764 9.07683 33.7644 8.72544 33.8568C8.27894 33.8568 8.63939 33.5253 8.53252 33.3858V33.3921C8.70097 33.2518 8.71817 33.0543 8.73176 32.856L8.74082 32.8379L8.73357 32.8433C8.84859 32.3262 9.16285 31.8951 9.36029 31.4142C9.46353 31.377 9.46082 31.2992 9.43728 31.2131V31.2185C9.57313 31.166 9.57495 31.0628 9.53781 30.9468V30.9523C9.68 30.945 9.64649 30.8518 9.62838 30.7657V30.7702C9.81676 30.7114 9.85751 30.5801 9.80951 30.408C9.97435 30.3835 9.99699 30.2667 9.99065 30.129L9.98612 30.1381C10.1165 30.0819 10.121 29.9796 10.0875 29.8664V29.8718C10.2361 29.8718 10.1854 29.765 10.1835 29.6853L10.179 29.6907C10.275 29.7151 10.2696 29.6527 10.2696 29.5893L10.2651 29.5974C10.3692 29.573 10.3746 29.4969 10.3611 29.4117V29.419C10.3955 29.4037 10.4243 29.378 10.4435 29.3455C10.4626 29.3131 10.4712 29.2754 10.4679 29.2379H10.4589C10.5114 29.1473 10.5648 29.0495 10.6183 28.9553C11.4368 27.7171 12.1925 26.4385 12.8824 25.1243C13.1126 24.6909 13.3709 24.2731 13.6559 23.8736C13.7805 23.6761 13.8435 23.4459 13.837 23.2125C14.1277 22.8937 14.1223 22.4734 14.221 22.0894C14.163 21.786 14.4393 21.546 14.3895 21.2481C14.634 20.9664 14.672 20.6141 14.7073 20.2672L14.7028 20.2745C14.9021 20.0417 14.9528 19.7546 14.999 19.4657C15.2516 18.7638 15.4935 18.0601 15.7941 17.3745C16.4317 15.9396 17.2244 14.5788 18.1579 13.3162C18.6805 12.6008 19.2656 11.9378 19.7764 11.2169C19.8389 11.1263 19.9312 11.1399 19.9901 11.0783C19.99 11.0598 19.9934 11.0413 20 11.024L20.221 10.7759L20.2337 10.7822H20.2274C20.2403 10.7823 20.2531 10.7796 20.265 10.7744C20.2768 10.7691 20.2874 10.7614 20.296 10.7517C20.3046 10.742 20.3109 10.7305 20.3147 10.7181C20.3185 10.7058 20.3196 10.6927 20.318 10.6799L20.3116 10.6871C20.4076 10.659 20.4556 10.6056 20.4094 10.506C20.5 10.5368 20.5181 10.4888 20.5 10.4154H20.4955C20.6368 10.4326 20.6884 10.362 20.6766 10.2343C20.75 10.2451 20.7871 10.2189 20.7726 10.1437L20.7672 10.1491C20.792 10.1524 20.8173 10.1499 20.8412 10.1421C20.865 10.1342 20.8867 10.1211 20.9048 10.1037C20.9229 10.0864 20.9368 10.0651 20.9456 10.0416C20.9544 10.0181 20.9578 9.99298 20.9556 9.968L20.9492 9.97434C20.9624 9.97647 20.9759 9.97538 20.9886 9.97117C21.0013 9.96696 21.0129 9.95975 21.0222 9.95016C21.0315 9.94056 21.0384 9.92886 21.0422 9.91604C21.0461 9.90323 21.0468 9.88967 21.0443 9.87653L21.0389 9.88196C21.1104 9.88649 21.134 9.84755 21.1294 9.78234C21.9735 9.0243 22.7959 8.24271 23.6707 7.51817C24.3581 6.95123 25.0292 6.36345 25.7592 5.8436C26.5834 5.25582 27.3676 4.61461 28.2434 4.10019C28.7986 3.77415 29.3302 3.41188 29.889 3.08494C30.4234 2.76976 30.9758 2.47814 31.5192 2.17927C31.6025 2.18923 31.7003 2.23995 31.723 2.09776L31.7167 2.10229C31.8009 2.11406 31.8933 2.14123 31.905 2.01172L31.8978 2.01625C31.9836 2.02681 32.0706 2.01453 32.1501 1.98066C32.2296 1.94679 32.2988 1.89252 32.3506 1.82334L32.3416 1.82878C32.4276 1.84236 32.5046 1.83512 32.5381 1.73821L34.239 1.01368C34.3494 1.03632 34.4609 1.05987 34.5233 0.923111H34.5161C34.6067 0.933074 34.7072 0.94847 34.7506 0.832545H34.7434C35.1656 0.780585 35.5752 0.653282 35.9525 0.456691H35.9452C36.3137 0.428845 36.6754 0.342319 37.0166 0.200386C37.4812 0.175933 37.9223 -0.0305572 38.3941 0.00385815C38.6441 0.0228771 38.8759 0.0509559 39.019 0.290052C39.0688 0.711187 38.9647 1.10515 38.8687 1.51542C38.7782 1.89761 38.5545 2.24901 38.597 2.66109C38.4603 2.89928 38.4847 3.20448 38.2927 3.41641C38.1858 3.49973 38.1849 3.60841 38.2193 3.72524V3.71981C38.0889 3.73611 38.1233 3.8303 38.1288 3.9109L38.1333 3.90185C38.0579 3.96875 38.0006 4.05368 37.9669 4.1487C37.9331 4.24372 37.9241 4.34575 37.9404 4.44525C37.7828 4.44525 37.838 4.54487 37.8589 4.62638L36.8699 6.7873C36.8037 6.82399 36.7501 6.87966 36.7159 6.94714C36.6816 7.01462 36.6684 7.0908 36.6779 7.16587L36.6824 7.15953C36.5729 7.18307 36.5729 7.26187 36.5919 7.34791V7.33975C36.5281 7.37608 36.4762 7.43019 36.4426 7.49548C36.409 7.56076 36.3951 7.63441 36.4026 7.70745V7.70202C36.2812 7.72195 36.2794 7.79802 36.312 7.89131C35.8981 8.65207 35.4924 9.41826 34.9327 10.0866C34.9169 10.0907 34.9022 10.0983 34.8897 10.1088C34.8772 10.1193 34.8672 10.1324 34.8604 10.1472C34.8537 10.1621 34.8503 10.1782 34.8506 10.1946C34.8509 10.2109 34.8548 10.2269 34.862 10.2415C34.7135 10.2741 34.6718 10.3792 34.6809 10.5132H34.6854C34.5704 10.5286 34.5378 10.5893 34.5858 10.6943C34.4228 10.6599 34.4092 10.7659 34.4047 10.8836L34.4101 10.8764C34.3096 10.8999 34.2525 10.9479 34.3105 11.0575C34.1294 11.0648 34.0832 11.197 34.0442 11.3383V11.3328C33.8885 11.4035 33.7372 11.4777 33.7617 11.6951C33.6548 11.6444 33.6168 11.7214 33.5805 11.7956L33.5932 11.7839C33.4592 11.879 33.3115 11.965 33.3152 12.1588V12.1416C33.2391 12.2322 33.0552 12.2204 33.0851 12.4015C32.4059 12.9069 31.6986 13.357 30.8581 13.5472C30.7268 13.559 30.5791 13.5354 30.5076 13.6921H30.513C30.4273 13.6781 30.3393 13.6875 30.2585 13.7194C30.1777 13.7513 30.107 13.8044 30.0539 13.8732H30.0602C29.9479 13.847 29.8456 13.8524 29.7822 13.9692H29.7931C29.6617 13.9457 29.5404 13.9366 29.5521 14.1286C29.2188 14.3523 28.766 14.2455 28.4526 14.5235C28.1583 14.5416 27.8685 14.5697 27.7055 14.8704C27.7788 14.9184 27.8504 15.0062 27.9256 15.0089C28.7841 15.0424 29.6463 15.123 30.5003 14.9709C30.6443 14.9627 30.7947 14.9157 30.9179 15.0379C30.8635 15.4219 30.5764 15.6981 30.3545 15.9436C29.7052 16.6726 29.0929 17.4452 28.3304 18.0674C28.2172 18.052 28.1719 18.1181 28.1538 18.215H28.1601C28.084 18.2014 28.0424 18.2231 28.065 18.3056H28.0695C27.9917 18.2911 27.9491 18.3119 27.979 18.3961C27.7906 18.3898 27.6955 18.4767 27.7073 18.6678C27.5932 18.6071 27.5587 18.6868 27.5261 18.7693L27.5352 18.7611C27.5226 18.76 27.51 18.7615 27.498 18.7655C27.4861 18.7696 27.4751 18.776 27.4658 18.7846C27.4565 18.7931 27.4491 18.8035 27.4441 18.815C27.439 18.8266 27.4365 18.8391 27.4365 18.8517L27.4419 18.8444C27.3586 18.8553 27.3513 18.916 27.3568 18.9803C26.2999 19.9004 25.2013 20.7753 23.9859 21.4691C23.3519 21.8313 22.7379 22.2669 22.017 22.4707C21.8123 22.4055 21.6837 22.5323 21.5542 22.6519H21.5623C21.165 22.7039 20.7885 22.8601 20.471 23.1047C20.3569 23.073 20.2546 23.0766 20.1939 23.1953H20.202C19.6088 23.2641 19.0609 23.5077 18.4812 23.6436C17.8473 23.7776 17.207 23.697 16.5721 23.7513C16.3004 23.7205 16.3258 23.5077 16.4254 23.3891C17.1889 22.5151 17.6616 21.4491 18.3481 20.5235C18.906 19.7718 19.2955 18.8933 19.8669 18.1543C20.5725 17.2405 21.1937 16.266 21.931 15.3721C22.3494 14.8658 22.7234 14.2971 23.1445 13.7944C23.6146 13.2329 24.0738 12.6506 24.6027 12.1371C24.734 12.1443 24.7756 12.0592 24.7965 11.9505L24.7892 11.9587C24.9188 11.9143 25.0174 11.8482 24.9794 11.687C25.06 11.7042 25.108 11.687 25.07 11.5964C25.2158 11.619 25.2837 11.5656 25.2511 11.4153C25.4069 11.466 25.4322 11.3618 25.4467 11.2477C26.4695 10.1609 27.5243 9.1043 28.6111 8.07787C28.6655 8.06429 28.7189 8.0498 28.6908 7.97372C28.7651 7.98549 28.8022 7.95923 28.7859 7.88315H28.7814C28.919 7.89764 28.9978 7.85327 28.9625 7.70202C29.1165 7.73372 29.1672 7.66127 29.1437 7.52089C29.294 7.54896 29.3483 7.47923 29.3248 7.33975C29.3438 7.3498 29.365 7.35519 29.3865 7.35546C29.408 7.35574 29.4292 7.3509 29.4485 7.34135C29.4678 7.3318 29.4846 7.31781 29.4974 7.30053C29.5102 7.28325 29.5187 7.26316 29.5222 7.24194C29.9425 6.65688 30.5728 6.29552 31.0718 5.79287C31.149 5.72993 31.213 5.65238 31.2602 5.56465C30.555 5.83909 29.8964 6.22063 29.3076 6.69583C28.6935 7.19394 28.0668 7.67757 27.4564 8.18021C27.2155 8.37946 27.0036 8.61493 26.779 8.8332C26.6803 8.8332 26.6422 8.89478 26.615 8.97448L26.6232 8.96995C26.4493 8.97992 26.3352 9.04875 26.3515 9.24165V9.23713C26.2754 9.22445 26.2437 9.25614 26.2546 9.32769L26.26 9.32226C25.9947 9.37841 25.8606 9.59396 25.7166 9.78505L25.7248 9.776C25.705 9.77909 25.6863 9.78664 25.6699 9.79808C25.6535 9.80952 25.64 9.82454 25.6303 9.84201C25.6206 9.85948 25.615 9.87893 25.6139 9.89887C25.6129 9.91882 25.6164 9.93875 25.6242 9.95713L25.6288 9.9526C25.5328 9.92362 25.4821 9.97796 25.4431 10.054L25.454 10.045C25.4214 10.0785 25.3879 10.1111 25.3553 10.1437L25.3634 10.1355C25.3308 10.1691 25.2982 10.2017 25.2647 10.2343L25.2747 10.2252C25.1216 10.3529 24.907 10.4317 24.9033 10.678C24.7575 10.6554 24.7168 10.7387 24.7177 10.8592L24.7231 10.8537C24.6488 10.8438 24.6172 10.8755 24.6271 10.9497L24.6316 10.9452C24.5248 10.9108 24.5103 11.0095 24.4632 11.0629L24.4831 11.0521C24.4786 11.1028 24.3119 11.0756 24.4206 11.1807C23.5684 12.0094 22.804 12.9205 22.0614 13.8424C21.6321 14.375 21.2272 14.9419 20.8125 15.488C20.2518 16.2252 19.7256 16.9824 19.2076 17.7468C18.0892 19.409 17.0578 21.1282 16.1175 22.8973C15.911 23.2822 15.6936 23.6608 15.4835 24.043C15.4636 24.0496 15.4455 24.0606 15.4303 24.075C15.4152 24.0895 15.4034 24.1072 15.3959 24.1267C15.3883 24.1463 15.3852 24.1673 15.3868 24.1882C15.3883 24.2091 15.3944 24.2294 15.4047 24.2476C15.2852 24.2648 15.2707 24.3382 15.3142 24.4288C15.172 24.4288 15.2055 24.5284 15.2236 24.6099V24.6045C15.0425 24.6651 15.0325 24.8155 15.0379 24.9667L15.0425 24.9613C14.8396 25.1035 14.7119 25.2774 14.7907 25.5418C14.3378 26.3479 14.0535 27.2255 13.6894 28.0686C13.3253 28.9118 13.107 29.7894 12.6098 30.5592C12.5347 30.6761 12.435 30.7539 12.3553 30.8563C12.2865 30.8418 12.2376 30.8563 12.234 30.9396L12.2403 30.9351C12.1724 30.9351 12.1407 30.9641 12.1497 31.032V31.0256C12.1372 31.0256 12.1248 31.0282 12.1133 31.0332C12.1018 31.0382 12.0915 31.0455 12.083 31.0547C12.0745 31.0639 12.068 31.0747 12.0639 31.0866C12.0598 31.0984 12.0582 31.111 12.0592 31.1235L12.0646 31.1171C12.0515 31.115 12.0382 31.116 12.0255 31.12C12.0129 31.124 12.0014 31.1309 11.9919 31.1401C11.9824 31.1494 11.9752 31.1607 11.9708 31.1732C11.9665 31.1857 11.9651 31.1991 11.9668 31.2122L11.9722 31.2068C11.907 31.2068 11.8744 31.2358 11.8762 31.3019L11.8817 31.2955C11.869 31.2955 11.8564 31.2981 11.8448 31.3032C11.8332 31.3083 11.8227 31.3158 11.8142 31.3252C11.8057 31.3346 11.7992 31.3457 11.7952 31.3577C11.7912 31.3698 11.7898 31.3825 11.7911 31.3952L11.7974 31.3888C11.7487 31.3918 11.7027 31.4125 11.6682 31.4471C11.6337 31.4816 11.613 31.5275 11.61 31.5763L11.6154 31.5709C11.5475 31.5709 11.5149 31.5971 11.5248 31.6669C11.4533 31.6578 11.4234 31.6904 11.4297 31.7574L11.4343 31.752C11.37 31.752 11.3265 31.7701 11.3437 31.8471V31.8426C11.2622 31.8561 11.2395 31.8996 11.2631 31.9802Z" fill="#FEAA39"/>
<path d="M27.2531 38.196C28.4993 38.062 29.4955 37.5349 30.0969 36.3847C30.2454 36.4843 30.3378 36.3792 30.3795 36.2715C30.4918 35.9826 30.6784 35.7082 30.6023 35.3712C30.7617 35.2309 30.7752 35.038 30.797 34.846C30.922 33.7293 30.9482 32.6072 30.9718 31.4859C30.9926 30.4643 30.9763 29.4418 30.9772 28.4193C31.2544 28.4357 31.0225 29.0488 31.4826 28.8514C31.4908 28.8794 31.5134 28.9138 31.5043 28.9338C31.3603 29.248 31.6067 29.3458 31.796 29.4835C31.9499 29.5949 31.9255 29.9264 32.141 29.8992C32.3566 29.872 32.141 29.5369 32.3312 29.4147C32.3312 31.034 32.3333 32.6539 32.3375 34.2745C32.3375 34.433 32.2796 34.6069 32.4109 34.7472C32.4109 34.8106 32.4109 34.874 32.4109 34.9374C32.0921 35.1004 32.314 35.3903 32.2488 35.6149L32.2669 35.6248C32.1618 35.71 32.1057 35.806 32.2252 35.9192C32.2805 36.0097 32.0957 36.1139 32.2461 36.1963C32.0323 36.8629 31.6601 37.447 31.2843 38.0294C31.2182 38.0167 31.1692 38.0294 31.162 38.11L31.1701 38.1027C31.1571 38.1013 31.1439 38.103 31.1316 38.1077C31.1193 38.1123 31.1083 38.1198 31.0995 38.1295C31.0907 38.1392 31.0843 38.1509 31.0808 38.1635C31.0774 38.1762 31.0769 38.1895 31.0796 38.2024L31.085 38.1969C31.018 38.1969 30.9854 38.225 30.9899 38.2929L30.9971 38.2866C30.9304 38.3055 30.8696 38.3411 30.8205 38.3901C30.7713 38.439 30.7355 38.4997 30.7164 38.5664L30.7246 38.5592C30.6566 38.5547 30.6249 38.5864 30.624 38.6498L30.6313 38.6425C30.5525 38.6479 30.5407 38.6996 30.547 38.7648L29.924 39.195C29.8569 39.1832 29.7944 39.1778 29.8053 39.2774H29.8116C29.5553 39.2774 29.3588 39.406 29.1777 39.5627L29.1867 39.5581C29.1061 39.5509 29.0119 39.5147 28.9947 39.6487L29.0011 39.6442C28.9051 39.6759 28.7294 39.5273 28.7248 39.7673L27.7286 39.9865L27.6317 39.8959C27.5203 39.7836 27.3763 39.8217 27.2459 39.8217C19.4427 39.8217 11.6397 39.8217 3.83712 39.8217V39.8389C3.7701 39.6867 3.67955 39.703 3.57811 39.8027L3.3861 39.8344C2.61318 39.605 1.94887 39.1047 1.515 38.4251C1.52248 38.4013 1.52508 38.3762 1.52267 38.3513C1.52027 38.3265 1.51289 38.3024 1.50098 38.2804C1.48907 38.2584 1.47288 38.2391 1.45336 38.2235C1.43383 38.2079 1.41137 38.1964 1.38731 38.1897L1.39454 38.1987C1.39454 38.1362 1.3882 38.0846 1.30397 38.0991C1.31492 38.0135 1.30302 37.9265 1.26946 37.8469C1.2359 37.7674 1.18188 37.6982 1.11289 37.6463V37.6526C1.08482 37.4081 1.05584 37.1645 1.02776 36.9199C1.17176 36.7714 1.1645 36.6202 1.03499 36.4671C1.03499 34.7572 1.03499 33.0467 1.03499 31.3356C1.03499 31.1771 1.09297 31.0023 0.959839 30.8628C0.959839 30.6491 0.959839 30.4354 0.959839 30.2216C1.09478 30.0812 1.03318 29.9065 1.0359 29.7471C1.0513 28.9039 1.05764 28.0598 1.0667 27.2166L0.990617 27.0925C1.26232 27.0527 1.54488 27.2121 1.82292 27.0726C1.88541 27.0409 2.00405 27.0726 2.00405 27.1559C2.00858 27.6568 2.29206 27.3643 2.48406 27.3316C2.48406 27.7229 2.48406 28.1153 2.48406 28.509C2.32647 28.3632 2.40798 28.1721 2.39349 28.0018C2.37991 27.8207 2.27666 27.7781 2.12179 27.7908C1.92617 27.8062 2.0122 27.9294 2.00315 28.0444C1.98503 28.2889 2.17976 28.4791 2.14806 28.711C2.12995 28.8432 2.12089 28.9718 2.25674 29.0089C2.42247 29.0533 2.3627 28.8187 2.48043 28.7816C2.48043 31.1206 2.48043 33.4597 2.48043 35.7987C2.48043 35.9291 2.49583 36.0595 2.50398 36.1891C2.52411 36.1779 2.54295 36.1645 2.56014 36.1492C2.5692 36.1402 2.56738 36.1211 2.571 36.1066L2.64255 36.1112C2.70776 36.3204 2.53932 36.5749 2.76573 36.7524C2.97313 37.4959 3.3689 38.0529 4.18581 38.196C4.18469 38.223 4.19061 38.2499 4.20301 38.2739C4.27637 38.455 4.37148 38.3599 4.46386 38.2929C4.52363 38.2884 4.5834 38.2793 4.64499 38.2793C8.84426 38.2793 13.0441 38.2811 17.2446 38.2848C20.3444 38.2848 23.4448 38.2887 26.5458 38.2965C26.3701 38.4297 26.1663 38.3672 25.9771 38.3672C19.0427 38.3708 12.1077 38.3726 5.17207 38.3726C5.02988 38.3726 4.87865 38.3264 4.66944 38.4632H5.23095C12.0905 38.4632 18.95 38.4656 25.8095 38.4704C26.2931 38.4704 26.765 38.3862 27.245 38.3672C27.5049 38.3527 27.2314 38.2504 27.2531 38.196Z" fill="#FEAA39"/>
<path d="M2.47614 27.3335C2.28413 27.3661 2.00066 27.6586 1.99613 27.1578C1.99613 27.0781 1.87839 27.0428 1.815 27.0745C1.53696 27.214 1.25799 27.0546 0.983578 27.0944C0.947351 26.974 0.880348 26.8499 1.02254 26.7493C1.02254 20.6941 1.02524 14.6385 1.03067 8.58259C1.03067 8.46486 1.05423 8.33897 0.952799 8.24297L0.928345 8.25112C0.958232 8.00477 1.07687 7.77021 1.01891 7.5139V7.52115C1.1448 7.45956 1.13212 7.35179 1.10948 7.2422V7.24854C1.29061 7.07828 1.37212 6.85186 1.45182 6.62544C1.80141 5.79404 2.48065 5.3231 3.2731 4.99525C3.57184 4.88599 3.87594 4.79198 4.18421 4.71358C4.3427 4.65562 4.49666 4.71359 4.65243 4.73261C4.80821 4.87479 4.99842 4.80687 5.1714 4.80687C11.1778 4.8123 17.1854 4.81502 23.1942 4.81502C23.3862 4.95449 23.6253 4.91464 23.8354 4.98619C23.8408 5.07132 23.8354 5.16732 23.973 5.11027L23.9866 5.13563C23.791 5.39555 24.1116 5.83118 23.685 6.01231C23.3653 6.14726 23.0302 6.07661 22.7042 6.07661C17.013 6.08204 11.3215 6.08204 5.62965 6.07661C5.39018 6.08218 5.15194 6.11253 4.91872 6.16718C4.75479 6.20159 4.74391 6.30484 4.74481 6.43164C4.01575 6.41896 3.53304 6.84462 3.10013 7.35722C2.7116 7.35722 2.7605 7.64613 2.75325 7.89519C2.48155 8.23481 2.48155 8.64236 2.48155 9.04357C2.47793 13.6661 2.47614 18.2892 2.47614 22.9129C2.38557 22.9718 2.38557 23.0307 2.47614 23.0886C2.47614 23.2408 2.47614 23.3929 2.47614 23.5415C2.28232 23.9816 2.40639 24.4471 2.39824 24.8936C2.3919 25.2233 2.28595 25.572 2.47614 25.8899V26.5238C2.35115 26.6446 2.35115 26.7653 2.47614 26.8861V27.3335Z" fill="#FEAA39"/>
<path d="M12.9142 14.8141C13.0636 14.8249 13.213 14.8394 13.3625 14.8458C13.9439 14.8711 14.1558 15.1863 13.9765 15.7623C13.4884 16.0612 12.9477 16.0494 12.4043 16.024C11.72 15.9839 11.0335 16.0496 10.3692 16.2187C10.1999 16.264 9.95355 16.2622 9.98978 16.5556C9.20094 16.7495 8.5715 17.234 7.92395 17.685C7.44847 18.0156 7.00379 18.3896 6.40333 18.5065C6.1108 18.5644 5.89253 18.4231 5.65162 18.3471C5.49766 18.2982 5.56107 18.1732 5.64076 18.0572C6.11474 17.3917 6.65951 16.7795 7.26552 16.2314C7.91308 15.6301 8.6675 15.2651 9.46992 14.9744C9.81679 14.8485 10.2008 14.8249 10.5676 14.7543C11.3483 14.8059 12.1344 14.6882 12.9142 14.8141Z" fill="#FEAA39"/>
<path d="M4.7428 6.42345C4.7428 6.29666 4.75278 6.19341 4.9167 6.159C5.14992 6.10435 5.38816 6.074 5.62764 6.06843C11.3194 6.07205 17.011 6.07205 22.7022 6.06843C23.0282 6.06843 23.3633 6.13907 23.683 6.00413C24.1096 5.82299 23.789 5.38737 23.9846 5.12744C24.3224 5.56307 24.1893 6.015 23.6477 6.2722C23.6029 6.266 23.5579 6.26207 23.5127 6.26043C17.4079 6.26043 11.3025 6.26043 5.19654 6.26043C5.0788 6.26043 4.92484 6.17892 4.84062 6.351C4.82613 6.3999 4.80257 6.43613 4.7428 6.42345Z" fill="#FEAA39"/>
<path d="M30.9713 28.4148C30.9713 29.4373 30.9867 30.4598 30.9658 31.4813C30.9423 32.6026 30.916 33.7247 30.791 34.8414C30.7693 35.0334 30.7557 35.2263 30.5963 35.3667C30.6443 34.8233 30.7883 34.2943 30.7774 33.7464C30.7774 33.52 30.7874 33.2936 30.7874 33.0681C30.7911 28.2596 30.7944 23.4514 30.7974 18.6435L31.1479 18.0911L31.1425 18.0956C31.387 18.0702 31.6116 17.9335 31.867 17.9652L32.328 18.2034C32.328 18.2496 32.3343 18.2939 32.337 18.341L32.3234 18.4651C32.0613 18.506 31.7951 18.5142 31.531 18.4896C31.2267 18.447 30.9559 18.543 30.9604 19.013C30.9858 21.634 30.9731 24.2559 30.9731 26.8769V28.4166L30.9713 28.4148Z" fill="#FEAA39"/>
<path d="M1.02149 26.7493C0.8793 26.8499 0.946303 26.9739 0.98253 27.0944C1.00698 27.1361 1.03235 27.1768 1.05771 27.2185C0.860272 27.2375 0.944498 27.3933 0.943592 27.4838C0.943592 28.3967 0.943599 29.3106 0.950845 30.2235C0.950845 30.4372 0.950845 30.6509 0.950845 30.8647V36.4662C0.923675 36.5305 0.950845 36.6238 0.860278 36.6546C0.855448 33.5379 0.850906 30.4212 0.84668 27.3045C0.84668 21.1315 0.84668 14.9579 0.84668 8.78363C0.84668 8.6025 0.853937 8.42137 0.858465 8.24023H0.89287L0.92639 8.24929L0.950845 8.24114C0.945405 8.27108 0.941765 8.30133 0.939966 8.33171C0.939966 14.3616 0.939966 20.3916 0.939966 26.4215C0.942683 26.532 0.884734 26.6678 1.02149 26.7493Z" fill="#FEAA39"/>
<path d="M3.37598 39.8354L3.56797 39.8037L3.827 39.8399V39.8227C3.95922 39.9794 4.13672 39.8997 4.29159 39.8997C7.60754 39.9057 10.9232 39.9079 14.2385 39.9061C18.6998 39.9061 23.1609 39.9018 27.6216 39.8934L27.7185 39.9839C25.8075 39.9894 23.8956 39.9993 21.9847 40.0002C16.1141 40.0002 10.2439 40.0002 4.37402 40.0002C4.03078 39.9993 3.68934 40.0075 3.37598 39.8354Z" fill="#FEAA39"/>
<path d="M27.2515 38.1958C27.2297 38.2538 27.5032 38.3561 27.2424 38.3661C26.7624 38.3851 26.2906 38.4702 25.8069 38.4693C18.9474 38.4584 12.0879 38.456 5.22838 38.4621H4.66687C4.87608 38.3289 5.02914 38.3715 5.16952 38.3715C12.1045 38.3715 19.0395 38.3697 25.9745 38.3661C26.1637 38.3661 26.3675 38.4286 26.5432 38.2954C26.7171 38.2347 26.9254 38.3615 27.0812 38.1994L27.2515 38.1958Z" fill="#FEAA39"/>
<path d="M27.0841 38.1958C26.9284 38.3579 26.7219 38.2311 26.5462 38.2918C23.4464 38.287 20.346 38.283 17.245 38.28C13.0445 38.2764 8.84462 38.2746 4.64535 38.2746C4.58557 38.2746 4.5258 38.2836 4.46421 38.2882L4.20337 38.2691C4.19097 38.2451 4.18505 38.2183 4.18617 38.1913C10.2076 38.1913 16.2291 38.1885 22.2506 38.1831C23.8627 38.1867 25.4739 38.1958 27.0841 38.1958Z" fill="#FEAA39"/>
<path d="M2.79138 8.18642C2.70081 8.73978 2.74428 9.29767 2.74428 9.85375C2.74428 16.0123 2.74428 22.1708 2.74428 28.3293C2.74428 28.4489 2.7334 28.5693 2.72797 28.6916H2.67001C2.66458 28.5567 2.65462 28.4199 2.65462 28.2859C2.65462 24.0727 2.65462 19.8598 2.65462 15.6473C2.65462 13.3306 2.64374 11.0139 2.63831 8.69721C2.67725 8.51608 2.59211 8.31049 2.74879 8.15381C2.76211 8.16577 2.77636 8.17668 2.79138 8.18642Z" fill="#FEAA39"/>
<path d="M4.65426 4.72779C4.49848 4.71149 4.34453 4.65081 4.18604 4.70877C4.38347 4.61005 4.59722 4.62998 4.80643 4.62998C10.9142 4.62998 17.0221 4.62998 23.1299 4.62998C23.292 4.62998 23.464 4.59103 23.6062 4.71239L23.1932 4.7305C21.7161 4.7305 20.2399 4.71873 18.7627 4.71873C14.0599 4.71994 9.35708 4.72296 4.65426 4.72779Z" fill="#FEAA39"/>
<path d="M4.84082 6.35189C4.92142 6.17891 5.079 6.26132 5.19674 6.26132C11.3021 6.26132 17.4075 6.26132 23.5129 6.26132C23.5581 6.26296 23.6031 6.26689 23.6479 6.27309C23.4477 6.42434 23.2159 6.34736 23.0012 6.34736C16.9478 6.3534 10.8943 6.35491 4.84082 6.35189Z" fill="#FEAA39"/>
<path d="M32.4055 34.9352C32.4055 34.8718 32.4055 34.8084 32.4055 34.745C32.4055 34.5947 32.4155 34.4443 32.4155 34.2922C32.4155 28.9856 32.4176 23.679 32.4218 18.3724L32.4526 18.3516C32.5531 18.4693 32.5106 18.6115 32.5106 18.7419C32.5106 24.0932 32.5106 29.4451 32.5106 34.7976C32.5106 34.8727 32.5024 34.9479 32.4988 35.0231C32.4735 35.0231 32.4481 35.0231 32.4227 35.0231C32.42 34.9932 32.4119 34.9642 32.4055 34.9352Z" fill="#FEAA39"/>
<path d="M30.7995 18.6472C30.7959 23.4557 30.7926 28.2638 30.7896 33.0717C30.7896 33.2981 30.7832 33.5246 30.7796 33.7501L30.7072 33.587C30.7072 28.6065 30.7096 23.6253 30.7144 18.6436H30.7995V18.6472Z" fill="#FEAA39"/>
<path d="M2.67406 28.6929H2.73201C2.73865 31.2155 2.7456 33.738 2.75284 36.2606C2.75284 36.4254 2.76191 36.5903 2.76735 36.7551C2.54093 36.574 2.70937 36.3231 2.64417 36.1139C2.6505 35.9038 2.66137 35.6946 2.66137 35.4854C2.6668 33.22 2.67104 30.9558 2.67406 28.6929Z" fill="#FEAA39"/>
<path d="M9.9871 16.5561C9.95088 16.2626 10.1972 16.2644 10.3666 16.2192C11.0309 16.05 11.7173 15.9843 12.4016 16.0244C12.945 16.0498 13.4884 16.0616 13.9738 15.7627C13.9584 15.8959 13.9006 16.0207 13.809 16.1186C13.7184 16.1023 13.6233 16.0779 13.6025 16.2146L13.6107 16.2092C13.1325 16.1992 12.6534 16.1675 12.1761 16.1865C11.5874 16.2092 10.9824 16.1087 10.4209 16.3813C10.2298 16.3133 10.1501 16.5425 9.9871 16.5561Z" fill="#FEAA39"/>
<path d="M38.592 2.664C38.5504 2.25192 38.7732 1.90053 38.8637 1.51834C38.9598 1.1126 39.0639 0.714104 39.0141 0.292969C39.2314 0.481347 39.1381 0.74037 39.1046 0.940522C38.995 1.53102 38.8791 2.12513 38.592 2.664Z" fill="#FEAA39"/>
<path d="M10.4224 16.3809C10.9839 16.1092 11.5889 16.2088 12.1775 16.1861C12.6548 16.1671 13.1339 16.1988 13.6121 16.2088C13.5831 16.3048 13.5025 16.2939 13.431 16.2993C12.4275 16.3202 11.4222 16.2323 10.4224 16.3809Z" fill="#FEAA39"/>
<path d="M28.344 14.7736C28.9825 14.731 29.6173 14.7917 30.2522 14.847C29.985 14.9212 29.7016 14.808 29.4371 14.9185C28.9843 14.9185 28.526 14.9674 28.0786 14.8651C28.1628 14.8406 28.2715 14.8651 28.344 14.7736Z" fill="#FEAA39"/>
<path d="M18.5017 23.6299C19.0777 23.4941 19.6256 23.2505 20.2225 23.1816C19.7216 23.5041 19.1357 23.553 18.5787 23.6897L18.5017 23.6299Z" fill="#FEAA39"/>
<path d="M12.9137 14.8144C12.134 14.6885 11.3478 14.8063 10.5671 14.7546C11.3542 14.5835 12.1439 14.6514 12.9327 14.7402C12.9327 14.7402 12.9427 14.7673 12.94 14.7791C12.933 14.7921 12.9241 14.804 12.9137 14.8144Z" fill="#FEAA39"/>
<path d="M30.7074 33.5869L30.7798 33.7499C30.7916 34.2933 30.6476 34.8286 30.5987 35.3702H30.4855C30.5603 34.7785 30.6343 34.184 30.7074 33.5869Z" fill="#FEAA39"/>
<path d="M18.5002 23.6299L18.5736 23.6897C17.9152 23.8165 17.2558 23.8907 16.5911 23.7377C17.2259 23.6833 17.869 23.7639 18.5002 23.6299Z" fill="#FEAA39"/>
<path d="M30.4874 35.3701H30.6033C30.6793 35.707 30.4928 35.9814 30.3805 36.2703C30.3388 36.3781 30.2464 36.4832 30.0979 36.3836C30.1314 36.1019 30.404 35.9416 30.4602 35.6527C30.4837 35.5576 30.3732 35.4435 30.4874 35.3701Z" fill="#FEAA39"/>
<path d="M32.4206 35.0264C32.4459 35.0264 32.4713 35.0264 32.4966 35.0264C32.4477 35.424 32.4124 35.8252 32.2394 36.1965C32.0891 36.1141 32.2739 36.0081 32.2186 35.9194C32.2322 35.8215 32.2467 35.7228 32.2603 35.625L32.2421 35.6151C32.3979 35.4457 32.2766 35.1939 32.4206 35.0264Z" fill="#FEAA39"/>
<path d="M1.45391 6.625C1.37421 6.85142 1.29451 7.07783 1.11157 7.2481C1.09829 7.12172 1.12396 6.99431 1.18515 6.88294C1.24634 6.77156 1.34012 6.68156 1.45391 6.625Z" fill="#FEAA39"/>
<path d="M14.1983 22.0903C14.0996 22.4743 14.1078 22.8946 13.8143 23.2134C13.9764 22.8502 13.8995 22.4055 14.1983 22.0903Z" fill="#FEAA39"/>
<path d="M20.4836 23.0939C20.8011 22.8494 21.1776 22.6932 21.575 22.6411C21.2489 22.8802 20.8975 23.0613 20.4836 23.0939Z" fill="#FEAA39"/>
<path d="M28.3444 14.7735C28.2755 14.8641 28.1677 14.8405 28.0727 14.8641L27.7203 14.8532C27.8834 14.5525 28.1732 14.5245 28.4675 14.5063C28.4068 14.5408 28.3425 14.5707 28.2864 14.6105C28.2475 14.6434 28.212 14.6801 28.1804 14.7201L28.3444 14.7735Z" fill="#FEAA39"/>
<path d="M29.4314 14.9202C29.6959 14.8097 29.9793 14.9202 30.2465 14.8487C30.4796 14.8365 30.7133 14.8417 30.9457 14.8641C31.0888 14.8867 31.1032 14.9845 30.9303 15.0235C30.8071 14.9012 30.6586 14.9483 30.5128 14.9565L29.4314 14.9202Z" fill="#FEAA39"/>
<path d="M35.953 0.457031C35.5695 0.652553 35.1537 0.776832 34.7258 0.823825C35.0981 0.593786 35.5174 0.504126 35.953 0.457031Z" fill="#FEAA39"/>
<path d="M14.6854 20.2681C14.6501 20.6177 14.6121 20.9672 14.3676 21.2489C14.4608 20.9174 14.4536 20.5543 14.6854 20.2681Z" fill="#FEAA39"/>
<path d="M31.8682 17.9686C31.6137 17.9369 31.3891 18.0737 31.1437 18.099C31.3547 17.8826 31.5811 17.7585 31.8682 17.9686Z" fill="#FEAA39"/>
<path d="M37.0123 0.203141C36.6711 0.345074 36.3094 0.4316 35.9409 0.459446C36.2679 0.248426 36.6329 0.196802 37.0123 0.203141Z" fill="#FEAA39"/>
<path d="M23.1927 4.72967L23.6057 4.71156C23.7959 4.70522 23.7253 4.91987 23.8349 4.98326C23.6248 4.91172 23.3821 4.95156 23.1937 4.81209C23.1937 4.78311 23.1937 4.75684 23.1927 4.72967Z" fill="#FEAA39"/>
<path d="M1.02665 36.9216C1.05473 37.1661 1.08371 37.4097 1.11178 37.6542C0.862723 37.4441 0.98861 37.1154 0.861816 36.8672C0.891487 36.8574 0.923525 36.8574 0.953201 36.8672C0.982877 36.877 1.00863 36.896 1.02665 36.9216Z" fill="#FEAA39"/>
<path d="M2.75269 7.88709C2.75993 7.63803 2.71103 7.35274 3.09956 7.34912L2.83421 7.86716C2.81998 7.8647 2.8054 7.8652 2.79138 7.86863C2.77736 7.87206 2.76417 7.87834 2.75269 7.88709Z" fill="#FEAA39"/>
<path d="M14.9764 19.4668C14.9302 19.7557 14.8795 20.0428 14.6803 20.2756C14.7084 19.9803 14.7536 19.6905 14.9764 19.4668Z" fill="#FEAA39"/>
<path d="M30.7994 18.6473H30.7142C30.8184 18.4308 30.8048 18.122 31.1499 18.0957L30.7994 18.6473Z" fill="#FEAA39"/>
<path d="M0.927874 8.25117L0.894354 8.24211H0.85995C0.822806 7.98875 0.880891 7.73061 1.02297 7.51758C1.07641 7.77026 0.957761 8.00482 0.927874 8.25117Z" fill="#FEAA39"/>
<path d="M14.8054 25.562C14.7266 25.2975 14.8543 25.1236 15.0572 24.9814C15.0358 25.1965 14.9478 25.3994 14.8054 25.562Z" fill="#FEAA39"/>
<path d="M8.53321 33.3857C8.64008 33.5252 8.27964 33.8567 8.72613 33.8567C8.62107 33.9916 8.45441 33.9844 8.39101 33.8775C8.28867 33.7 8.40461 33.5279 8.53321 33.3857Z" fill="#FEAA39"/>
<path d="M1.02665 36.9214C1.00863 36.8958 0.982877 36.8768 0.953201 36.867C0.923525 36.8572 0.891487 36.8572 0.861816 36.867C0.861816 36.7964 0.861816 36.7248 0.861816 36.6542C0.958723 36.6234 0.92793 36.5301 0.952383 36.4658C0.977742 36.4658 1.00309 36.4658 1.02935 36.4658C1.16339 36.6216 1.17065 36.7728 1.02665 36.9214Z" fill="#FEAA39"/>
<path d="M25.7291 9.79336C25.8758 9.59774 26.0099 9.38672 26.2725 9.33057C26.0995 9.49268 26.0072 9.75804 25.7291 9.79336Z" fill="#FEAA39"/>
<path d="M29.1653 39.5597C29.3464 39.403 29.5457 39.2726 29.7992 39.2744C29.6054 39.4039 29.4361 39.5959 29.1653 39.5597Z" fill="#FEAA39"/>
<path d="M24.9155 10.6936C24.9155 10.4436 25.1338 10.3648 25.2869 10.2407C25.266 10.4744 25.074 10.5731 24.9155 10.6936Z" fill="#FEAA39"/>
<path d="M37.9448 4.4516C37.9284 4.35211 37.9376 4.25009 37.9713 4.15506C38.005 4.06004 38.0623 3.97511 38.1377 3.9082C38.1612 4.12013 38.0517 4.28587 37.9448 4.4516Z" fill="#FEAA39"/>
<path d="M8.72912 32.8525C8.71554 33.0509 8.69833 33.2483 8.52988 33.3887C8.51177 33.1831 8.53078 32.9866 8.72912 32.8525Z" fill="#FEAA39"/>
<path d="M1.10637 37.6523C1.17535 37.7042 1.22937 37.7735 1.26294 37.853C1.2965 37.9325 1.30842 38.0195 1.29748 38.1052C1.1743 37.9775 1.06562 37.8434 1.10637 37.6523Z" fill="#FEAA39"/>
<path d="M30.0652 13.8632C30.1183 13.7944 30.189 13.7413 30.2698 13.7094C30.3506 13.6775 30.4386 13.6681 30.5243 13.6821C30.4697 13.7491 30.3988 13.8009 30.3184 13.8327C30.238 13.8644 30.1508 13.8749 30.0652 13.8632Z" fill="#FEAA39"/>
<path d="M33.3323 12.1498C33.3323 11.9533 33.4763 11.87 33.6103 11.7749C33.6348 11.9868 33.4591 12.0502 33.3323 12.1498Z" fill="#FEAA39"/>
<path d="M21.5668 22.6429C21.6963 22.5198 21.8249 22.393 22.0296 22.4618C21.8919 22.5614 21.7633 22.6873 21.5668 22.6429Z" fill="#FEAA39"/>
<path d="M34.0605 11.3345C34.0995 11.1932 34.1511 11.0628 34.3268 11.0537C34.2435 11.1524 34.2245 11.3118 34.0605 11.3345Z" fill="#FEAA39"/>
<path d="M33.7796 11.688C33.7551 11.4742 33.9064 11.3999 34.0622 11.3257C34.083 11.5376 33.9073 11.5929 33.7796 11.688Z" fill="#FEAA39"/>
<path d="M32.3308 1.80828C32.2789 1.87745 32.2098 1.93172 32.1303 1.9656C32.0507 1.99947 31.9637 2.01175 31.8779 2.00119C32.0074 1.89885 32.1297 1.763 32.3308 1.80828Z" fill="#FEAA39"/>
<path d="M33.102 12.3927C33.0721 12.2116 33.256 12.2198 33.3321 12.1328C33.2551 12.2189 33.1781 12.3058 33.102 12.3927Z" fill="#FEAA39"/>
<path d="M30.5228 13.683C30.5944 13.5263 30.742 13.5499 30.8733 13.5381C30.8036 13.7011 30.6677 13.7011 30.5228 13.683Z" fill="#FEAA39"/>
<path d="M10.5935 28.958C10.54 29.0486 10.4866 29.1464 10.4341 29.2406L10.5935 28.958Z" fill="#FEAA39"/>
<path d="M36.6804 7.16958C36.6709 7.09452 36.6841 7.01834 36.7183 6.95086C36.7526 6.88338 36.8062 6.82771 36.8724 6.79102C36.857 6.94317 36.8443 7.09441 36.6804 7.16958Z" fill="#FEAA39"/>
<path d="M26.3625 9.24631C26.3508 9.04978 26.4649 8.98095 26.6342 8.97461C26.5819 9.09671 26.4846 9.194 26.3625 9.24631Z" fill="#FEAA39"/>
<path d="M9.79932 30.4072C9.84551 30.5829 9.80475 30.7142 9.61818 30.7695C9.61754 30.6991 9.63361 30.6295 9.6651 30.5665C9.69659 30.5036 9.7426 30.449 9.79932 30.4072Z" fill="#FEAA39"/>
<path d="M27.7186 18.6535C27.7096 18.4615 27.8046 18.3745 27.9903 18.3818C27.9353 18.502 27.8389 18.5985 27.7186 18.6535Z" fill="#FEAA39"/>
<path d="M36.404 7.71096C36.3965 7.63792 36.4103 7.56426 36.4439 7.49898C36.4775 7.43369 36.5294 7.37959 36.5932 7.34326C36.6367 7.51987 36.5489 7.62945 36.404 7.71096Z" fill="#FEAA39"/>
<path d="M29.5676 14.1123C29.5558 13.9203 29.6772 13.9312 29.8085 13.9529C29.794 14.105 29.6264 14.0272 29.5676 14.1123Z" fill="#FEAA39"/>
<path d="M15.055 24.9868C15.0496 24.831 15.055 24.6807 15.2407 24.6245C15.237 24.6946 15.2185 24.763 15.1865 24.8255C15.1546 24.8879 15.1097 24.9429 15.055 24.9868Z" fill="#FEAA39"/>
<path d="M1.37617 38.1904C1.40023 38.1972 1.42269 38.2087 1.44222 38.2243C1.46175 38.2398 1.47794 38.2592 1.48985 38.2811C1.50176 38.3031 1.50915 38.3272 1.51156 38.3521C1.51397 38.377 1.51134 38.4021 1.50386 38.4259C1.42779 38.3643 1.31912 38.3227 1.37617 38.1904Z" fill="#FEAA39"/>
<path d="M30.7072 38.5655C30.7263 38.4988 30.7621 38.4381 30.8112 38.3891C30.8603 38.3402 30.9212 38.3045 30.9879 38.2856C30.987 38.4677 30.8919 38.5628 30.7072 38.5655Z" fill="#FEAA39"/>
<path d="M28.7136 39.7617C28.7136 39.5217 28.8948 39.6712 28.9899 39.6386C28.9455 39.7862 28.7979 39.6956 28.7136 39.7617Z" fill="#FEAA39"/>
<path d="M24.9998 11.6772C25.0378 11.8394 24.9391 11.9055 24.8096 11.9489C24.7697 11.7868 24.9038 11.7506 24.9998 11.6772Z" fill="#FEAA39"/>
<path d="M38.2173 3.72778C38.1829 3.61094 38.1838 3.50227 38.2906 3.41895C38.3124 3.53396 38.3558 3.6526 38.2173 3.72778Z" fill="#FEAA39"/>
<path d="M34.6926 10.5158C34.6863 10.3791 34.728 10.274 34.8738 10.2441C34.9118 10.3972 34.804 10.457 34.6926 10.5158Z" fill="#FEAA39"/>
<path d="M9.97782 30.1255C9.98688 30.2631 9.96424 30.38 9.79669 30.4044C9.78635 30.3437 9.79926 30.2813 9.83282 30.2296C9.86638 30.1779 9.91813 30.1408 9.97782 30.1255Z" fill="#FEAA39"/>
<path d="M28.1709 18.2026C28.189 18.1057 28.2343 18.0396 28.3475 18.055L28.1709 18.2026Z" fill="#FEAA39"/>
<path d="M19.9765 11.0261C19.9698 11.0434 19.9664 11.0618 19.9666 11.0804L20.0055 11.0161L19.9765 11.0261Z" fill="#FEAA39"/>
<path d="M34.5036 0.908768C34.4411 1.0419 34.3297 1.01835 34.2192 0.999334C34.2844 0.882503 34.3922 0.893371 34.5036 0.908768Z" fill="#FEAA39"/>
<path d="M10.074 29.8638C10.1075 29.9797 10.103 30.082 9.97258 30.1355C9.91824 30.0096 9.99523 29.9344 10.074 29.8638Z" fill="#FEAA39"/>
<path d="M37.8629 4.62986C37.8421 4.54835 37.7869 4.44873 37.9445 4.44873C37.9454 4.51937 37.9508 4.59545 37.8629 4.62986Z" fill="#FEAA39"/>
<path d="M1.11379 7.24219C1.13371 7.35177 1.14639 7.45955 1.02322 7.52113C1.01235 7.41517 0.969787 7.29743 1.11379 7.24219Z" fill="#FEAA39"/>
<path d="M29.3418 7.33447C29.3617 7.47757 29.3074 7.5473 29.1606 7.51561C29.1727 7.47238 29.1957 7.433 29.2275 7.40127C29.2592 7.36954 29.2986 7.34653 29.3418 7.33447Z" fill="#FEAA39"/>
<path d="M29.1596 7.51562C29.1796 7.65872 29.1289 7.73117 28.9785 7.69676C28.9925 7.65454 29.0161 7.61617 29.0476 7.58472C29.079 7.55327 29.1174 7.52961 29.1596 7.51562Z" fill="#FEAA39"/>
<path d="M28.9776 7.69678C29.0093 7.85074 28.9305 7.89512 28.7965 7.87791C28.8083 7.83457 28.8313 7.79506 28.863 7.76329C28.8948 7.73152 28.9343 7.70859 28.9776 7.69678Z" fill="#FEAA39"/>
<path d="M2.75269 7.8867C2.76417 7.87795 2.77736 7.87167 2.79138 7.86824C2.8054 7.86481 2.81998 7.86431 2.83421 7.86677C2.85039 7.91991 2.85512 7.97588 2.84809 8.03099C2.84107 8.08609 2.82246 8.13909 2.79346 8.18647C2.77913 8.17723 2.76549 8.16694 2.75269 8.15568C2.75269 8.06511 2.75269 7.97454 2.75269 7.88398V7.8867Z" fill="#FEAA39"/>
<path d="M26.629 8.97549C26.6562 8.89579 26.6942 8.82968 26.793 8.8342L26.629 8.97549Z" fill="#FEAA39"/>
<path d="M20.9323 9.95898C20.9345 9.98397 20.9311 10.0091 20.9223 10.0326C20.9135 10.0561 20.8996 10.0773 20.8815 10.0947C20.8634 10.1121 20.8417 10.1252 20.8179 10.1331C20.7941 10.1409 20.7688 10.1433 20.7439 10.1401L20.9323 9.95898Z" fill="#FEAA39"/>
<path d="M20.6566 10.229C20.6647 10.3603 20.6131 10.431 20.4755 10.4101C20.4878 10.3671 20.511 10.3279 20.5426 10.2962C20.5743 10.2645 20.6135 10.2414 20.6566 10.229Z" fill="#FEAA39"/>
<path d="M24.7334 10.8745C24.7334 10.7504 24.7733 10.6671 24.9191 10.6933C24.9057 10.7366 24.8817 10.7758 24.8493 10.8075C24.8168 10.8391 24.777 10.8621 24.7334 10.8745Z" fill="#FEAA39"/>
<path d="M34.4177 10.88C34.4177 10.7622 34.4331 10.6563 34.5989 10.6907C34.5554 10.7722 34.5463 10.8827 34.4177 10.88Z" fill="#FEAA39"/>
<path d="M24.4352 11.196C24.3265 11.0909 24.4931 11.1181 24.4977 11.0674L24.4352 11.196Z" fill="#FEAA39"/>
<path d="M25.466 11.2396C25.4506 11.3537 25.4262 11.4579 25.2704 11.4072C25.3111 11.323 25.3438 11.2288 25.466 11.2396Z" fill="#FEAA39"/>
<path d="M25.2706 11.4053C25.3005 11.5583 25.2326 11.6118 25.0895 11.5864C25.1047 11.5449 25.1288 11.5072 25.1601 11.4759C25.1914 11.4446 25.2291 11.4205 25.2706 11.4053Z" fill="#FEAA39"/>
<path d="M24.8152 11.9417C24.7943 12.0504 24.7527 12.1355 24.6213 12.1282C24.6503 12.0223 24.6558 11.9009 24.8152 11.9417Z" fill="#FEAA39"/>
<path d="M29.7944 13.9566C29.8578 13.8398 29.9602 13.8343 30.0725 13.8606C30.0154 13.9838 29.914 13.991 29.7944 13.9566Z" fill="#FEAA39"/>
<path d="M20.2094 23.1852C20.27 23.0629 20.3724 23.0593 20.4865 23.0946C20.4267 23.2169 20.3262 23.2268 20.2094 23.1852Z" fill="#FEAA39"/>
<path d="M11.6188 31.5962C11.6218 31.5474 11.6425 31.5015 11.677 31.4669C11.7115 31.4324 11.7575 31.4117 11.8062 31.4087C11.8243 31.5527 11.7628 31.6161 11.6188 31.5962Z" fill="#FEAA39"/>
<path d="M9.53328 30.9453C9.57041 31.063 9.56859 31.1663 9.43274 31.217C9.4151 31.1671 9.41551 31.1126 9.43387 31.063C9.45224 31.0133 9.48741 30.9717 9.53328 30.9453Z" fill="#FEAA39"/>
<path d="M34.7293 0.820203C34.6858 0.937939 34.5889 0.922543 34.4948 0.910769C34.5283 0.769485 34.6433 0.831071 34.7293 0.820203Z" fill="#FEAA39"/>
<path d="M32.5168 1.72113C32.4833 1.81984 32.4064 1.82709 32.3203 1.81169C32.3312 1.67131 32.4426 1.73471 32.5168 1.72113Z" fill="#FEAA39"/>
<path d="M34.5955 10.6933C34.5475 10.5883 34.5801 10.5276 34.6951 10.5122C34.7467 10.6182 34.6797 10.6635 34.5955 10.6933Z" fill="#FEAA39"/>
<path d="M9.4327 31.2134C9.45625 31.3039 9.45898 31.3773 9.35573 31.4144C9.33309 31.3293 9.29957 31.2387 9.4327 31.2134Z" fill="#FEAA39"/>
<path d="M34.8726 10.2452C34.8654 10.2306 34.8615 10.2146 34.8612 10.1983C34.8609 10.1819 34.8643 10.1658 34.8711 10.1509C34.8779 10.1361 34.8878 10.123 34.9003 10.1125C34.9128 10.102 34.9275 10.0944 34.9433 10.0903C34.9379 10.151 35.0212 10.2506 34.8726 10.2452Z" fill="#FEAA39"/>
<path d="M28.9833 39.6449C29.0005 39.5136 29.0947 39.5498 29.1753 39.5543C29.1644 39.7011 29.0512 39.6223 28.9833 39.6449Z" fill="#FEAA39"/>
<path d="M20.3859 10.5015C20.4321 10.6038 20.3859 10.6572 20.2881 10.6826C20.2807 10.6644 20.2773 10.6447 20.2784 10.6251C20.2794 10.6054 20.2848 10.5862 20.2942 10.5689C20.3035 10.5516 20.3166 10.5365 20.3325 10.5249C20.3483 10.5132 20.3666 10.5052 20.3859 10.5015Z" fill="#FEAA39"/>
<path d="M25.4572 10.0659C25.4961 9.98982 25.5477 9.93548 25.6428 9.96446C25.5976 10.0297 25.574 10.1311 25.4572 10.0659Z" fill="#FEAA39"/>
<path d="M9.62065 30.7642C9.63695 30.8502 9.67046 30.9453 9.53008 30.9507C9.5328 30.8756 9.50744 30.7859 9.62065 30.7642Z" fill="#FEAA39"/>
<path d="M25.6368 9.96922C25.629 9.95084 25.6255 9.93091 25.6265 9.91096C25.6276 9.89101 25.6331 9.87156 25.6428 9.8541C25.6525 9.83663 25.6661 9.82161 25.6825 9.81017C25.6988 9.79873 25.7176 9.79118 25.7373 9.78809C25.7808 9.88861 25.7192 9.93299 25.6368 9.96922Z" fill="#FEAA39"/>
<path d="M36.3225 7.89485C36.289 7.80428 36.2908 7.72549 36.4131 7.70557C36.4213 7.72379 36.4254 7.74357 36.4251 7.76352C36.4248 7.78348 36.4202 7.80315 36.4116 7.82116C36.403 7.83916 36.3905 7.85508 36.3752 7.86781C36.3598 7.88053 36.3418 7.88976 36.3225 7.89485Z" fill="#FEAA39"/>
<path d="M29.5379 7.24083C29.5344 7.26205 29.5258 7.28213 29.513 7.29941C29.5002 7.31669 29.4835 7.33069 29.4642 7.34024C29.4449 7.34979 29.4237 7.35462 29.4021 7.35434C29.3806 7.35407 29.3595 7.34868 29.3405 7.33863C29.3461 7.31865 29.3558 7.30008 29.3691 7.28411C29.3824 7.26814 29.3988 7.25512 29.4174 7.24591C29.436 7.23669 29.4564 7.23148 29.4771 7.2306C29.4979 7.22973 29.5186 7.23321 29.5379 7.24083Z" fill="#FEAA39"/>
<path d="M36.5914 7.35147C36.576 7.26543 36.576 7.18663 36.682 7.16309C36.7173 7.25728 36.72 7.33698 36.5914 7.35147Z" fill="#FEAA39"/>
<path d="M15.2374 24.6255C15.223 24.5403 15.1894 24.4443 15.328 24.4443C15.3307 24.5204 15.3461 24.6028 15.2374 24.6255Z" fill="#FEAA39"/>
<path d="M15.3265 24.4433C15.2858 24.3455 15.3003 24.2758 15.4171 24.2622C15.4153 24.3338 15.4397 24.4225 15.3265 24.4433Z" fill="#FEAA39"/>
<path d="M10.1667 29.6826C10.1667 29.7623 10.2192 29.8638 10.0707 29.8692C10.0675 29.8322 10.0748 29.7951 10.0918 29.7621C10.1088 29.7291 10.1347 29.7015 10.1667 29.6826Z" fill="#FEAA39"/>
<path d="M10.3412 29.4053C10.3547 29.4904 10.3493 29.5665 10.2451 29.5909C10.2162 29.5013 10.2307 29.4243 10.3412 29.4053Z" fill="#FEAA39"/>
<path d="M10.4457 29.2354C10.449 29.2729 10.4404 29.3105 10.4213 29.343C10.4021 29.3755 10.3733 29.4012 10.3388 29.4165C10.3225 29.3205 10.3225 29.2417 10.4457 29.2354Z" fill="#FEAA39"/>
<path d="M15.4176 24.2633C15.4073 24.245 15.4012 24.2247 15.3997 24.2038C15.3981 24.1829 15.4013 24.1619 15.4088 24.1424C15.4163 24.1228 15.4281 24.1052 15.4432 24.0907C15.4584 24.0762 15.4765 24.0652 15.4964 24.0586C15.5209 24.1455 15.5354 24.2298 15.4176 24.2633Z" fill="#FEAA39"/>
<path d="M23.9724 5.10357C23.8347 5.16334 23.8402 5.06462 23.8347 4.97949C23.8689 4.97973 23.9018 4.99249 23.9271 5.01536C23.9525 5.03823 23.9686 5.06962 23.9724 5.10357Z" fill="#FEAA39"/>
<path d="M27.5382 18.7532C27.5726 18.6707 27.607 18.591 27.7193 18.6517C27.6786 18.7242 27.655 18.8202 27.5382 18.7532Z" fill="#FEAA39"/>
<path d="M38.1249 3.91375C38.1176 3.83315 38.0832 3.73896 38.2154 3.72266C38.1955 3.79058 38.2671 3.90107 38.1249 3.91375Z" fill="#FEAA39"/>
<path d="M32.3386 18.3445C32.3386 18.2983 32.3323 18.254 32.3296 18.2069C32.4356 18.2005 32.4319 18.2893 32.4554 18.3536L32.4247 18.3744L32.3386 18.3445Z" fill="#FEAA39"/>
<path d="M31.6977 2.08597C31.6759 2.22816 31.5772 2.17654 31.4939 2.16748C31.5347 2.07057 31.6198 2.08687 31.6977 2.08597Z" fill="#FEAA39"/>
<path d="M13.6053 16.2143C13.6262 16.0776 13.7213 16.102 13.8118 16.1183C13.7946 16.1564 13.7643 16.187 13.7264 16.2046C13.6885 16.2222 13.6456 16.2257 13.6053 16.2143Z" fill="#FEAA39"/>
<path d="M33.5984 11.7868C33.6382 11.7125 33.6763 11.6355 33.7795 11.6862C33.7379 11.7505 33.7161 11.8565 33.5984 11.7868Z" fill="#FEAA39"/>
<path d="M31.876 1.99658C31.8642 2.12971 31.7718 2.10254 31.6876 2.08715C31.713 1.9839 31.799 1.9993 31.876 1.99658Z" fill="#FEAA39"/>
<path d="M24.4778 11.0785C24.5249 11.025 24.5394 10.9263 24.6463 10.9607C24.6431 10.9796 24.6362 10.9976 24.626 11.0138C24.6158 11.03 24.6024 11.044 24.5867 11.0549C24.5711 11.0659 24.5534 11.0736 24.5347 11.0777C24.5159 11.0817 24.4966 11.082 24.4778 11.0785Z" fill="#FEAA39"/>
<path d="M34.3229 11.0552C34.2649 10.9447 34.3229 10.8967 34.4225 10.874C34.4814 10.9827 34.4053 11.0198 34.3229 11.0552Z" fill="#FEAA39"/>
<path d="M29.7944 39.2824C29.7836 39.1828 29.8461 39.1918 29.9131 39.2L29.7944 39.2824Z" fill="#FEAA39"/>
<path d="M30.5388 38.7663C30.5307 38.7011 30.5442 38.6495 30.623 38.644C30.6638 38.7319 30.5868 38.7391 30.5388 38.7663Z" fill="#FEAA39"/>
<path d="M30.6161 38.6487C30.6161 38.5826 30.6487 38.5509 30.7166 38.5581C30.7538 38.6659 30.7003 38.6714 30.6161 38.6487Z" fill="#FEAA39"/>
<path d="M30.9827 38.292C30.9827 38.224 31.0108 38.1932 31.0778 38.196C31.1122 38.2929 31.0814 38.3264 30.9827 38.292Z" fill="#FEAA39"/>
<path d="M31.0731 38.2012C31.0705 38.1883 31.0709 38.175 31.0744 38.1624C31.0778 38.1497 31.0842 38.1381 31.0931 38.1283C31.1019 38.1186 31.1129 38.1112 31.1252 38.1065C31.1374 38.1018 31.1506 38.1001 31.1637 38.1016C31.1827 38.1794 31.1818 38.2401 31.0731 38.2012Z" fill="#FEAA39"/>
<path d="M1.29492 38.1001C1.37915 38.0856 1.38549 38.1372 1.38549 38.1997C1.28134 38.2332 1.30488 38.1517 1.29492 38.1001Z" fill="#FEAA39"/>
<path d="M31.1566 38.1054C31.1639 38.0285 31.2128 38.0149 31.2789 38.0248C31.2535 38.0783 31.2427 38.1444 31.1566 38.1054Z" fill="#FEAA39"/>
<path d="M27.3678 18.9674C27.3678 18.9031 27.3678 18.8424 27.4529 18.8315C27.4882 18.9167 27.4194 18.9366 27.3678 18.9674Z" fill="#FEAA39"/>
<path d="M27.4496 18.839C27.4495 18.8264 27.4521 18.8139 27.4572 18.8023C27.4622 18.7908 27.4697 18.7804 27.4789 18.7719C27.4882 18.7633 27.4992 18.7569 27.5111 18.7528C27.5231 18.7488 27.5358 18.7473 27.5483 18.7484C27.5882 18.8535 27.5302 18.8544 27.4496 18.839Z" fill="#FEAA39"/>
<path d="M27.9919 18.3834C27.9657 18.2928 28.0082 18.2738 28.0825 18.2928C28.0814 18.3165 28.0715 18.3389 28.0548 18.3556C28.038 18.3724 28.0156 18.3823 27.9919 18.3834Z" fill="#FEAA39"/>
<path d="M28.0801 18.2928C28.0575 18.2022 28.0991 18.185 28.1752 18.2022C28.1752 18.2145 28.1727 18.2267 28.1679 18.238C28.1631 18.2493 28.156 18.2595 28.1471 18.2679C28.1382 18.2764 28.1277 18.283 28.1162 18.2873C28.1047 18.2915 28.0924 18.2934 28.0801 18.2928Z" fill="#FEAA39"/>
<path d="M25.0925 11.5864C25.1269 11.6833 25.0789 11.6978 25.002 11.677C25.002 11.653 25.0115 11.6299 25.0285 11.613C25.0455 11.596 25.0685 11.5864 25.0925 11.5864Z" fill="#FEAA39"/>
<path d="M25.3684 10.1558C25.401 10.1232 25.4345 10.0906 25.4671 10.0571C25.4961 10.1522 25.4671 10.1885 25.3684 10.1558Z" fill="#FEAA39"/>
<path d="M20.2955 10.6784C20.2972 10.6912 20.2961 10.7043 20.2923 10.7167C20.2885 10.729 20.2821 10.7405 20.2735 10.7502C20.2649 10.7599 20.2544 10.7676 20.2425 10.7729C20.2307 10.7782 20.2179 10.7808 20.2049 10.7807C20.1832 10.701 20.2103 10.6639 20.2955 10.6784Z" fill="#FEAA39"/>
<path d="M11.979 31.2324C11.9773 31.2193 11.9786 31.2059 11.983 31.1934C11.9873 31.1809 11.9946 31.1696 12.0041 31.1603C12.0136 31.1511 12.0251 31.1442 12.0377 31.1402C12.0503 31.1362 12.0637 31.1352 12.0768 31.1373C12.1076 31.2342 12.0551 31.2442 11.979 31.2324Z" fill="#FEAA39"/>
<path d="M12.0719 31.1437C12.0709 31.1312 12.0725 31.1187 12.0766 31.1068C12.0807 31.095 12.0872 31.0841 12.0958 31.0749C12.1043 31.0657 12.1146 31.0584 12.1261 31.0534C12.1376 31.0484 12.15 31.0459 12.1625 31.0459C12.1879 31.1319 12.1652 31.1718 12.0719 31.1437Z" fill="#FEAA39"/>
<path d="M20.4774 10.4102C20.4919 10.4871 20.4774 10.5351 20.3868 10.5007C20.3868 10.4767 20.3964 10.4537 20.4134 10.4367C20.4304 10.4197 20.4534 10.4102 20.4774 10.4102Z" fill="#FEAA39"/>
<path d="M11.4398 31.7773C11.4335 31.7067 11.4633 31.6741 11.5349 31.6868C11.5702 31.7828 11.5313 31.8063 11.4398 31.7773Z" fill="#FEAA39"/>
<path d="M12.1633 31.0521C12.1579 30.9842 12.1896 30.9525 12.2539 30.9552C12.2702 31.0304 12.2539 31.0766 12.1633 31.0521Z" fill="#FEAA39"/>
<path d="M21.0211 9.86768C21.0236 9.88082 21.0229 9.89438 21.0191 9.90719C21.0152 9.92001 21.0084 9.93171 20.999 9.94131C20.9897 9.9509 20.9782 9.95811 20.9655 9.96232C20.9528 9.96653 20.9392 9.96761 20.926 9.96548L21.0211 9.86768Z" fill="#FEAA39"/>
<path d="M21.1064 9.77344C21.1119 9.83865 21.0883 9.87759 21.0159 9.87306L21.1064 9.77344Z" fill="#FEAA39"/>
<path d="M26.2692 9.33595C26.2583 9.26078 26.29 9.22908 26.3661 9.24539L26.2692 9.33595Z" fill="#FEAA39"/>
<path d="M25.2762 10.2462C25.3098 10.2136 25.3423 10.181 25.3749 10.1475C25.4066 10.2453 25.3741 10.2788 25.2762 10.2462Z" fill="#FEAA39"/>
<path d="M28.7082 7.96729C28.7363 8.04336 28.6829 8.05785 28.6285 8.07144C28.6077 7.99989 28.643 7.97181 28.7082 7.96729Z" fill="#FEAA39"/>
<path d="M24.6418 10.965C24.6318 10.8907 24.6635 10.859 24.7378 10.869C24.7376 10.8944 24.7274 10.9186 24.7094 10.9366C24.6915 10.9545 24.6672 10.9647 24.6418 10.965Z" fill="#FEAA39"/>
<path d="M20.7513 10.1393C20.7658 10.2181 20.7286 10.2444 20.6553 10.2299C20.6553 10.2175 20.6578 10.2053 20.6627 10.1939C20.6675 10.1826 20.6747 10.1723 20.6837 10.1639C20.6927 10.1554 20.7033 10.1488 20.7149 10.1446C20.7266 10.1404 20.7389 10.1386 20.7513 10.1393Z" fill="#FEAA39"/>
<path d="M28.7982 7.87707C28.8145 7.95677 28.7774 7.98303 28.7031 7.96763C28.7031 7.95535 28.7056 7.94319 28.7104 7.9319C28.7153 7.9206 28.7223 7.91041 28.7312 7.90194C28.7401 7.89347 28.7506 7.88689 28.7622 7.88262C28.7737 7.87834 28.7859 7.87645 28.7982 7.87707Z" fill="#FEAA39"/>
<path d="M11.531 31.6871C11.5238 31.6174 11.5564 31.5875 11.6216 31.5911C11.6533 31.6808 11.6316 31.7224 11.531 31.6871Z" fill="#FEAA39"/>
<path d="M11.2643 31.98C11.2407 31.8994 11.2643 31.8541 11.3548 31.8623C11.3938 31.9546 11.3096 31.9519 11.2643 31.98Z" fill="#FEAA39"/>
<path d="M10.2515 29.5831C10.256 29.6465 10.2587 29.709 10.1609 29.6845C10.1727 29.6338 10.1564 29.5596 10.2515 29.5831Z" fill="#FEAA39"/>
<path d="M11.8014 31.4151C11.8001 31.4024 11.8015 31.3897 11.8055 31.3776C11.8094 31.3656 11.8159 31.3545 11.8244 31.3451C11.833 31.3357 11.8434 31.3282 11.855 31.3231C11.8666 31.318 11.8792 31.3154 11.8919 31.3154C11.901 31.3843 11.9055 31.4504 11.8014 31.4151Z" fill="#FEAA39"/>
<path d="M11.8895 31.3217C11.8895 31.2556 11.9203 31.2248 11.9855 31.2266C12.0036 31.3127 11.9656 31.3344 11.8895 31.3217Z" fill="#FEAA39"/>
<path d="M12.2513 30.9595C12.2513 30.8789 12.3039 30.8617 12.3727 30.8762C12.351 30.9315 12.3274 30.9831 12.2513 30.9595Z" fill="#FEAA39"/>
<path d="M11.3516 31.8671C11.338 31.7901 11.3815 31.7711 11.4422 31.772C11.4802 31.8698 11.4368 31.8888 11.3516 31.8671Z" fill="#FEAA39"/>
<path d="M29.4315 14.9203L30.5129 14.9565C29.657 15.1086 28.7966 15.028 27.9381 14.9945C27.8629 14.9945 27.7914 14.904 27.718 14.856L28.0703 14.8668C28.5259 14.9674 28.9787 14.9203 29.4315 14.9203Z" fill="#FEAA39"/>
<path d="M30.9698 28.415V28.1433C31.1015 28.1167 31.2304 28.0776 31.3547 28.0264C31.5141 27.9449 31.5847 27.8109 31.3945 27.6859C31.1708 27.5374 31.0694 27.3599 31.1437 27.0855C31.1754 26.9695 31.1002 26.8862 30.9698 26.8772C30.9698 24.2562 30.9824 21.6343 30.9571 19.0133C30.9526 18.5432 31.2234 18.4472 31.5277 18.4898C31.7918 18.5144 32.058 18.5062 32.3201 18.4653V19.5521C32.2948 19.5884 32.2486 19.6246 32.2486 19.6608C32.2438 20.8829 32.2438 22.1049 32.2486 23.3269C32.2486 23.3632 32.2939 23.4003 32.3183 23.4365V23.6249C32.2883 23.6537 32.2644 23.6883 32.2481 23.7266C32.2318 23.7649 32.2233 23.8061 32.2233 23.8477C32.2233 23.8893 32.2318 23.9305 32.2481 23.9688C32.2644 24.0071 32.2883 24.0417 32.3183 24.0705C32.3183 24.1611 32.3183 24.2516 32.3183 24.3476C32.1739 25.0015 32.1739 25.679 32.3183 26.3329C32.3183 26.5457 32.3183 26.7585 32.3183 26.9668C31.976 27.7194 32.187 28.472 32.3183 29.2237V29.4049C32.1272 29.5244 32.3509 29.8577 32.1281 29.8894C31.9053 29.9211 31.937 29.5851 31.7831 29.4737C31.5938 29.336 31.3474 29.2382 31.4914 28.924C31.5005 28.904 31.4779 28.8696 31.4697 28.8415C31.0178 29.0489 31.2496 28.4349 30.9698 28.415Z" fill="#FEAA39"/>
<path d="M2.75273 7.88525C2.75273 7.97582 2.75273 8.06639 2.75273 8.15695C2.59605 8.31273 2.68118 8.51922 2.64224 8.70035C2.5399 8.81628 2.5725 8.95756 2.5725 9.08979C2.5725 18.0957 2.5725 27.102 2.5725 36.1085C2.5725 36.123 2.57251 36.142 2.56164 36.1511C2.54445 36.1664 2.52561 36.1798 2.50548 36.1909C2.49733 36.0614 2.48193 35.931 2.48193 35.8006C2.48193 33.4622 2.48193 31.1231 2.48193 28.7835V28.5118C2.48193 28.1206 2.48193 27.7281 2.48193 27.3344V23.5361C2.48193 23.3839 2.48193 23.2318 2.48193 23.0832C2.48193 23.0244 2.48193 22.9664 2.48193 22.9075C2.48193 18.2844 2.48375 13.6613 2.48737 9.03817C2.48013 8.63243 2.48284 8.22488 2.75273 7.88525Z" fill="#FEAA39"/>
<path d="M2.57318 36.1059C2.57318 27.0988 2.57318 18.0925 2.57318 9.08719C2.57318 8.95497 2.54057 8.81549 2.64291 8.69775C2.64835 11.0154 2.65833 13.332 2.65923 15.6487C2.65923 19.8619 2.65923 24.0748 2.65923 28.2873C2.65923 28.4223 2.66919 28.559 2.67462 28.6931C2.671 30.9566 2.66676 33.2208 2.66193 35.4855C2.66193 35.6948 2.65107 35.904 2.64473 36.1141L2.57318 36.1059Z" fill="#FEAA39"/>
<path d="M27.6211 39.8932C23.1598 39.898 18.6988 39.9023 14.2381 39.9059C10.9221 39.9059 7.60648 39.9038 4.29113 39.8995C4.13627 39.8995 3.95877 39.9792 3.82654 39.8226C11.6298 39.8226 19.4327 39.8226 27.2353 39.8226C27.3657 39.8189 27.5097 39.7809 27.6211 39.8932Z" fill="#FEAA39"/>
<path d="M32.3297 24.3501C32.3297 24.2596 32.3297 24.169 32.3297 24.073V23.439V19.5546V18.4678L32.3433 18.3438L32.4293 18.3736C32.4293 23.6802 32.4272 28.9868 32.423 34.2934C32.423 34.4447 32.4166 34.595 32.413 34.7463C32.2817 34.6059 32.3406 34.432 32.3397 34.2735C32.333 32.6536 32.3297 31.0327 32.3297 29.411V29.2299V26.9729C32.3297 26.7601 32.3297 26.5473 32.3297 26.339C32.3297 25.6748 32.3297 25.0119 32.3297 24.3501Z" fill="#FEAA39"/>
<path d="M1.03217 36.4687C1.0059 36.4687 0.980559 36.4687 0.9552 36.4687V30.8672C1.08833 31.0067 1.02945 31.1815 1.03036 31.3399C1.03337 33.0492 1.03398 34.7588 1.03217 36.4687Z" fill="#FEAA39"/>
<path d="M2.47664 28.5049V28.7766C2.35891 28.8138 2.41868 29.0483 2.25295 29.004C2.1171 28.9668 2.12616 28.8382 2.14427 28.706C2.17597 28.4742 1.98127 28.284 1.99938 28.0394C2.00844 27.9244 1.92238 27.8012 2.118 27.7858C2.27016 27.7732 2.3734 27.813 2.3897 27.9969C2.40057 28.1708 2.31906 28.3619 2.47664 28.5049Z" fill="#FEAA39"/>
<path d="M0.953053 30.2257C0.953053 29.3128 0.942177 28.399 0.9458 27.4861C0.9458 27.3955 0.86248 27.2397 1.05991 27.2207C1.05086 28.0639 1.04451 28.908 1.02911 29.7511C1.0264 29.9078 1.08528 30.0826 0.953053 30.2257Z" fill="#FEAA39"/>
<path d="M32.4197 35.026C32.2739 35.1972 32.3953 35.4489 32.2386 35.6174C32.3038 35.3946 32.0819 35.103 32.4007 34.9399C32.4116 34.9644 32.4197 34.9934 32.4197 35.026Z" fill="#FEAA39"/>
<path d="M4.20239 38.2729L4.46324 38.292C4.37086 38.359 4.27575 38.4586 4.20239 38.2729Z" fill="#FEAA39"/>
<path d="M3.82763 39.8397L3.5686 39.8035C3.67004 39.7039 3.76061 39.6876 3.82763 39.8397Z" fill="#FEAA39"/>
<path d="M32.2611 35.6235C32.2475 35.7213 32.233 35.8201 32.2195 35.9179C32.0999 35.801 32.1561 35.7087 32.2611 35.6235Z" fill="#FEAA39"/>
<path d="M23.1922 4.72955C23.1922 4.75672 23.1922 4.78298 23.1922 4.81015C17.1852 4.81015 11.1777 4.80744 5.16948 4.80201C4.9965 4.80201 4.80719 4.86993 4.65051 4.72774C9.35394 4.72412 14.0568 4.72079 18.759 4.71777C20.2389 4.71777 21.7151 4.72592 23.1922 4.72955Z" fill="#FEAA39"/>
<path d="M1.02166 26.749C0.884907 26.6675 0.942859 26.5316 0.942859 26.422C0.939237 20.3921 0.939237 14.3622 0.942859 8.33227C0.944659 8.30189 0.948298 8.27164 0.953738 8.2417C1.05517 8.3377 1.03161 8.46359 1.03161 8.58132C1.02859 14.6372 1.02529 20.6931 1.02166 26.749Z" fill="#FEAA39"/>
<path d="M2.4747 23.5347V25.8831C2.28451 25.5652 2.39046 25.2165 2.3968 24.8868C2.40495 24.4367 2.28089 23.9766 2.4747 23.5347Z" fill="#FEAA39"/>
<path d="M2.47521 26.52V26.8823C2.35022 26.7603 2.35022 26.6396 2.47521 26.52Z" fill="#FEAA39"/>
<path d="M2.47523 22.9028C2.47523 22.9617 2.47523 23.0197 2.47523 23.0785C2.38648 23.0206 2.38557 22.9617 2.47523 22.9028Z" fill="#FEAA39"/>
<path d="M30.9733 26.8804C31.1037 26.8894 31.1788 26.9709 31.1471 27.0887C31.0729 27.3604 31.1743 27.5415 31.398 27.6891C31.5882 27.8141 31.5176 27.9482 31.3582 28.0297C31.2338 28.0796 31.1049 28.1175 30.9733 28.1429V26.8804Z" fill="#FEAA39"/>
<path d="M32.3309 19.5547V23.4391C32.3064 23.4029 32.2611 23.3657 32.2611 23.3295C32.2575 22.1075 32.2575 20.8854 32.2611 19.6634C32.2566 19.6299 32.3028 19.5909 32.3309 19.5547Z" fill="#FEAA39"/>
<path d="M32.3295 26.9736V29.2306C32.1936 28.4789 31.9826 27.7262 32.3295 26.9736Z" fill="#FEAA39"/>
<path d="M32.3294 24.3501C32.3294 25.0143 32.3294 25.676 32.3294 26.3353C32.185 25.6815 32.185 25.004 32.3294 24.3501Z" fill="#FEAA39"/>
<path d="M32.323 23.6274V24.073C32.2929 24.0442 32.2691 24.0096 32.2527 23.9713C32.2364 23.933 32.228 23.8919 32.228 23.8502C32.228 23.8086 32.2364 23.7674 32.2527 23.7291C32.2691 23.6909 32.2929 23.6563 32.323 23.6274Z" fill="#FEAA39"/>
</svg>
