<svg width="42" height="42" viewBox="0 0 42 42" fill="none" xmlns="http://www.w3.org/2000/svg">
<path d="M20.894 41.0712C9.68312 40.9761 0.802398 31.9187 0.963335 20.5791C1.12352 9.30228 10.743 0.518135 21.7795 0.944056C32.6469 1.36623 41.1241 10.0613 41.0381 21.0716C40.946 32.8245 31.5525 41.0195 20.894 41.0712ZM7.14254 21.3591C7.21739 21.2962 7.19497 21.2183 7.177 21.1405C7.04975 20.8845 7.17697 20.6337 7.20018 20.3822C7.35363 18.7811 7.67628 17.2189 8.2826 15.7218C8.32752 15.6117 8.42704 15.4972 8.31177 15.242C7.95471 15.6349 7.65157 15.998 7.31472 16.3259C7.22611 16.4009 7.15564 16.4951 7.10858 16.6012C7.06153 16.7074 7.03911 16.8228 7.04301 16.9389C7.05873 18.3439 7.05797 19.7489 7.06246 21.154C7.06246 21.1869 7.06621 21.2206 7.06845 21.2543C7.05872 21.3134 7.00331 21.4047 7.14254 21.3591ZM8.83875 27.1894L8.76389 27.1146C8.49891 26.5015 8.21223 25.8975 8.00862 25.259C7.79886 24.6235 7.62394 23.977 7.48464 23.3225C7.3559 22.6855 7.34618 22.0245 7.12236 21.4002C7.07005 21.4565 7.04135 21.5307 7.04224 21.6076C7.0385 22.8501 7.04223 24.0927 7.03175 25.3353C7.02989 25.4031 7.04295 25.4705 7.06999 25.5327C7.09702 25.5949 7.13738 25.6505 7.18822 25.6954C7.69823 26.1864 8.20696 26.6787 8.71448 27.1722L8.78337 27.2389L8.88144 27.3204C8.93309 27.2531 8.8904 27.2201 8.83875 27.1894ZM26.5186 8.32618L26.6017 8.33366L26.5658 8.26854C26.4407 8.13231 26.3142 7.99832 26.1915 7.86058C26.0687 7.72285 25.9819 7.49679 25.7962 7.48631C25.2326 7.45712 24.6659 7.47584 24.1 7.47584C24.9167 7.7498 25.7244 8.02377 26.5186 8.32543V8.32618ZM33.3849 27.0001C33.8266 26.5809 34.2687 26.1622 34.7114 25.744C34.8506 25.613 34.9472 25.4768 34.9464 25.2642C34.9394 22.526 34.9367 19.7876 34.9382 17.0489C34.9382 16.9397 34.9449 16.7967 34.8835 16.7271C34.4434 16.233 34.007 15.7323 33.4336 15.23C33.4726 15.361 33.4785 15.3932 33.492 15.4231C34.759 18.1718 35.0417 21.018 34.3401 23.9617C34.0836 24.9837 33.7495 25.9847 33.3408 26.9559C33.3311 26.9799 33.3213 27.0046 33.3109 27.0308L33.3849 27.0001ZM26.5096 7.50653L26.449 7.48856L26.4759 7.53497C26.9288 8.07692 27.3599 8.63982 27.9655 9.03205C29.878 10.2619 31.4777 11.8017 32.6634 13.7539C32.8461 14.0511 33.0651 14.3244 33.3154 14.5675C33.8393 15.0855 34.37 15.6005 34.9419 16.1597V15.5608C34.9382 12.9956 34.9307 10.4303 34.9359 7.86433C34.9359 7.61357 34.8903 7.5185 34.6133 7.53048C34.0414 7.55518 33.468 7.53797 32.8917 7.53572L26.5096 7.50653ZM28.8076 32.2833C28.8076 32.1164 28.8076 31.9487 28.8076 31.7818C28.8649 31.7596 28.9197 31.7312 28.9708 31.6972C30.4252 30.4681 31.7621 29.1267 32.6387 27.4148C33.9583 24.8338 34.6275 22.1068 34.1859 19.1958C33.5796 15.1948 31.6012 12.0053 28.2447 9.76413C25.5185 7.94218 22.4809 7.16369 19.1918 7.69815C17.6038 7.94452 16.0692 8.45885 14.6534 9.21919C13.0416 10.1019 11.6315 11.3111 10.5132 12.7695C8.39337 15.5017 7.3409 18.5805 7.70694 22.0589C8.01459 24.9783 9.10674 27.5862 11.0634 29.8019C11.7221 30.5504 12.4108 31.2675 13.2342 31.8409L13.2656 32.4158C12.4935 31.867 11.7856 31.233 11.1555 30.5257C9.91516 29.1162 8.77362 27.6176 7.34166 26.3848C7.25782 26.3099 7.21665 26.1602 7.04224 26.2014C7.04224 28.8587 7.04824 31.5115 7.03402 34.1636C7.03402 34.4728 7.12534 34.5267 7.40829 34.5237C9.50047 34.5005 11.5927 34.4945 13.6848 34.4825C13.7779 34.5979 13.8288 34.7415 13.8293 34.8897H7.05124C8.84572 36.6736 10.9667 38.0955 13.2986 39.0778C15.6093 40.0509 18.0144 40.6048 20.5916 40.5973C20.2997 40.2343 19.9696 40.0165 19.7645 39.6849C19.9366 39.7492 20.1163 39.7343 20.2944 39.7373C20.5519 39.9813 20.8042 40.411 21.0692 40.4192C21.3469 40.4282 21.5932 39.9895 21.805 39.7013C21.9645 39.6624 22.1381 39.723 22.2893 39.6265C22.183 40.0067 21.8177 40.2088 21.6067 40.5958C24.1427 40.5352 26.5119 39.9783 28.7927 39.0022C31.0735 38.0261 33.0728 36.654 34.9127 34.8732H34.5819H28.1983C28.2142 34.7311 28.2686 34.596 28.3555 34.4825C30.4207 34.4922 32.486 34.496 34.5512 34.5199C34.8551 34.5199 34.9419 34.4563 34.9404 34.1404C34.927 31.5767 34.9344 29.0129 34.9322 26.4499C34.9322 26.3601 34.9779 26.2545 34.8746 26.1632C34.7997 26.2283 34.7249 26.2927 34.65 26.3548C33.236 27.5338 32.1536 29.0144 30.9522 30.3887C30.3249 31.1126 29.643 31.7915 28.8076 32.2848V32.2833ZM35.3102 34.3193C37.7362 31.8708 39.2573 28.9395 40.0814 25.6362C41.2334 21.0185 40.6803 16.5789 38.636 12.3122C37.7987 10.5381 36.6872 8.90702 35.3424 7.47883C35.3269 7.54053 35.3147 7.60299 35.3057 7.66597C35.3057 10.5444 35.3057 13.4223 35.3057 16.2997C35.3057 16.4853 35.3866 16.5991 35.5078 16.7143C36.9548 18.1021 38.3972 19.4937 39.8815 20.8418C40.2423 21.1689 40.2416 21.1734 39.8673 21.52C38.6158 22.6787 37.3971 23.8794 36.0939 24.9753C35.4614 25.5067 35.2705 26.0592 35.2885 26.8541C35.3416 29.3423 35.3102 31.8319 35.3102 34.3208V34.3193ZM6.72711 7.60384C-0.554709 14.7569 -0.234323 27.4477 6.64403 34.3844C6.65302 34.3635 6.67097 34.3433 6.67097 34.3223C6.68145 31.5437 6.69169 28.7654 6.70167 25.9873C6.70393 25.9135 6.68953 25.8401 6.6596 25.7726C6.62967 25.7051 6.58497 25.6452 6.52875 25.5973C5.0676 24.2237 3.61466 22.8427 2.15201 21.4706C1.73058 21.0761 1.71711 21.0851 2.13779 20.6869C3.57649 19.326 5.01643 17.9664 6.45763 16.6081C6.60734 16.4703 6.73161 16.3393 6.73161 16.1065C6.72487 13.2935 6.72711 10.479 6.72711 7.60533V7.60384ZM35.0467 7.14872C33.1537 5.31854 31.1146 3.89706 28.7814 2.91422C26.4482 1.93138 24.0371 1.37072 21.4457 1.34976C21.5205 1.46429 21.552 1.51819 21.5902 1.56535C22.9772 3.27726 24.3733 4.98169 25.7424 6.70708C25.9707 6.99377 26.1967 7.09932 26.5508 7.10007C29.0299 7.10531 31.5099 7.13001 33.989 7.14798C34.3079 7.15247 34.6275 7.15022 35.0467 7.15022V7.14872ZM7.33417 7.008H7.56999C10.3082 7.008 13.0463 7.008 15.7845 7.02372C16.0405 7.02372 16.1677 6.89197 16.3017 6.72954C17.2883 5.52888 18.2741 4.32722 19.2592 3.12456C19.736 2.54369 20.2144 1.96282 20.7084 1.36249C16.3758 1.15365 9.475 4.06398 7.33417 7.00949V7.008ZM15.6939 7.4197C15.5674 7.40248 15.5232 7.39125 15.4791 7.3905C12.8023 7.37927 10.1255 7.37329 7.44872 7.35233C7.16577 7.35233 7.09541 7.43541 7.09616 7.71088C7.10589 10.3383 7.10138 12.9656 7.10138 15.5938C7.10138 15.7008 7.11036 15.8079 7.1201 16.0107C7.85516 15.233 8.68305 14.6446 9.23173 13.819C10.5229 11.8592 12.2108 10.1919 14.1863 8.92501C14.7784 8.547 15.146 7.93694 15.6939 7.4197ZM25.5148 7.07611C25.4527 6.98928 25.4265 6.94886 25.3965 6.91218C24.0452 5.25391 22.6945 3.59589 21.3447 1.93812C21.0497 1.57507 21.0594 1.57133 20.7735 1.92015C19.6372 3.30446 18.5002 4.68751 17.3624 6.06932L16.5922 7.00725C19.5953 7.07088 22.5289 7.07911 25.5178 7.07611H25.5148ZM6.6777 25.2081V17.0355C6.64458 17.0412 6.61283 17.0532 6.58413 17.0707C5.22378 18.3317 3.86392 19.593 2.50457 20.8545C2.32567 21.0192 2.32719 21.127 2.50834 21.2939C3.54133 22.2491 4.56381 23.2147 5.58931 24.1773C5.93065 24.4977 6.26899 24.8203 6.6777 25.2081ZM35.3289 25.1489C35.4382 25.0628 35.4884 25.0284 35.5333 24.9872C36.841 23.7791 38.145 22.5672 39.4579 21.365C39.6428 21.1959 39.5964 21.109 39.4369 20.9601C38.1352 19.7437 36.8425 18.5183 35.5445 17.2975C35.4884 17.2443 35.4404 17.1478 35.3282 17.2106L35.3289 25.1489ZM15.4244 8.31346C16.28 8.00281 17.1393 7.76103 17.9874 7.47958C17.4575 7.4444 16.9395 7.44215 16.4155 7.44664C16.3421 7.43936 16.2685 7.45731 16.2067 7.49754C15.9394 7.76328 15.6834 8.04024 15.4244 8.31346Z" fill="#FEAA39"/>
<path d="M8.83924 27.1895C8.89089 27.2201 8.93355 27.2531 8.88489 27.3189L8.78687 27.2374C8.80641 27.2238 8.82401 27.2077 8.83924 27.1895Z" fill="#FEAA39"/>
<path d="M8.78777 27.2375L8.71887 27.1709L8.76829 27.1133L8.84314 27.1881C8.82709 27.2071 8.80847 27.2238 8.78777 27.2375Z" fill="#FEAA39"/>
<path d="M33.3858 26.9992L33.3109 27.0299C33.3214 27.0052 33.3312 26.9805 33.3409 26.9551L33.3858 26.9992Z" fill="#FEAA39"/>
<path d="M26.5664 8.26465L26.6023 8.32977L26.5192 8.32229L26.5664 8.26465Z" fill="#FEAA39"/>
<path d="M26.4748 7.5342L26.4479 7.48779L26.5085 7.50576L26.4748 7.5342Z" fill="#FEAA39"/>
<path d="M13.9558 28.6183C13.7544 28.6513 13.6406 28.5158 13.5149 28.3938C11.9489 26.9012 11.0043 25.0725 10.6285 22.9556C9.92787 19.0123 11.0484 15.6199 13.9453 12.8952C16.0614 10.9033 18.6551 10.0605 21.5729 10.2004C25.8845 10.404 29.8309 13.4356 31.0944 17.5541C32.1199 20.8949 31.5944 24.0133 29.7358 26.9326C29.3724 27.4846 28.9492 27.9947 28.4737 28.4536C28.3121 28.6138 28.2103 28.6602 28.1332 28.3923C28.0007 27.9297 27.7274 27.5397 27.4385 27.1669C27.324 27.0172 27.3435 26.9603 27.4595 26.8405C28.9289 25.3247 29.6647 23.5043 29.8668 21.4031C30.2178 17.7495 27.7319 13.7792 23.9735 12.47C19.0331 10.7484 13.8323 13.4746 12.4347 18.5923C11.5836 21.7085 12.3486 24.4901 14.4857 26.8967C14.6444 27.0756 14.6781 27.1714 14.5254 27.387C14.3211 27.6767 14.1062 27.9716 13.982 28.3137C13.9453 28.414 13.8592 28.5075 13.958 28.6176L13.9558 28.6183Z" fill="#FEAA39"/>
<path d="M18.0717 24.6139C17.5552 24.8347 17.0701 25.0631 16.6495 25.3909C16.4399 25.5556 16.3822 25.364 16.2984 25.2756C15.4848 24.4258 14.9315 23.3609 14.704 22.2066C14.308 20.2342 14.6224 18.389 15.8642 16.77C18.2453 13.662 22.7343 13.4427 25.5953 16.228C28.1201 18.6877 28.0206 22.7007 25.8296 25.1858C25.6657 25.3715 25.5429 25.4321 25.3056 25.2607C24.9089 24.9672 24.4463 24.7801 23.9627 24.587C25.1125 23.5547 25.7645 22.3024 25.7427 20.7634C25.724 19.5021 25.2307 18.4182 24.3362 17.5335C22.3788 15.5977 19.5688 15.6052 17.6375 17.5162C15.7789 19.3494 15.7153 22.4664 18.0717 24.6139Z" fill="#FEAA39"/>
<path d="M16.3167 35.6067C16.7434 36.2212 17.2666 36.7505 17.8086 37.2617C17.8112 37.2885 17.8193 37.3145 17.8324 37.338C17.8455 37.3615 17.8634 37.382 17.8848 37.3983C17.9063 37.4145 17.9309 37.4261 17.9571 37.4324C17.9832 37.4387 18.0104 37.4394 18.0369 37.4346H18.0317C18.1267 37.6772 18.4059 37.7101 18.5556 37.8912C18.3558 37.9242 18.2165 37.7415 18.0242 37.7453L18.0294 37.7498C18.0245 37.7245 18.0146 37.7004 18.0003 37.679C17.986 37.6575 17.9676 37.6391 17.9462 37.6249C17.9248 37.6106 17.9007 37.6007 17.8754 37.5958C17.8501 37.5909 17.8241 37.5911 17.7989 37.5963H17.8056L17.6926 37.5177C17.5242 37.4593 17.4104 37.3283 17.2831 37.2183C17.3422 37.0491 17.212 37.0851 17.1252 37.0723L17.1319 37.0768L17.0511 36.9952L17.057 37.002L16.9755 36.9211L16.9822 36.9279C16.9552 36.9002 16.9276 36.8732 16.9006 36.8463L16.9073 36.853L16.825 36.7714L16.8325 36.7789L16.7516 36.6966L16.7591 36.7026L16.6686 36.621L16.6087 36.5603C16.5862 36.481 16.6431 36.3358 16.459 36.3897C16.2847 36.2164 16.1404 36.0153 16.0323 35.7946C16.078 35.7474 16.0495 35.7317 16.0024 35.7242L16.0069 35.7287C16.0069 35.6636 16.0069 35.5962 15.923 35.5753L15.9282 35.5835C15.935 35.5086 15.9282 35.4458 15.8377 35.4338L15.8467 35.4428C15.8586 35.3679 15.8579 35.3013 15.7621 35.2848L15.771 35.2938C15.783 35.2189 15.7853 35.1516 15.6895 35.1336L15.6985 35.1418C15.7098 35.0405 15.6945 34.9379 15.6542 34.8442C15.6139 34.7505 15.55 34.6689 15.4687 34.6074L15.4784 34.6156C15.4215 34.0415 15.1902 33.501 15.1453 32.9239C15.1453 32.9074 15.0817 32.8962 15.048 32.8827C15.048 32.5334 15.048 32.1829 15.048 31.831C15.1835 31.7629 15.1752 31.6372 15.1872 31.5122C15.2305 30.9955 15.3506 30.4881 15.5435 30.0068C15.5907 29.8923 15.6588 29.7823 15.6184 29.6528L15.6101 29.6618C15.7785 29.557 15.8249 29.3885 15.8474 29.2074L15.8392 29.2149C16.0158 29.1498 16.0585 29.0016 16.0735 28.8361L16.0675 28.8429C16.0929 28.8382 16.117 28.8285 16.1387 28.8145C16.1603 28.8004 16.179 28.7822 16.1936 28.761C16.2082 28.7397 16.2185 28.7157 16.2238 28.6905C16.2291 28.6652 16.2294 28.6392 16.2247 28.6138L16.2202 28.6198L16.295 28.533L16.2861 28.5412C16.4013 28.497 16.5106 28.4499 16.4807 28.2919L16.4911 28.2837C16.5997 28.3084 16.5937 28.2335 16.5959 28.1654L16.5922 28.1714L16.6723 28.0898L16.6663 28.0958L16.7471 28.0157L16.7412 28.021L16.822 27.9409L16.8168 27.9461L16.8969 27.8653L16.8909 27.8713L16.9717 27.7904L16.9657 27.7971L17.0466 27.7163L17.0398 27.7223L17.1222 27.6422L17.1169 27.6459C17.186 27.6477 17.2536 27.6254 17.3082 27.583C17.3628 27.5406 17.401 27.4805 17.4163 27.4131L17.4096 27.4176C17.5758 27.4289 17.6611 27.3308 17.718 27.1931L17.7135 27.1976C17.8767 27.1796 18.0242 27.1369 18.0878 26.964L18.0803 26.9708C18.1492 26.9745 18.2151 26.9708 18.2383 26.8892L18.23 26.8959C18.2981 26.8959 18.3655 26.8996 18.3865 26.8136L18.3797 26.821L20.2751 26.3046L21.8507 26.2933L21.8425 26.2881C22.0739 26.4176 22.3405 26.4701 22.6038 26.4378L22.5993 26.4266C22.6449 26.5613 22.7243 26.5366 22.8118 26.4715C23.8126 26.9266 24.8516 27.3248 25.5119 28.2874C25.5119 28.3623 25.5006 28.4372 25.6129 28.4372H25.6249C25.5942 28.5921 25.705 28.64 25.8158 28.6872L25.8113 28.6812C25.8056 28.7065 25.8052 28.7328 25.81 28.7583C25.8148 28.7838 25.8248 28.8081 25.8393 28.8297C25.8538 28.8513 25.8725 28.8697 25.8943 28.8838C25.9161 28.8979 25.9406 28.9074 25.9662 28.9117L25.9602 28.9057C25.9976 29.1176 26.0628 29.3152 26.2596 29.438V29.4327C26.2596 29.5824 26.2207 29.7441 26.4176 29.807L26.4116 29.801C26.4035 30.0712 26.4857 30.3365 26.6451 30.5548L26.6377 30.545C26.6377 30.6543 26.5883 30.7771 26.7125 30.8564C26.7013 31.2846 26.8046 31.7053 26.7874 32.1372C26.7687 32.5422 26.6077 32.9262 26.6377 33.3349L26.6459 33.3274C26.4535 33.4943 26.4161 33.7189 26.4093 33.9554C26.342 34.2032 26.1758 34.3926 26.0291 34.5932C25.9353 34.653 25.8545 34.7311 25.7915 34.8227C25.7284 34.9144 25.6845 35.0179 25.6623 35.1269L25.6668 35.1201L25.5874 35.2047L25.5942 35.195C25.5665 35.2302 25.5395 35.2654 25.5119 35.2998C25.2933 35.5401 25.0874 35.7938 24.7887 35.9428C24.6667 35.939 24.5642 35.9682 24.544 36.109L24.5515 36.1015C24.526 36.0942 24.4994 36.0923 24.4732 36.096C24.447 36.0998 24.4219 36.109 24.3995 36.1232C24.3772 36.1373 24.3581 36.156 24.3435 36.1781C24.3289 36.2002 24.3192 36.2251 24.3149 36.2512L24.3216 36.2445C24.252 36.2445 24.1862 36.2444 24.1675 36.332L24.1764 36.3245C24.1016 36.3141 24.0402 36.3186 24.017 36.4054L24.026 36.3972C23.9571 36.3919 23.8898 36.3904 23.8651 36.472L23.8725 36.466C23.743 36.4376 23.6315 36.5049 23.514 36.5364C22.8253 36.7205 22.1441 36.8867 21.4113 36.7744C20.9996 36.7108 20.6104 36.5326 20.1867 36.5446L20.1949 36.5528C20.0348 36.3835 19.8217 36.2739 19.5909 36.2422L19.5984 36.2489C19.5531 36.1647 19.488 36.0929 19.4087 36.0395C19.3294 35.9862 19.2383 35.953 19.1432 35.9428H19.15C19.1006 35.8328 19.0519 35.722 18.8977 35.7474C18.9112 35.6441 18.8401 35.6441 18.7697 35.6426L18.7765 35.6479L18.6949 35.5655L18.7016 35.573L18.6193 35.4914L18.6245 35.4982C18.6178 35.3844 18.6073 35.2736 18.4441 35.3088L18.4224 35.2931L18.4546 35.2399L18.4029 35.2654C18.2308 35.0662 18.0287 34.8873 17.9538 34.6231C17.8213 34.2324 17.712 33.8319 17.4882 33.4786L17.4987 33.4838C17.5638 33.1702 17.4493 32.8678 17.4238 32.5609C17.3729 31.962 17.5893 31.4141 17.6484 30.8392L17.6394 30.8475C17.8064 30.7314 17.864 30.5608 17.8797 30.3684C18.1133 29.8773 18.4853 29.5113 18.9277 29.2134C19.0819 29.2576 19.1694 29.1827 19.2233 29.0487L19.2173 29.0547C19.2855 29.0547 19.3521 29.0547 19.3715 28.9679L19.3618 28.9754C19.4307 28.9836 19.4966 28.9843 19.525 28.9005L19.5182 28.905C19.6028 28.8975 19.7076 28.9394 19.7428 28.8129L19.7339 28.8219C20.0273 28.8436 20.2982 28.7343 20.5782 28.6797C20.8312 28.7246 21.0648 28.5255 21.3215 28.6213C21.6471 28.8144 22.0191 28.8294 22.3769 28.9005L22.368 28.8915C22.3919 28.9798 22.4578 28.9828 22.5296 28.9716L22.5207 28.9634C22.5386 29.0562 22.6052 29.0569 22.6778 29.0472L22.6681 29.0405C22.6876 29.1258 22.7527 29.1303 22.8223 29.1281L22.8156 29.1213C22.8256 29.1725 22.8554 29.2177 22.8986 29.2469C22.9419 29.2761 22.9949 29.2869 23.0462 29.277L23.0409 29.2725C23.047 29.3105 23.064 29.346 23.09 29.3744C23.1159 29.4029 23.1496 29.4231 23.1869 29.4327C23.228 29.5031 23.2617 29.5892 23.371 29.5293L23.3665 29.5525C23.3568 29.6124 23.3807 29.6363 23.4414 29.6228V29.6281C23.4309 29.6865 23.4541 29.7112 23.5162 29.7029H23.5469C23.5043 29.7449 23.5177 29.7778 23.5611 29.8107C23.5826 29.8622 23.615 29.9085 23.6561 29.9462C23.6972 29.984 23.746 30.0123 23.7992 30.0293L23.7947 30.0241C23.7892 30.0493 23.7888 30.0754 23.7936 30.1008C23.7984 30.1262 23.8083 30.1504 23.8227 30.1719C23.8371 30.1933 23.8557 30.2117 23.8774 30.2258C23.8991 30.2399 23.9234 30.2494 23.9489 30.2539L23.9444 30.2486C23.9288 30.3474 23.949 30.4486 24.0013 30.5338C24.279 31.0391 24.3381 31.5818 24.3142 32.1507C24.3045 32.3752 24.1862 32.5826 24.2446 32.8101L24.252 32.8034C24.1811 32.8571 24.1234 32.9264 24.0836 33.006C24.0437 33.0856 24.0227 33.1733 24.0222 33.2623L24.029 33.254C23.8957 33.284 23.8606 33.3783 23.8666 33.5003C23.7324 33.7348 23.5462 33.9354 23.3223 34.0867C23.0985 34.238 22.8429 34.336 22.5753 34.3731C22.5049 34.3914 22.4365 34.4165 22.371 34.4479C21.863 34.4653 21.355 34.415 20.8604 34.2982L20.8701 34.305C20.8469 34.2241 20.7833 34.2166 20.7144 34.2204L20.7204 34.2264C20.7153 34.2009 20.7052 34.1766 20.6907 34.1551C20.6762 34.1335 20.6575 34.115 20.6358 34.1008C20.614 34.0865 20.5897 34.0767 20.5641 34.0719C20.5386 34.0671 20.5123 34.0675 20.4869 34.0729L20.4944 34.0789C20.4442 33.9704 20.4015 33.8544 20.2414 33.888C20.241 33.8826 20.241 33.8771 20.2414 33.8716C20.2518 33.8109 20.2279 33.787 20.1665 33.7967C20.1614 33.7959 20.1564 33.7947 20.1515 33.793C20.1964 33.6799 20.1208 33.6433 20.0362 33.6178L20.0407 33.6238C20.0407 33.3992 19.8843 33.2391 19.8162 33.0399C19.6522 32.5399 19.802 32.0668 19.8843 31.5825L19.8761 31.5908C19.9644 31.5743 19.9659 31.5077 19.9651 31.4411L19.9606 31.4478L20.04 31.34C20.0783 31.2552 20.1454 31.1868 20.2294 31.1469L20.3409 31.0683H20.3357C20.4277 31.0443 20.5191 31.0151 20.6126 30.9987C20.7062 30.9822 20.8245 30.8647 20.912 30.9867C21.0041 31.1222 20.8866 31.2 20.7893 31.2779C20.7556 31.3041 20.7444 31.3587 20.7227 31.4006C20.573 31.5571 20.4143 31.706 20.3102 31.9007C20.1755 31.9306 20.1995 32.0354 20.2032 32.1312L20.2099 32.12C20.0183 32.5362 20.1126 33.0302 20.4345 33.3102L20.427 33.3004C20.4225 33.3753 20.4172 33.4442 20.5258 33.4307L20.5146 33.4397C20.5093 33.4966 20.5355 33.522 20.5894 33.5145L20.5954 33.504C20.5819 33.6088 20.6545 33.6058 20.7234 33.6066L20.7144 33.6021L20.832 33.6837C20.9203 33.6777 20.9615 33.7488 21.0161 33.7975C21.3649 34.1598 21.7841 34.0969 22.21 33.9958C22.5169 33.9502 22.7557 33.7675 23.0027 33.6021L23.1045 33.5272H23.0978C23.1659 33.5272 23.2475 33.5347 23.2063 33.4217L23.2243 33.409C23.4399 33.4007 23.5237 33.269 23.5484 33.0736L23.5424 33.0804C23.7445 32.9935 23.7805 32.8214 23.7745 32.6312L23.7692 32.6372C23.8441 32.6178 23.8523 32.5624 23.8576 32.498C23.9654 32.4074 23.9593 32.2652 23.9706 32.1544C24.0305 31.5698 23.9631 31.0099 23.5364 30.5525L23.5439 30.5608C23.5619 30.435 23.5155 30.3542 23.386 30.3295L23.3935 30.3377C23.2879 29.9941 23.0484 29.7815 22.7235 29.6535L22.7295 29.6588C22.7249 29.6329 22.715 29.6083 22.7004 29.5865C22.6857 29.5646 22.6667 29.5461 22.6445 29.532C22.6224 29.5179 22.5975 29.5086 22.5716 29.5047C22.5456 29.5007 22.5191 29.5022 22.4937 29.5091L22.5027 29.5166C22.4638 29.3496 22.3365 29.3451 22.2033 29.3534L22.2085 29.3579C22.1756 29.2463 22.0835 29.2156 21.9839 29.1894C21.0063 28.9267 20.0714 28.9701 19.2143 29.5727C19.1786 29.5845 19.1466 29.6057 19.1218 29.634C19.0969 29.6622 19.08 29.6966 19.0729 29.7336L19.0789 29.7291C18.8543 29.7733 18.7046 29.8923 18.6731 30.1311C18.6661 30.1343 18.6588 30.137 18.6514 30.1393C18.5878 30.1199 18.5684 30.1393 18.5923 30.203L18.5841 30.2194C18.4695 30.1865 18.4808 30.2658 18.48 30.334L18.486 30.3272C18.3101 30.3923 18.2615 30.5391 18.2532 30.7052L18.2584 30.6992C17.8018 31.1349 17.7958 31.7285 17.7345 32.2884C17.6963 32.588 17.7517 32.8921 17.8932 33.159L17.8842 33.1485C17.8632 33.4082 17.9134 33.6448 18.1087 33.8341L18.1028 33.8267C18.1103 34.0752 18.1776 34.293 18.4082 34.4307L18.4022 34.424C18.3968 34.4499 18.3967 34.4766 18.402 34.5026C18.4072 34.5285 18.4177 34.5531 18.4328 34.5749C18.4478 34.5967 18.4671 34.6151 18.4895 34.6292C18.5119 34.6433 18.537 34.6527 18.5631 34.6568C18.6578 34.7271 18.7304 34.8229 18.7727 34.933L18.8536 35.0311L18.8468 35.0236L18.9284 35.1052L18.9239 35.0977C18.9239 35.1658 18.9239 35.2414 19.0287 35.213L19.0347 35.2227C19.01 35.3297 19.0856 35.3237 19.153 35.3267L19.1455 35.3222C19.1732 35.3492 19.2009 35.3761 19.2278 35.4038L19.2211 35.3963L19.3087 35.4749L19.2997 35.4637C19.3027 35.4895 19.3112 35.5144 19.3244 35.5367C19.3376 35.5591 19.3554 35.5784 19.3765 35.5935C19.3977 35.6086 19.4217 35.6191 19.4472 35.6243C19.4726 35.6295 19.4989 35.6294 19.5242 35.6239L19.5175 35.6194C19.5225 35.6449 19.5327 35.6691 19.5473 35.6906C19.5619 35.7121 19.5808 35.7303 19.6027 35.7443C19.6246 35.7583 19.6491 35.7677 19.6747 35.772C19.7004 35.7763 19.7266 35.7753 19.7518 35.7691L19.7428 35.7624C19.7638 35.847 19.8282 35.8522 19.8985 35.8462L19.8918 35.8402C19.9876 36.0326 20.15 36.088 20.3514 36.0648L20.3431 36.0566C20.3708 36.1898 20.4756 36.2063 20.5864 36.2325C20.8544 36.2961 21.1201 36.3725 21.3866 36.4436H22.4293L22.5042 36.3612L22.4982 36.3665C22.8852 36.3867 23.2467 36.3111 23.5462 36.0536L23.5372 36.0626C23.6053 36.0693 23.6719 36.073 23.7011 35.9877L23.6951 35.9922C23.7595 35.9922 23.8254 35.9922 23.8508 35.9173L23.8456 35.9211C23.9788 35.9278 24.1046 35.9211 24.145 35.7594L24.1375 35.7661C24.1627 35.7718 24.1888 35.7725 24.2142 35.768C24.2396 35.7636 24.2639 35.7541 24.2856 35.7402C24.3074 35.7263 24.3261 35.7081 24.3408 35.6869C24.3555 35.6656 24.3657 35.6417 24.3711 35.6164L24.3651 35.6217C24.3904 35.6264 24.4165 35.6259 24.4417 35.6203C24.4669 35.6147 24.4907 35.604 24.5116 35.589C24.5326 35.574 24.5503 35.5549 24.5637 35.5328C24.5771 35.5108 24.5859 35.4863 24.5896 35.4607L24.5814 35.472L24.6667 35.3904L24.6593 35.3956C24.7274 35.3956 24.8037 35.4016 24.7768 35.2916L24.791 35.2953C24.8516 35.3073 24.8756 35.2841 24.8591 35.2204V35.2025C24.9826 35.2339 25.0268 35.1875 24.9939 35.0655L25.0088 35.0565C25.2132 35.0348 25.3135 34.9128 25.3344 34.7159L25.3292 34.7219C25.4722 34.6695 25.5642 34.5797 25.5582 34.4158L25.5523 34.4232C25.5782 34.4191 25.603 34.4095 25.6251 34.3952C25.6471 34.381 25.666 34.3622 25.6804 34.3403C25.6949 34.3183 25.7046 34.2936 25.7089 34.2676C25.7133 34.2417 25.7122 34.2152 25.7057 34.1897L25.6997 34.1972C25.9557 34.0101 26.0583 33.7481 26.074 33.4404L26.0665 33.4486C26.3876 32.9928 26.4565 32.4928 26.3203 31.959C26.3203 31.9089 26.3203 31.8587 26.3203 31.8093C26.4237 31.544 26.4205 31.2489 26.3113 30.9859C26.2521 30.5877 26.1825 30.1932 25.9206 29.8631L25.928 29.8714C25.9228 29.6213 25.8479 29.4058 25.6234 29.2658L25.6294 29.2725C25.6249 29.1655 25.6413 29.048 25.4797 29.0435C25.4546 29.036 25.4335 29.0191 25.4207 28.9963C25.4078 28.9736 25.4043 28.9468 25.4108 28.9215L25.3502 28.8421L25.3539 28.8496C25.3539 28.6834 25.2648 28.5943 25.1151 28.5502L25.1263 28.5592C25.1001 28.5292 25.0739 28.5 25.0515 28.4701L25.059 28.4776L24.9796 28.3945L24.9856 28.4005L24.904 28.3196L24.9108 28.3256L24.8292 28.2448L24.8337 28.2515C24.8397 28.143 24.788 28.0913 24.6795 28.0973L24.687 28.1018L24.5971 28.0195L24.5372 27.9648C24.4878 27.8151 24.398 27.72 24.2296 27.726L24.2363 27.7313C24.2318 27.7055 24.2221 27.6808 24.2077 27.6589C24.1934 27.637 24.1747 27.6182 24.1528 27.6038C24.1309 27.5894 24.1064 27.5795 24.0806 27.575C24.0548 27.5704 24.0283 27.5711 24.0028 27.5771L24.0095 27.5831C23.9983 27.5142 23.9481 27.503 23.8905 27.5045C23.6824 27.3323 23.4249 27.2537 23.1854 27.1422C23.0057 26.9288 22.7624 26.8989 22.5064 26.9056L22.5139 26.9116C22.3642 26.6871 22.1314 26.7657 21.9263 26.7417C21.3275 26.6062 20.7286 26.6496 20.1298 26.7185C19.8835 26.7469 19.6103 26.7425 19.4015 26.9266C18.3967 27.2341 17.5047 27.8309 16.837 28.6423C16.6124 28.9125 16.4021 29.1939 16.185 29.4694C16.0735 29.5323 16.0795 29.6378 16.0862 29.7441V29.7389C16.0114 29.7666 16.0114 29.8332 16.0114 29.8953L16.0158 29.8901C15.9702 29.929 15.9021 29.9604 15.8841 30.0098C15.6595 30.6259 15.4349 31.2412 15.4888 31.9149L15.4933 31.9074C15.292 32.4149 15.4125 32.9299 15.5173 33.4239C15.6011 33.8192 15.5502 34.2698 15.8781 34.5939L15.8691 34.5857C15.8571 34.7391 15.8205 34.9031 16.0248 34.9682L16.0166 34.9607C16.0113 35.0288 16.0113 35.0939 16.0914 35.1216L16.0854 35.1149C16.0854 35.18 16.0854 35.2466 16.1663 35.2713L16.1611 35.2639C16.1611 35.332 16.161 35.3971 16.2464 35.4181L16.2396 35.4091C16.2299 35.4459 16.232 35.485 16.2459 35.5205C16.2598 35.556 16.2846 35.5862 16.3167 35.6067Z" fill="#FEAA39"/>
<path d="M18.0227 37.7424C18.2151 37.7356 18.3543 37.9213 18.5542 37.8883C18.5789 37.9452 18.6043 37.9445 18.629 37.8883C18.6462 37.8708 18.6599 37.8503 18.6695 37.8277C19.4876 38.2379 20.3305 38.5673 21.356 38.5927C20.6471 38.8802 18.8948 38.3973 18.0227 37.7424Z" fill="#FEAA39"/>
<path d="M20.1859 36.5513C20.6096 36.5393 20.9988 36.7174 21.4105 36.7811C22.1433 36.8933 22.8245 36.7272 23.5132 36.543C23.6307 36.5116 23.7423 36.4442 23.8718 36.4727C22.6546 37.0411 21.426 37.0673 20.1859 36.5513Z" fill="#FEAA39"/>
<path d="M19.2213 29.5871C20.0784 28.9845 21.0133 28.9411 21.9909 29.2039C22.0905 29.2301 22.1825 29.2608 22.2155 29.3723C21.2132 28.998 20.246 29.0916 19.3096 29.5924L19.2213 29.5871Z" fill="#FEAA39"/>
<path d="M24.2428 32.8169C24.1844 32.5923 24.3027 32.3797 24.3124 32.1574C24.3364 31.5915 24.2772 31.0458 23.9995 30.5406C23.9472 30.4553 23.927 30.3542 23.9426 30.2554C24.4382 31.0593 24.6118 31.9052 24.2428 32.8169Z" fill="#FEAA39"/>
<path d="M17.9017 33.1731C17.7602 32.9062 17.7047 32.6021 17.743 32.3025C17.8036 31.7426 17.8096 31.149 18.2669 30.7134C17.8702 31.4919 17.8036 32.3205 17.9017 33.1731Z" fill="#FEAA39"/>
<path d="M17.6457 30.8452C17.5858 31.4201 17.3695 31.968 17.4211 32.5669C17.4466 32.8738 17.5611 33.1762 17.496 33.4898C17.2317 32.5923 17.2527 31.7075 17.6457 30.8452Z" fill="#FEAA39"/>
<path d="M15.881 34.5928C15.5532 34.2687 15.604 33.818 15.5202 33.4228C15.4154 32.9288 15.2956 32.4138 15.4963 31.9062C15.4087 32.8322 15.6812 33.708 15.881 34.5928Z" fill="#FEAA39"/>
<path d="M15.6267 29.6475C15.6648 29.7792 15.5967 29.887 15.5518 30.0015C15.3589 30.4828 15.2388 30.9901 15.1955 31.5068C15.1835 31.6318 15.1918 31.7576 15.0563 31.8257C15.1132 31.0652 15.2464 30.3241 15.6267 29.6475Z" fill="#FEAA39"/>
<path d="M23.5446 30.5713C23.9712 31.0286 24.0386 31.5886 23.9787 32.1732C23.9675 32.284 23.9735 32.4262 23.8657 32.5168C23.8612 32.4801 23.8567 32.4419 23.8515 32.4067C23.8979 31.769 23.8732 31.1417 23.5446 30.5713Z" fill="#FEAA39"/>
<path d="M19.4015 26.9252C19.6103 26.741 19.8835 26.7455 20.1298 26.7171C20.7287 26.6482 21.3275 26.6048 21.9263 26.7403C21.9221 26.7635 21.9194 26.787 21.9181 26.8106C21.2151 26.6972 20.4972 26.7145 19.8005 26.8615C19.6672 26.8885 19.534 26.9035 19.4015 26.9252Z" fill="#FEAA39"/>
<path d="M26.6358 33.3407C26.6028 32.932 26.7638 32.548 26.7855 32.1431C26.8049 31.7112 26.7016 31.2905 26.7106 30.8623H26.7578C26.894 31.6939 26.9479 32.5256 26.6358 33.3407Z" fill="#FEAA39"/>
<path d="M15.4931 31.9135C15.4369 31.2398 15.6667 30.6245 15.8883 30.0084C15.9062 29.959 15.9744 29.9276 16.02 29.8887C15.7708 30.5436 15.6383 31.2308 15.4931 31.9135Z" fill="#FEAA39"/>
<path d="M20.2763 26.3047L18.3944 26.8145C18.9775 26.4814 19.6175 26.3309 20.274 26.2344C20.274 26.2598 20.2748 26.283 20.2763 26.3047Z" fill="#FEAA39"/>
<path d="M19.8897 31.5938C19.8074 32.0766 19.6577 32.5511 19.8216 33.0512C19.8867 33.2503 20.0462 33.4127 20.0462 33.635C19.8176 33.3501 19.6803 33.0028 19.6524 32.6386C19.6245 32.2743 19.7072 31.9102 19.8897 31.5938Z" fill="#FEAA39"/>
<path d="M15.0505 32.8774C15.0842 32.8909 15.1471 32.9021 15.1478 32.9186C15.1927 33.4957 15.4241 34.0362 15.4809 34.6103C15.177 34.0721 15.1711 33.4606 15.0505 32.8774Z" fill="#FEAA39"/>
<path d="M26.339 31.981C26.4752 32.5147 26.4063 33.0147 26.0852 33.4706C26.1967 32.9788 26.3622 32.496 26.339 31.981Z" fill="#FEAA39"/>
<path d="M20.7268 31.4118C20.7485 31.3698 20.7598 31.3152 20.7935 31.289C20.8908 31.2142 21.0083 31.1333 20.9162 30.9978C20.8317 30.8758 20.7186 30.9926 20.6168 31.0098C20.515 31.027 20.4319 31.0555 20.3398 31.0794C20.3825 31.0382 20.4184 30.9761 20.4693 30.9596C20.6699 30.8953 20.923 30.7156 21.0629 30.9724C21.2291 31.2725 20.8997 31.307 20.7268 31.4118Z" fill="#FEAA39"/>
<path d="M21.3972 36.4617C21.1307 36.3906 20.865 36.312 20.597 36.2506C20.4863 36.2244 20.3815 36.2079 20.3538 36.0747L21.5477 36.3913C21.5186 36.3888 21.4894 36.3939 21.463 36.4063C21.4366 36.4186 21.4139 36.4378 21.3972 36.4617Z" fill="#FEAA39"/>
<path d="M20.8589 34.3066C21.3535 34.4234 21.8615 34.4737 22.3695 34.4563C22.1211 34.5376 21.8585 34.5662 21.5984 34.5404C21.3383 34.5146 21.0865 34.435 20.8589 34.3066Z" fill="#FEAA39"/>
<path d="M20.276 26.3047C20.276 26.2815 20.276 26.2583 20.276 26.2343C20.8 26.2246 21.3337 26.125 21.8539 26.2935L20.276 26.3047Z" fill="#FEAA39"/>
<path d="M22.219 34.0104C21.7931 34.1099 21.374 34.1743 21.0251 33.812C21.4024 34.0021 21.8126 33.9954 22.219 34.0104Z" fill="#FEAA39"/>
<path d="M25.9419 29.8901C26.2039 30.2172 26.2735 30.6117 26.3326 31.013H26.2653L25.9419 29.8901Z" fill="#FEAA39"/>
<path d="M17.4856 33.4849C17.7102 33.8382 17.8187 34.2386 17.9512 34.6294C17.708 34.2899 17.5484 33.8977 17.4856 33.4849Z" fill="#FEAA39"/>
<path d="M22.3794 28.9081C22.0216 28.837 21.6496 28.822 21.324 28.6289C21.6945 28.6521 22.0575 28.7 22.3794 28.9081Z" fill="#FEAA39"/>
<path d="M20.439 33.3215C20.1141 33.0416 20.0198 32.5475 20.2144 32.1313C20.1403 32.5565 20.2474 32.9473 20.439 33.3215Z" fill="#FEAA39"/>
<path d="M23.555 36.0737C23.2504 36.3312 22.8918 36.4068 22.5071 36.3866L23.555 36.0737Z" fill="#FEAA39"/>
<path d="M22.7306 29.6685C23.0555 29.7965 23.295 30.009 23.4006 30.3526L22.7306 29.6685Z" fill="#FEAA39"/>
<path d="M20.5799 28.6873C20.3 28.742 20.029 28.8513 19.7356 28.8296C20.0028 28.7001 20.2678 28.5556 20.5799 28.6873Z" fill="#FEAA39"/>
<path d="M21.3977 36.4616C21.4143 36.4377 21.4369 36.4187 21.4631 36.4063C21.4894 36.394 21.5185 36.3888 21.5474 36.3912L22.4404 36.4024C22.4416 36.4229 22.4416 36.4434 22.4404 36.4638L21.3977 36.4616Z" fill="#FEAA39"/>
<path d="M26.2654 31.0093H26.3327C26.442 31.2723 26.4452 31.5673 26.3417 31.8327L26.2654 31.0093Z" fill="#FEAA39"/>
<path d="M26.0935 33.4624C26.0755 33.7686 25.973 34.032 25.7192 34.2192C25.8435 33.9672 25.9683 33.7149 26.0935 33.4624Z" fill="#FEAA39"/>
<path d="M26.6426 30.5585C26.4832 30.3401 26.401 30.0749 26.4091 29.8047C26.5501 30.0318 26.6305 30.2914 26.6426 30.5585Z" fill="#FEAA39"/>
<path d="M18.5549 37.8883C18.4052 37.7071 18.1274 37.6742 18.0309 37.4316L18.6671 37.8269C18.6576 37.8494 18.6439 37.87 18.6267 37.8875H18.5519L18.5549 37.8883Z" fill="#FEAA39"/>
<path d="M26.4086 33.9591C26.4153 33.7225 26.4527 33.498 26.6451 33.3311C26.6175 33.5563 26.5364 33.7716 26.4086 33.9591Z" fill="#FEAA39"/>
<path d="M25.6619 35.1309C25.6841 35.0219 25.728 34.9184 25.791 34.8267C25.854 34.7351 25.9348 34.657 26.0286 34.5972C25.9837 34.8277 25.828 34.9827 25.6619 35.1309Z" fill="#FEAA39"/>
<path d="M22.6051 26.4373C22.3419 26.4696 22.0753 26.4171 21.8439 26.2876C22.1074 26.2876 22.3678 26.3048 22.6051 26.4373Z" fill="#FEAA39"/>
<path d="M22.5071 26.9037C22.7631 26.8969 23.0063 26.9269 23.186 27.1402L22.5071 26.9037Z" fill="#FEAA39"/>
<path d="M19.5865 36.249C19.8174 36.2808 20.0305 36.3904 20.1906 36.5597C19.9663 36.5087 19.7585 36.4018 19.5865 36.249Z" fill="#FEAA39"/>
<path d="M18.4156 34.4449C18.1911 34.3072 18.1162 34.0893 18.1102 33.8408L18.4156 34.4449Z" fill="#FEAA39"/>
<path d="M18.1157 33.8488C17.9203 33.6594 17.8702 33.4228 17.8911 33.1631C17.9956 33.3809 18.0711 33.6114 18.1157 33.8488Z" fill="#FEAA39"/>
<path d="M25.6455 29.293C25.8701 29.4329 25.9449 29.6485 25.9502 29.8985C25.8222 29.7111 25.7197 29.5075 25.6455 29.293Z" fill="#FEAA39"/>
<path d="M18.6809 30.1456C18.7123 29.9068 18.862 29.7878 19.0866 29.7437L18.6809 30.1456Z" fill="#FEAA39"/>
<path d="M21.9176 26.8106C21.9189 26.787 21.9216 26.7635 21.9259 26.7402C22.131 26.7642 22.366 26.6871 22.5134 26.9102L21.9176 26.8106Z" fill="#FEAA39"/>
<path d="M26.2594 29.439C26.0625 29.3162 25.9974 29.1186 25.96 28.9067C26.1006 29.0579 26.2032 29.2403 26.2594 29.439Z" fill="#FEAA39"/>
<path d="M19.142 35.9497C19.237 35.9599 19.3281 35.9931 19.4074 36.0464C19.4867 36.0998 19.5518 36.1717 19.5971 36.2559C19.4192 36.1996 19.2612 36.0933 19.142 35.9497Z" fill="#FEAA39"/>
<path d="M15.4697 34.6021C15.5511 34.6636 15.615 34.7452 15.6553 34.8389C15.6956 34.9326 15.7108 35.0351 15.6995 35.1365C15.5817 34.9791 15.5029 34.7959 15.4697 34.6021Z" fill="#FEAA39"/>
<path d="M17.8781 30.3745C17.8624 30.5669 17.8032 30.7376 17.6378 30.8536C17.6735 30.6752 17.7565 30.5098 17.8781 30.3745Z" fill="#FEAA39"/>
<path d="M20.363 36.083C20.1617 36.1047 19.9993 36.0493 19.9034 35.8584L20.363 36.083Z" fill="#FEAA39"/>
<path d="M23.5542 33.0918C23.5325 33.2872 23.4457 33.4189 23.2301 33.4271C23.3401 33.3149 23.4487 33.2033 23.5542 33.0918Z" fill="#FEAA39"/>
<path d="M23.783 32.6465C23.789 32.8396 23.7531 33.0118 23.551 33.0956L23.783 32.6465Z" fill="#FEAA39"/>
<path d="M15.8543 29.2021C15.8319 29.3833 15.7855 29.5517 15.6171 29.6565C15.6544 29.4867 15.7363 29.3298 15.8543 29.2021Z" fill="#FEAA39"/>
<path d="M25.3505 34.7378C25.3296 34.9347 25.2293 35.0567 25.0249 35.0784L25.3505 34.7378Z" fill="#FEAA39"/>
<path d="M24.0219 33.266C24.0223 33.177 24.0433 33.0893 24.0831 33.0097C24.123 32.9302 24.1807 32.8608 24.2516 32.8071C24.2315 32.9824 24.1501 33.1449 24.0219 33.266Z" fill="#FEAA39"/>
<path d="M18.1022 26.959C18.0356 27.1319 17.8881 27.1746 17.7279 27.1925C17.8264 27.0789 17.9568 26.9975 18.1022 26.959Z" fill="#FEAA39"/>
<path d="M26.4157 29.8108C26.2189 29.7449 26.2578 29.581 26.2578 29.4365C26.347 29.5425 26.402 29.673 26.4157 29.8108Z" fill="#FEAA39"/>
<path d="M18.2601 30.7213C18.2721 30.5551 18.317 30.4084 18.493 30.3433C18.4482 30.4868 18.3681 30.6167 18.2601 30.7213Z" fill="#FEAA39"/>
<path d="M16.0806 28.8311C16.0657 28.9965 16.023 29.1447 15.8463 29.2098C15.8829 29.0622 15.9649 28.9297 16.0806 28.8311Z" fill="#FEAA39"/>
<path d="M16.0272 34.967C15.8228 34.9019 15.8595 34.7379 15.8715 34.5845C15.955 34.6967 16.0086 34.8283 16.0272 34.967Z" fill="#FEAA39"/>
<path d="M19.2247 29.0547C19.1708 29.1887 19.0833 29.2635 18.9291 29.2194C19.0109 29.1387 19.1131 29.0818 19.2247 29.0547Z" fill="#FEAA39"/>
<path d="M17.7285 27.188C17.6716 27.3257 17.5862 27.4238 17.42 27.4126C17.4935 27.304 17.6026 27.2246 17.7285 27.188Z" fill="#FEAA39"/>
<path d="M25.5749 34.4375C25.5809 34.6014 25.4888 34.6913 25.3458 34.7437C25.3896 34.6208 25.4694 34.5141 25.5749 34.4375Z" fill="#FEAA39"/>
<path d="M17.4271 27.4082C17.4117 27.4756 17.3735 27.5356 17.319 27.5781C17.2644 27.6205 17.1968 27.6427 17.1277 27.641C17.1992 27.5326 17.3044 27.4508 17.4271 27.4082Z" fill="#FEAA39"/>
<path d="M25.115 28.5503C25.2647 28.5945 25.3568 28.6835 25.3538 28.8497C25.2451 28.7771 25.1616 28.6724 25.115 28.5503Z" fill="#FEAA39"/>
<path d="M24.229 27.7268C24.3974 27.7208 24.4872 27.8174 24.5366 27.9656C24.4229 27.8967 24.2964 27.8473 24.229 27.7268Z" fill="#FEAA39"/>
<path d="M26.7573 30.8612H26.7102C26.5859 30.7819 26.6353 30.6591 26.6353 30.5498C26.7394 30.6284 26.7184 30.7564 26.7573 30.8612Z" fill="#FEAA39"/>
<path d="M16.4897 28.2866C16.5211 28.4446 16.4103 28.4917 16.295 28.5359C16.3082 28.483 16.3324 28.4335 16.3659 28.3906C16.3994 28.3477 16.4416 28.3122 16.4897 28.2866Z" fill="#FEAA39"/>
<path d="M23.7972 30.0334C23.7441 30.0164 23.6953 29.988 23.6542 29.9503C23.6131 29.9125 23.5807 29.8663 23.5592 29.8148L23.6393 29.811C23.7186 29.862 23.7752 29.9417 23.7972 30.0334Z" fill="#FEAA39"/>
<path d="M16.0869 29.743C16.0801 29.6367 16.0741 29.5311 16.1856 29.4683C16.194 29.5187 16.1893 29.5704 16.172 29.6185C16.1547 29.6666 16.1254 29.7094 16.0869 29.743Z" fill="#FEAA39"/>
<path d="M20.2416 33.8962C20.4018 33.8603 20.4444 33.9786 20.4946 34.0871C20.4406 34.0767 20.3898 34.0541 20.346 34.021C20.3021 33.9879 20.2664 33.9452 20.2416 33.8962Z" fill="#FEAA39"/>
<path d="M22.21 29.3676C22.344 29.3594 22.4712 29.3639 22.5094 29.5308L22.21 29.3676Z" fill="#FEAA39"/>
<path d="M24.1576 35.7803C24.1157 35.9427 23.9899 35.9487 23.8582 35.942C23.9408 35.8611 24.0446 35.805 24.1576 35.7803Z" fill="#FEAA39"/>
<path d="M25.4998 29.0742C25.6637 29.0742 25.6495 29.1962 25.6495 29.3033C25.5581 29.2501 25.5334 29.1566 25.4998 29.0742Z" fill="#FEAA39"/>
<path d="M25.8154 28.688C25.7047 28.6408 25.5909 28.5929 25.6245 28.438C25.7331 28.4874 25.7735 28.5884 25.8154 28.688Z" fill="#FEAA39"/>
<path d="M18.8962 35.7571C19.0504 35.7317 19.0991 35.8424 19.1485 35.9525C19.0955 35.9386 19.0458 35.9142 19.0024 35.8806C18.9591 35.847 18.9229 35.805 18.8962 35.7571Z" fill="#FEAA39"/>
<path d="M24.6026 35.4795C24.5989 35.505 24.5901 35.5295 24.5767 35.5516C24.5633 35.5736 24.5456 35.5927 24.5246 35.6078C24.5036 35.6228 24.4798 35.6334 24.4547 35.639C24.4295 35.6447 24.4034 35.6451 24.3781 35.6404C24.4296 35.5601 24.51 35.5025 24.6026 35.4795Z" fill="#FEAA39"/>
<path d="M23.8645 33.5041C23.8585 33.3821 23.8937 33.2878 24.027 33.2578C24.0175 33.3076 23.9983 33.355 23.9704 33.3972C23.9425 33.4395 23.9066 33.4758 23.8645 33.5041Z" fill="#FEAA39"/>
<path d="M20.4847 34.0815C20.5102 34.0761 20.5364 34.0757 20.562 34.0805C20.5875 34.0853 20.6119 34.0951 20.6336 34.1094C20.6554 34.1236 20.674 34.1421 20.6886 34.1637C20.7031 34.1852 20.7132 34.2095 20.7183 34.235C20.6696 34.2312 20.6226 34.2151 20.5818 34.1883C20.5409 34.1614 20.5076 34.1247 20.4847 34.0815Z" fill="#FEAA39"/>
<path d="M25.7252 34.2114C25.7317 34.2369 25.7328 34.2634 25.7284 34.2894C25.7241 34.3153 25.7144 34.34 25.6999 34.362C25.6855 34.384 25.6666 34.4027 25.6446 34.417C25.6225 34.4313 25.5977 34.4408 25.5718 34.445C25.5926 34.351 25.6472 34.2678 25.7252 34.2114Z" fill="#FEAA39"/>
<path d="M18.4435 35.3148C18.6067 35.2796 18.6172 35.3896 18.6239 35.5042C18.564 35.4405 18.5034 35.3777 18.4435 35.3148Z" fill="#FEAA39"/>
<path d="M16.3168 35.6068C16.2847 35.5859 16.2602 35.5554 16.2467 35.5195C16.2333 35.4837 16.2316 35.4445 16.2419 35.4077C16.2605 35.4151 16.2774 35.4263 16.2915 35.4406C16.3055 35.4549 16.3164 35.472 16.3234 35.4907C16.3305 35.5095 16.3335 35.5295 16.3324 35.5495C16.3313 35.5695 16.3259 35.589 16.3168 35.6068Z" fill="#FEAA39"/>
<path d="M19.5344 35.6382C19.509 35.6437 19.4827 35.6439 19.4573 35.6386C19.4319 35.6334 19.4078 35.6229 19.3866 35.6078C19.3655 35.5927 19.3478 35.5734 19.3345 35.551C19.3213 35.5287 19.3129 35.5038 19.3098 35.478C19.3566 35.4868 19.401 35.5057 19.4397 35.5334C19.4785 35.561 19.5108 35.5968 19.5344 35.6382Z" fill="#FEAA39"/>
<path d="M19.7635 35.7859C19.7382 35.7921 19.712 35.7931 19.6863 35.7888C19.6607 35.7845 19.6362 35.7751 19.6143 35.7611C19.5924 35.7471 19.5736 35.7289 19.559 35.7074C19.5443 35.6859 19.5342 35.6617 19.5292 35.6362C19.5764 35.6439 19.6215 35.6612 19.6617 35.6869C19.702 35.7126 19.7367 35.7463 19.7635 35.7859Z" fill="#FEAA39"/>
<path d="M24.3839 35.6353C24.3786 35.6605 24.3683 35.6845 24.3537 35.7057C24.339 35.727 24.3203 35.7451 24.2985 35.759C24.2768 35.773 24.2525 35.7824 24.2271 35.7869C24.2016 35.7913 24.1756 35.7907 24.1504 35.785C24.2069 35.7077 24.2902 35.6543 24.3839 35.6353Z" fill="#FEAA39"/>
<path d="M24.5435 36.1108C24.5667 35.9701 24.6662 35.9409 24.7882 35.9446C24.7604 35.9872 24.7245 36.0237 24.6825 36.0522C24.6405 36.0808 24.5932 36.1007 24.5435 36.1108Z" fill="#FEAA39"/>
<path d="M24.3142 36.2552C24.3185 36.2291 24.3282 36.2042 24.3428 36.1821C24.3574 36.16 24.3765 36.1413 24.3988 36.1272C24.4212 36.113 24.4463 36.1038 24.4725 36.1C24.4987 36.0963 24.5253 36.0981 24.5508 36.1055C24.5248 36.1463 24.4901 36.1809 24.4492 36.2068C24.4083 36.2327 24.3622 36.2492 24.3142 36.2552Z" fill="#FEAA39"/>
<path d="M16.4604 36.3867C16.6416 36.3298 16.5847 36.478 16.6102 36.5574L16.4604 36.3867Z" fill="#FEAA39"/>
<path d="M17.1237 37.0693C17.2105 37.0821 17.3407 37.0461 17.2816 37.2153L17.1237 37.0693Z" fill="#FEAA39"/>
<path d="M18.0381 37.4346C18.0116 37.4394 17.9845 37.4387 17.9583 37.4324C17.9321 37.4261 17.9075 37.4145 17.8861 37.3983C17.8646 37.382 17.8467 37.3615 17.8336 37.338C17.8205 37.3145 17.8124 37.2885 17.8098 37.2617C17.8944 37.3081 17.9902 37.3396 18.0381 37.4346Z" fill="#FEAA39"/>
<path d="M17.7966 37.5934C17.8219 37.5882 17.8479 37.588 17.8732 37.5929C17.8985 37.5978 17.9225 37.6077 17.944 37.622C17.9654 37.6362 17.9838 37.6546 17.9981 37.6761C18.0124 37.6975 18.0223 37.7216 18.0272 37.7469C17.98 37.7393 17.935 37.7217 17.8952 37.6952C17.8554 37.6688 17.8218 37.634 17.7966 37.5934Z" fill="#FEAA39"/>
<path d="M18.5725 34.6713C18.5464 34.6672 18.5213 34.6578 18.4989 34.6437C18.4765 34.6296 18.4572 34.6111 18.4421 34.5894C18.4271 34.5676 18.4166 34.543 18.4114 34.5171C18.4061 34.4911 18.4062 34.4644 18.4116 34.4385C18.5036 34.4894 18.5328 34.5837 18.5725 34.6713Z" fill="#FEAA39"/>
<path d="M24.0031 27.5772C24.0285 27.5716 24.0547 27.5713 24.0802 27.5762C24.1058 27.5811 24.1301 27.5911 24.1516 27.6057C24.1732 27.6203 24.1916 27.639 24.2056 27.6609C24.2197 27.6827 24.2292 27.7072 24.2336 27.7328C24.1868 27.7233 24.1424 27.7047 24.1028 27.678C24.0633 27.6512 24.0294 27.617 24.0031 27.5772Z" fill="#FEAA39"/>
<path d="M16.2328 28.6089C16.2375 28.6343 16.2372 28.6603 16.2319 28.6856C16.2266 28.7108 16.2163 28.7348 16.2017 28.756C16.1871 28.7773 16.1684 28.7955 16.1468 28.8096C16.1252 28.8236 16.1009 28.8333 16.0756 28.8379C16.0835 28.7906 16.1017 28.7456 16.1289 28.7061C16.156 28.6665 16.1915 28.6333 16.2328 28.6089Z" fill="#FEAA39"/>
<path d="M25.9663 28.9127C25.9407 28.9083 25.9162 28.8988 25.8944 28.8847C25.8726 28.8706 25.8538 28.8522 25.8393 28.8307C25.8249 28.8091 25.8149 28.7848 25.8101 28.7593C25.8053 28.7337 25.8057 28.7075 25.8114 28.6821C25.8534 28.7057 25.8894 28.7389 25.9163 28.7789C25.9432 28.819 25.9603 28.8648 25.9663 28.9127Z" fill="#FEAA39"/>
<path d="M23.0488 29.2846C22.9976 29.2945 22.9445 29.2836 22.9013 29.2545C22.8581 29.2253 22.8282 29.1801 22.8182 29.1289C22.8664 29.1343 22.9125 29.1512 22.9527 29.1784C22.9928 29.2055 23.0258 29.2419 23.0488 29.2846Z" fill="#FEAA39"/>
<path d="M23.3733 29.5368C23.2633 29.5967 23.2304 29.5106 23.1892 29.4402C23.1892 29.417 23.1892 29.3938 23.1892 29.3706C23.2297 29.3842 23.2669 29.4059 23.2986 29.4345C23.3302 29.4631 23.3557 29.4979 23.3733 29.5368Z" fill="#FEAA39"/>
<path d="M22.5013 29.5236C22.5267 29.5168 22.5532 29.5153 22.5792 29.5192C22.6052 29.5232 22.63 29.5325 22.6522 29.5466C22.6744 29.5607 22.6934 29.5792 22.708 29.601C22.7226 29.6229 22.7325 29.6475 22.7371 29.6733C22.6427 29.6545 22.5586 29.6011 22.5013 29.5236Z" fill="#FEAA39"/>
<path d="M19.2221 29.5869L19.3104 29.5922L19.0806 29.7479C19.0877 29.7109 19.1046 29.6765 19.1295 29.6482C19.1543 29.6199 19.1863 29.5987 19.2221 29.5869Z" fill="#FEAA39"/>
<path d="M23.9471 30.2576C23.9216 30.2532 23.8973 30.2436 23.8757 30.2295C23.854 30.2154 23.8353 30.1971 23.8209 30.1756C23.8065 30.1542 23.7966 30.13 23.7918 30.1046C23.787 30.0792 23.7874 30.0531 23.7929 30.0278C23.8336 30.0528 23.8684 30.0863 23.895 30.126C23.9216 30.1656 23.9393 30.2105 23.9471 30.2576Z" fill="#FEAA39"/>
<path d="M23.3938 30.3467C23.5233 30.3714 23.5697 30.4522 23.5518 30.578C23.4736 30.5218 23.4176 30.4399 23.3938 30.3467Z" fill="#FEAA39"/>
<path d="M20.2063 32.1431C20.2025 32.0473 20.1786 31.9425 20.3133 31.9126C20.2647 31.9822 20.2968 32.0907 20.2063 32.1431Z" fill="#FEAA39"/>
<path d="M20.0369 33.6294C20.1215 33.6571 20.1971 33.6915 20.1521 33.8046C20.1201 33.7869 20.0929 33.7618 20.0728 33.7313C20.0527 33.7007 20.0404 33.6658 20.0369 33.6294Z" fill="#FEAA39"/>
<path d="M23.8544 32.4028C23.8596 32.4395 23.8641 32.4777 23.8686 32.5129C23.8634 32.5742 23.8521 32.6326 23.7803 32.6521C23.7975 32.5675 23.7526 32.4635 23.8544 32.4028Z" fill="#FEAA39"/>
<path d="M25.0106 35.0874C25.0435 35.2094 24.9994 35.2558 24.8759 35.2244L25.0106 35.0874Z" fill="#FEAA39"/>
<path d="M24.6769 28.1011C24.7854 28.0951 24.8371 28.1467 24.8311 28.2553L24.6769 28.1011Z" fill="#FEAA39"/>
<path d="M23.1877 29.3738C23.1877 29.397 23.1877 29.4202 23.1877 29.4434C23.1504 29.4338 23.1168 29.4135 23.0908 29.3851C23.0649 29.3566 23.0478 29.3212 23.0417 29.2832L23.1877 29.3738Z" fill="#FEAA39"/>
<path d="M19.7456 28.8203C19.7089 28.9468 19.6041 28.9049 19.521 28.9124C19.5726 28.8278 19.6625 28.8405 19.7456 28.8203Z" fill="#FEAA39"/>
<path d="M22.8122 26.4707C22.7246 26.5358 22.6453 26.5605 22.5996 26.4258L22.8122 26.4707Z" fill="#FEAA39"/>
<path d="M19.9704 31.4502C19.9704 31.5191 19.9704 31.5857 19.8813 31.5999C19.8933 31.5445 19.8986 31.4764 19.9704 31.4502Z" fill="#FEAA39"/>
<path d="M20.714 34.2288C20.7829 34.225 20.8465 34.2325 20.8697 34.3134C20.8091 34.3006 20.7394 34.3051 20.714 34.2288Z" fill="#FEAA39"/>
<path d="M16.6061 28.1602C16.6061 28.2283 16.6099 28.3031 16.5013 28.2784C16.5365 28.238 16.5709 28.1991 16.6061 28.1602Z" fill="#FEAA39"/>
<path d="M19.5262 28.9082C19.4978 28.9905 19.4319 28.9898 19.363 28.9831C19.3937 28.9045 19.4641 28.9157 19.5262 28.9082Z" fill="#FEAA39"/>
<path d="M19.9092 35.8626C19.8389 35.8686 19.7745 35.8626 19.7535 35.7788C19.8112 35.7908 19.886 35.787 19.9092 35.8626Z" fill="#FEAA39"/>
<path d="M23.8624 35.9385C23.8369 36.0171 23.771 36.0133 23.7067 36.0133C23.7389 35.949 23.8002 35.9437 23.8624 35.9385Z" fill="#FEAA39"/>
<path d="M16.0142 29.8977C16.0142 29.8355 16.0142 29.7689 16.089 29.7412C16.0918 29.7716 16.0863 29.8022 16.0732 29.8298C16.06 29.8573 16.0396 29.8808 16.0142 29.8977Z" fill="#FEAA39"/>
<path d="M23.7134 36.0112C23.6842 36.0936 23.6176 36.0898 23.5494 36.0861C23.5824 36.0105 23.652 36.0195 23.7134 36.0112Z" fill="#FEAA39"/>
<path d="M24.1667 36.3353C24.1855 36.2478 24.2513 36.2448 24.321 36.2478C24.294 36.3211 24.2281 36.3241 24.1667 36.3353Z" fill="#FEAA39"/>
<path d="M25.6132 28.4358C25.5009 28.4358 25.5129 28.361 25.5121 28.2861C25.5402 28.3006 25.5641 28.322 25.5817 28.3481C25.5994 28.3743 25.6102 28.4044 25.6132 28.4358Z" fill="#FEAA39"/>
<path d="M15.7644 35.2798C15.8602 35.2963 15.861 35.3636 15.849 35.4377C15.7794 35.4078 15.7801 35.3397 15.7644 35.2798Z" fill="#FEAA39"/>
<path d="M16.0958 35.1204C16.0142 35.0927 16.0142 35.0276 16.021 34.9595C16.0943 34.9879 16.0854 35.0628 16.0958 35.1204Z" fill="#FEAA39"/>
<path d="M20.5322 33.4423C20.4237 33.4557 20.4289 33.3839 20.4334 33.312C20.4601 33.3227 20.4835 33.3405 20.5009 33.3634C20.5183 33.3864 20.5291 33.4136 20.5322 33.4423Z" fill="#FEAA39"/>
<path d="M24.0161 36.4101C24.0393 36.3232 24.1037 36.3188 24.1755 36.3292C24.1471 36.4041 24.0782 36.3959 24.0161 36.4101Z" fill="#FEAA39"/>
<path d="M15.6948 35.1284C15.7906 35.1464 15.7884 35.2152 15.7764 35.2886C15.7038 35.2572 15.7061 35.1883 15.6948 35.1284Z" fill="#FEAA39"/>
<path d="M16.1712 35.2702C16.0911 35.2455 16.0963 35.1789 16.0903 35.1138C16.1584 35.1445 16.1607 35.2126 16.1712 35.2702Z" fill="#FEAA39"/>
<path d="M19.0363 35.2276C18.9285 35.256 18.9345 35.1804 18.9315 35.1123L19.0363 35.2276Z" fill="#FEAA39"/>
<path d="M23.8639 36.4789C23.8886 36.3943 23.956 36.3958 24.0248 36.4041C23.9949 36.4752 23.9283 36.4684 23.8639 36.4789Z" fill="#FEAA39"/>
<path d="M23.8884 27.5024C23.9461 27.5024 23.9962 27.5122 24.0074 27.581C23.9588 27.5691 23.9019 27.5698 23.8884 27.5024Z" fill="#FEAA39"/>
<path d="M18.2518 26.8843C18.2286 26.9681 18.1627 26.9696 18.0939 26.9659C18.1216 26.891 18.1904 26.8955 18.2518 26.8843Z" fill="#FEAA39"/>
<path d="M16.2511 35.4169C16.168 35.3959 16.165 35.3308 16.1657 35.2627C16.2383 35.2874 16.2391 35.3563 16.2511 35.4169Z" fill="#FEAA39"/>
<path d="M19.161 35.3414C19.0937 35.3414 19.0181 35.3414 19.0428 35.2373L19.161 35.3414Z" fill="#FEAA39"/>
<path d="M18.4002 26.8086C18.3792 26.8947 18.3119 26.8932 18.2438 26.8909C18.2722 26.8176 18.3396 26.8198 18.4002 26.8086Z" fill="#FEAA39"/>
<path d="M24.7919 35.3105C24.8189 35.4206 24.7426 35.4123 24.6744 35.4146L24.7919 35.3105Z" fill="#FEAA39"/>
<path d="M15.8398 35.4287C15.9304 35.4429 15.9372 35.5081 15.9304 35.5784C15.8548 35.5575 15.8548 35.4886 15.8398 35.4287Z" fill="#FEAA39"/>
<path d="M23.2134 33.4399C23.2531 33.553 23.173 33.5425 23.1049 33.5455L23.2134 33.4399Z" fill="#FEAA39"/>
<path d="M22.8251 29.1359C22.7555 29.1359 22.6904 29.1359 22.6709 29.0483C22.7315 29.0566 22.7982 29.0633 22.8251 29.1359Z" fill="#FEAA39"/>
<path d="M20.7314 33.6211C20.6626 33.6211 20.59 33.6211 20.6034 33.5186C20.6326 33.5208 20.6605 33.5317 20.6833 33.55C20.7061 33.5683 20.7229 33.5931 20.7314 33.6211Z" fill="#FEAA39"/>
<path d="M22.6806 29.055C22.6057 29.0648 22.5414 29.064 22.5234 28.9712C22.5818 28.9847 22.6566 28.9794 22.6806 29.055Z" fill="#FEAA39"/>
<path d="M18.4872 30.3466C18.4872 30.2785 18.4767 30.1969 18.5912 30.2321C18.5568 30.2718 18.5216 30.3107 18.4872 30.3466Z" fill="#FEAA39"/>
<path d="M19.3722 28.9741C19.3528 29.0602 19.2861 29.0617 19.218 29.061C19.2435 28.9868 19.3116 28.9861 19.3722 28.9741Z" fill="#FEAA39"/>
<path d="M15.9241 35.5723C16.0064 35.5932 16.0057 35.6606 16.0079 35.7257C15.942 35.695 15.9331 35.6336 15.9241 35.5723Z" fill="#FEAA39"/>
<path d="M22.532 28.979C22.4572 28.9902 22.3943 28.9873 22.3704 28.8989C22.4317 28.9109 22.5013 28.9049 22.532 28.979Z" fill="#FEAA39"/>
<path d="M18.7694 35.6489C18.8398 35.6489 18.9109 35.6489 18.8974 35.7537L18.7694 35.6489Z" fill="#FEAA39"/>
<path d="M23.6402 29.8111L23.5601 29.8148C23.5167 29.7841 23.5032 29.7489 23.5459 29.707L23.6402 29.8111Z" fill="#FEAA39"/>
<path d="M23.4408 29.6305C23.3817 29.644 23.3577 29.6201 23.366 29.5602C23.3758 29.5583 23.3859 29.5588 23.3955 29.5616C23.4051 29.5645 23.414 29.5695 23.4213 29.5763C23.4285 29.5832 23.4341 29.5917 23.4375 29.6011C23.4409 29.6105 23.442 29.6206 23.4408 29.6305Z" fill="#FEAA39"/>
<path d="M25.051 28.4702C25.0765 28.5002 25.1027 28.5293 25.1259 28.5593C25.0989 28.5293 25.0727 28.5002 25.051 28.4702Z" fill="#FEAA39"/>
<path d="M18.4026 35.2715L18.4542 35.2461L18.422 35.2992L18.4026 35.2715Z" fill="#FEAA39"/>
<path d="M25.5096 35.3035C25.5373 35.2691 25.5643 35.2339 25.592 35.1987L25.5096 35.3035Z" fill="#FEAA39"/>
<path d="M24.8733 35.2421C24.8898 35.3028 24.8659 35.326 24.8053 35.317C24.8032 35.3073 24.8034 35.2973 24.8059 35.2877C24.8085 35.2782 24.8134 35.2693 24.82 35.262C24.8267 35.2547 24.835 35.2491 24.8443 35.2456C24.8535 35.2422 24.8635 35.241 24.8733 35.2421Z" fill="#FEAA39"/>
<path d="M19.2365 35.418C19.2096 35.3903 19.1819 35.3634 19.1542 35.3364C19.1819 35.3619 19.2133 35.3903 19.2365 35.418Z" fill="#FEAA39"/>
<path d="M23.5143 29.7082C23.4552 29.7186 23.432 29.6939 23.4395 29.6333C23.4919 29.6348 23.5173 29.6573 23.5143 29.7082Z" fill="#FEAA39"/>
<path d="M16.0035 35.7212C16.0507 35.7287 16.0784 35.7444 16.0335 35.7916C16.0237 35.7683 16.014 35.7444 16.0035 35.7212Z" fill="#FEAA39"/>
<path d="M20.5977 33.529C20.5416 33.5335 20.5154 33.508 20.5229 33.4541C20.5783 33.4459 20.6045 33.4714 20.5977 33.529Z" fill="#FEAA39"/>
<path d="M22.4392 36.4637C22.4403 36.4432 22.4403 36.4228 22.4392 36.4023C22.4623 36.3935 22.4861 36.3865 22.5103 36.3813L22.4392 36.4637Z" fill="#FEAA39"/>
<path d="M18.5991 30.2175C18.5752 30.1561 18.5946 30.1344 18.6583 30.1539C18.6388 30.1756 18.6186 30.1973 18.5991 30.2175Z" fill="#FEAA39"/>
<path d="M20.1699 33.808C20.2298 33.7953 20.2538 33.8192 20.2448 33.8828C20.2347 33.8839 20.2245 33.8827 20.215 33.8793C20.2054 33.8759 20.1967 33.8704 20.1895 33.8633C20.1823 33.8561 20.1769 33.8474 20.1735 33.8378C20.1701 33.8283 20.1689 33.8181 20.1699 33.808Z" fill="#FEAA39"/>
<path d="M18.5524 37.8867H18.6272C18.6025 37.9429 18.5771 37.9436 18.5524 37.8867Z" fill="#FEAA39"/>
</svg>
