<svg width="31" height="31" viewBox="0 0 31 31" fill="none" xmlns="http://www.w3.org/2000/svg">
<g clip-path="url(#clip0_610_13836)">
<path d="M19.5233 7.88617C17.7143 7.87963 15.9618 7.11899 14.7154 5.79918L14.1445 5.19482C12.8542 5.21149 11.8045 6.26905 11.7983 7.56649C11.7978 7.6622 11.7563 7.75316 11.6845 7.81636C11.6126 7.87957 11.3939 7.90732 11.2988 7.89566L11.3602 8.97822L11.6545 9.95662C12.1747 12.0473 14.0243 13.5075 16.1526 13.5075C18.2808 13.5075 20.1305 12.0474 20.6508 9.95662L21.1749 7.8922L19.5233 7.88617Z" fill="#FEAA39"/>
<path d="M12.796 2.13709C12.4158 2.45017 11.7155 3.30581 11.324 4.33831C10.9915 5.2151 10.9083 6.18748 11.0754 7.23312C11.1 7.2301 11.1247 7.22754 11.1493 7.22555C11.3123 5.81658 12.4395 4.696 13.8473 4.54344C13.9124 3.81421 14.5258 3.24042 15.2713 3.24042C15.4561 3.24042 15.606 3.3903 15.606 3.57523C15.606 3.76017 15.4561 3.91004 15.2713 3.91004C14.871 3.91004 14.5427 4.22094 14.5131 4.61389C14.5192 4.61946 14.5261 4.62401 14.5318 4.63004L15.2019 5.33953C16.3232 6.52658 17.8992 7.21087 19.5258 7.21671L21.1842 7.22267C21.3988 6.24158 21.3512 5.28901 21.0437 4.4528C20.3594 2.59183 18.5141 1.43709 17.1418 1.01369C16.0805 0.686257 15.1363 0.712795 14.616 1.08446C14.616 1.08446 13.7308 1.45632 13.5969 2.25991C13.5969 2.25978 13.1536 1.78094 12.796 2.13709ZM14.4175 16.5075C15.1345 16.8466 15.6767 17.4379 16.2865 17.9274C16.8231 17.4662 17.28 16.9056 17.9137 16.5676V13.8737C16.7938 14.2741 15.5396 14.2773 14.4176 13.8831V16.5075H14.4175Z" fill="#FEAA39"/>
<path d="M17.285 21.3277C17.732 20.3375 18.9387 19.8908 19.922 20.3558L21.9333 21.3071C22.1937 20.4006 22.1444 19.5658 21.7852 18.7649C21.3175 17.7223 20.1154 16.7344 18.8094 16.9572C17.8313 17.1242 17.2297 18.0585 16.4957 18.6199C16.4106 18.6846 16.2981 18.7314 16.192 18.6734C15.7792 18.4479 15.1862 17.8244 14.7141 17.4758C14.3607 17.2148 13.9807 16.9924 13.5361 16.9317C12.2527 16.7566 11.0033 17.726 10.5373 18.765C10.1712 19.5814 10.142 20.4363 10.4504 21.369L11.9508 20.6203C12.9289 20.1321 14.1519 20.5713 14.6008 21.5656C15.0257 22.5066 14.6444 23.6212 13.7328 24.1032L12.6581 24.6714C13.7828 25.8496 15.0535 26.8668 16.2922 27.9192C17.4864 26.8984 18.6978 25.8934 19.7663 24.7373L18.1611 23.8885C17.241 23.4021 16.8563 22.2773 17.285 21.3277Z" fill="#FEAA39"/>
<path d="M20.3774 25.0601C19.1982 26.3617 17.8364 27.4679 16.5112 28.6133C16.3653 28.7218 16.2195 28.7218 16.0736 28.6133C14.7065 27.4317 13.2817 26.3191 12.044 24.9957L9.66788 26.252L9.66763 30.7854H22.6631L22.6629 26.2685L20.3774 25.0601ZM27.1583 24.062L24.1809 17.2608C23.7489 16.2742 22.863 15.5112 21.8878 15.0865C20.83 14.6259 19.7203 14.295 18.5829 14.1011V16.3199C20.179 15.9729 21.7565 17.0651 22.3958 18.4906C22.8307 19.46 22.8795 20.5034 22.5442 21.5959L24.0375 22.2795C24.2174 22.3619 24.3263 22.5796 24.2367 22.7665C24.1588 22.9288 23.9547 23.0038 23.7913 22.9265L19.636 20.961C19.0983 20.7065 18.4208 20.8592 18.0567 21.3338C17.5441 22.0018 17.7758 22.9272 18.4737 23.2962L24.5415 26.5044C26.0867 27.3215 27.8627 25.671 27.1583 24.062ZM13.8242 21.5661C13.4603 21.1 12.7762 20.9566 12.2494 21.2193L8.38859 23.1458C8.21814 23.2306 8.00096 23.1466 7.92891 22.9709C7.84679 22.7707 7.97352 22.546 8.15884 22.4593L9.84705 21.6697C9.45686 20.5486 9.4825 19.4804 9.92654 18.4906C10.4854 17.2444 11.9713 16.0416 13.6265 16.2679C13.6678 16.2736 13.7078 16.2811 13.748 16.2886V14.1013C12.4009 14.3309 11.0937 14.7524 9.86628 15.353C8.92513 15.9068 8.12756 16.5021 7.67083 17.5454L4.72057 24.2846C4.01654 25.8924 5.79121 27.5443 7.3373 26.7269L13.4201 23.5109C14.1116 23.1452 14.3391 22.2257 13.8242 21.5661Z" fill="#FEAA39"/>
<path d="M11.2989 9.7037C11.7979 9.7037 12.2024 9.29898 12.2024 8.79973C12.2024 8.30048 11.7979 7.89575 11.2989 7.89575C10.7998 7.89575 10.3953 8.30048 10.3953 8.79973C10.3953 9.29898 10.7998 9.7037 11.2989 9.7037Z" fill="#FEAA39"/>
<path d="M20.9812 9.7037C21.4803 9.7037 21.8848 9.29898 21.8848 8.79973C21.8848 8.30048 21.4803 7.89575 20.9812 7.89575C20.4822 7.89575 20.0776 8.30048 20.0776 8.79973C20.0776 9.29898 20.4822 9.7037 20.9812 9.7037Z" fill="#FEAA39"/>
<path d="M6.92945 10.353C6.65579 9.73194 5.98733 9.2304 5.28881 9.35174C4.75586 9.44437 4.48124 9.9027 4.07913 10.2158C3.65323 9.90008 3.29554 9.4145 2.74637 9.33809C2.05592 9.24206 1.37009 9.73956 1.09989 10.3529C0.266561 12.2441 2.89272 14.1794 4.07913 15.2232C5.27098 14.1747 7.76284 12.2444 6.92945 10.353ZM30.7722 10.353C30.4985 9.73194 29.8301 9.2304 29.1316 9.35174C28.5986 9.44437 28.324 9.9027 27.9219 10.2158C27.496 9.90008 27.1383 9.4145 26.5891 9.33809C25.8987 9.24206 25.2128 9.73956 24.9427 10.3529C24.1093 12.2441 26.7355 14.1794 27.9219 15.2232C29.1138 14.1747 31.6057 12.2444 30.7722 10.353Z" fill="#FEAA39"/>
</g>
<defs>
<clipPath id="clip0_610_13836">
<rect width="30" height="30" fill="white" transform="translate(0.939453 0.785645)"/>
</clipPath>
</defs>
</svg>
