<svg width="22" height="23" viewBox="0 0 22 23" fill="none" xmlns="http://www.w3.org/2000/svg">
<path opacity="0.4" d="M19.2961 10.7519V16.2427C19.2961 18.7727 17.2428 20.826 14.7128 20.826H6.70113C6.4903 20.826 6.27947 20.8077 6.0778 20.7802C6.41697 20.6336 6.71947 20.4319 6.99447 20.1844C7.03114 20.1569 7.05862 20.1294 7.08612 20.0927C7.33362 19.8819 7.54445 19.616 7.71862 19.3227C8.05779 18.7727 8.2503 18.1219 8.2503 17.4344C8.2503 16.4719 7.87446 15.6011 7.26946 14.9411C7.17779 14.8402 7.07694 14.7393 6.96694 14.6568C6.32528 14.0977 5.5003 13.7677 4.58363 13.7677C3.9328 13.7677 3.31861 13.9419 2.78695 14.2444C2.61278 14.336 2.4478 14.446 2.29197 14.5744C2.2278 14.6202 2.1728 14.6752 2.1178 14.7302V10.8161C2.81446 11.5677 3.80447 11.9985 4.87697 11.9985C6.03197 11.9985 7.14112 11.421 7.83779 10.4952C8.46112 11.421 9.52446 11.9985 10.707 11.9985C11.8803 11.9985 12.9253 11.4485 13.5578 10.5318C14.2636 11.4393 15.3545 11.9985 16.4911 11.9985C17.6003 11.9985 18.6086 11.5494 19.2961 10.7519Z" fill="#0D0D0D"/>
<path d="M13.4475 1.45725H7.94752L7.26919 8.2039C7.21419 8.82724 7.30584 9.41392 7.53501 9.94559C8.06667 11.1923 9.31336 11.9989 10.7067 11.9989C12.1184 11.9989 13.3376 11.2106 13.8876 9.95477C14.0526 9.5606 14.1534 9.10226 14.1625 8.63477V8.4606L13.4475 1.45725Z" fill="#0D0D0D"/>
<path opacity="0.6" d="M20.203 7.89258L19.9464 5.34422C19.5614 2.57589 18.3055 1.44839 15.6197 1.44839H12.0997L12.7781 8.32339C12.7872 8.41505 12.7964 8.51591 12.7964 8.69008C12.8514 9.16674 12.998 9.60674 13.218 10.0009C13.878 11.2109 15.1614 11.9901 16.4997 11.9901C17.7189 11.9901 18.8189 11.4492 19.5064 10.4959C20.0472 9.77172 20.2947 8.84591 20.203 7.89258Z" fill="#0D0D0D"/>
<path opacity="0.6" d="M5.74779 1.45725C3.05279 1.45725 1.80608 2.58472 1.41192 5.38055L1.16445 7.90139C1.07279 8.88222 1.33863 9.83559 1.91613 10.5781C2.61279 11.4856 3.68528 11.9989 4.87694 11.9989C6.21528 11.9989 7.49862 11.2197 8.14945 10.0281C8.38778 9.61556 8.5436 9.13888 8.58943 8.64388L9.30446 1.46643H5.74779V1.45725Z" fill="#0D0D0D"/>
<path d="M7.26875 14.9414C7.17709 14.8406 7.07624 14.7397 6.96624 14.6572C6.32457 14.098 5.49959 13.7681 4.58293 13.7681C3.93209 13.7681 3.31791 13.9423 2.78624 14.2448C2.61207 14.3364 2.44709 14.4464 2.29126 14.5747C1.44793 15.2439 0.91626 16.2797 0.91626 17.4347C0.91626 18.1222 1.10878 18.7731 1.44794 19.3231C1.53044 19.4697 1.63128 19.6072 1.74128 19.7356C1.75962 19.7631 1.78707 19.7814 1.8054 19.8089C2.4654 20.5973 3.46459 21.1014 4.58293 21.1014C5.50876 21.1014 6.3521 20.7622 6.99376 20.1847C7.03043 20.1572 7.05791 20.1298 7.08541 20.0931C7.33291 19.8823 7.54374 19.6164 7.71791 19.3231C8.05708 18.7731 8.24959 18.1222 8.24959 17.4347C8.24959 16.4722 7.87375 15.6014 7.26875 14.9414ZM5.95793 18.1039H5.27043V18.8189C5.27043 19.1947 4.95876 19.5064 4.58293 19.5064C4.20709 19.5064 3.89543 19.1947 3.89543 18.8189V18.1039H3.20793C2.83209 18.1039 2.52043 17.7922 2.52043 17.4164C2.52043 17.0405 2.83209 16.7289 3.20793 16.7289H3.89543V16.0781C3.89543 15.7023 4.20709 15.3906 4.58293 15.3906C4.95876 15.3906 5.27043 15.7023 5.27043 16.0781V16.7289H5.95793C6.33376 16.7289 6.64543 17.0405 6.64543 17.4164C6.64543 17.7922 6.33376 18.1039 5.95793 18.1039Z" fill="#0D0D0D"/>
</svg>
