<svg width="25" height="24" viewBox="0 0 25 24" fill="none" xmlns="http://www.w3.org/2000/svg">
<path d="M17.7392 3.56V2C17.7392 1.59 17.3992 1.25 16.9892 1.25C16.5792 1.25 16.2392 1.59 16.2392 2V3.5H9.73924V2C9.73924 1.59 9.39924 1.25 8.98924 1.25C8.57924 1.25 8.23924 1.59 8.23924 2V3.56C5.53924 3.81 4.22924 5.42 4.02924 7.81C4.00924 8.1 4.24924 8.34 4.52924 8.34H21.4492C21.7392 8.34 21.9792 8.09 21.9492 7.81C21.7492 5.42 20.4392 3.81 17.7392 3.56Z" fill="#F5A439"/>
<path opacity="0.4" d="M20.9893 9.84009C21.5393 9.84009 21.9893 10.2901 21.9893 10.8401V17.0001C21.9893 20.0001 20.4893 22.0001 16.9893 22.0001H8.98926C5.48926 22.0001 3.98926 20.0001 3.98926 17.0001V10.8401C3.98926 10.2901 4.43926 9.84009 4.98926 9.84009H20.9893Z" fill="#F5A439"/>
<path d="M9.48926 14.9999C9.22926 14.9999 8.96926 14.8899 8.77926 14.7099C8.59926 14.5199 8.48926 14.2599 8.48926 13.9999C8.48926 13.7399 8.59926 13.4799 8.77926 13.2899C9.05926 13.0099 9.49926 12.9199 9.86926 13.0799C9.99926 13.1299 10.1093 13.1999 10.1993 13.2899C10.3793 13.4799 10.4893 13.7399 10.4893 13.9999C10.4893 14.2599 10.3793 14.5199 10.1993 14.7099C10.0093 14.8899 9.74926 14.9999 9.48926 14.9999Z" fill="#F5A439"/>
<path d="M12.9893 14.9999C12.7293 14.9999 12.4693 14.8899 12.2793 14.7099C12.0993 14.5199 11.9893 14.2599 11.9893 13.9999C11.9893 13.7399 12.0993 13.4799 12.2793 13.2899C12.3693 13.1999 12.4793 13.1299 12.6093 13.0799C12.9793 12.9199 13.4193 13.0099 13.6993 13.2899C13.8793 13.4799 13.9893 13.7399 13.9893 13.9999C13.9893 14.2599 13.8793 14.5199 13.6993 14.7099C13.6493 14.7499 13.5993 14.7899 13.5493 14.8299C13.4893 14.8699 13.4293 14.8999 13.3693 14.9199C13.3093 14.9499 13.2493 14.9699 13.1893 14.9799C13.1193 14.9899 13.0593 14.9999 12.9893 14.9999Z" fill="#F5A439"/>
<path d="M16.4893 15C16.2293 15 15.9693 14.89 15.7793 14.71C15.5993 14.52 15.4893 14.26 15.4893 14C15.4893 13.74 15.5993 13.48 15.7793 13.29C15.8793 13.2 15.9793 13.13 16.1093 13.08C16.2893 13 16.4893 12.98 16.6893 13.02C16.7493 13.03 16.8093 13.05 16.8693 13.08C16.9293 13.1 16.9893 13.13 17.0493 13.17C17.0993 13.21 17.1493 13.25 17.1993 13.29C17.3793 13.48 17.4893 13.74 17.4893 14C17.4893 14.26 17.3793 14.52 17.1993 14.71C17.1493 14.75 17.0993 14.79 17.0493 14.83C16.9893 14.87 16.9293 14.9 16.8693 14.92C16.8093 14.95 16.7493 14.97 16.6893 14.98C16.6193 14.99 16.5493 15 16.4893 15Z" fill="#F5A439"/>
<path d="M9.48926 18.5C9.35926 18.5 9.22926 18.47 9.10926 18.42C8.97926 18.37 8.87926 18.3 8.77926 18.21C8.59926 18.02 8.48926 17.76 8.48926 17.5C8.48926 17.24 8.59926 16.98 8.77926 16.79C8.87926 16.7 8.97926 16.63 9.10926 16.58C9.28926 16.5 9.48926 16.48 9.68926 16.52C9.74926 16.53 9.80926 16.55 9.86926 16.58C9.92926 16.6 9.98926 16.63 10.0493 16.67C10.0993 16.71 10.1493 16.75 10.1993 16.79C10.3793 16.98 10.4893 17.24 10.4893 17.5C10.4893 17.76 10.3793 18.02 10.1993 18.21C10.1493 18.25 10.0993 18.3 10.0493 18.33C9.98926 18.37 9.92926 18.4 9.86926 18.42C9.80926 18.45 9.74926 18.47 9.68926 18.48C9.61926 18.49 9.55926 18.5 9.48926 18.5Z" fill="#F5A439"/>
<path d="M12.9893 18.4999C12.7293 18.4999 12.4693 18.3899 12.2793 18.2099C12.0993 18.0199 11.9893 17.7599 11.9893 17.4999C11.9893 17.2399 12.0993 16.98 12.2793 16.79C12.6493 16.42 13.3293 16.42 13.6993 16.79C13.8793 16.98 13.9893 17.2399 13.9893 17.4999C13.9893 17.7599 13.8793 18.0199 13.6993 18.2099C13.5093 18.3899 13.2493 18.4999 12.9893 18.4999Z" fill="#F5A439"/>
<path d="M16.4893 18.4999C16.2293 18.4999 15.9693 18.3899 15.7793 18.2099C15.5993 18.0199 15.4893 17.7599 15.4893 17.4999C15.4893 17.2399 15.5993 16.98 15.7793 16.79C16.1493 16.42 16.8293 16.42 17.1993 16.79C17.3793 16.98 17.4893 17.2399 17.4893 17.4999C17.4893 17.7599 17.3793 18.0199 17.1993 18.2099C17.0093 18.3899 16.7493 18.4999 16.4893 18.4999Z" fill="#F5A439"/>
</svg>
