<svg width="25" height="25" viewBox="0 0 25 25" fill="none" xmlns="http://www.w3.org/2000/svg">
<path fill-rule="evenodd" clip-rule="evenodd" d="M19.6 19.1971C20.19 18.2971 20.41 17.8371 20.86 16.8271C17.54 15.5671 17.01 10.8371 20.29 9.02711C19.29 7.76711 17.88 7.03711 16.55 7.03711C15.59 7.03711 14.93 7.28711 14.34 7.51711C13.84 7.70711 13.39 7.87711 12.83 7.87711C12.23 7.87711 11.7 7.68711 11.14 7.48711C10.54 7.26711 9.89995 7.03711 9.09995 7.03711C7.60995 7.03711 6.01996 7.94711 5.00996 9.50711C3.58996 11.7071 3.83995 15.8271 6.12995 19.3471C6.94995 20.6071 8.04996 22.0171 9.47996 22.0371C10.08 22.0471 10.47 21.8671 10.9 21.6771C11.39 21.4571 11.92 21.2171 12.85 21.2171C13.78 21.2071 14.3 21.4571 14.79 21.6771C15.21 21.8671 15.59 22.0471 16.18 22.0371C17.62 22.0171 18.78 20.4571 19.6 19.1971Z" fill="white"/>
<path opacity="0.4" fill-rule="evenodd" clip-rule="evenodd" d="M16.3399 2.03711C16.4999 3.13711 16.0499 4.22711 15.4599 4.98711C14.8299 5.80711 13.7299 6.44711 12.6699 6.40711C12.4799 5.34711 12.9699 4.25711 13.5699 3.52711C14.2399 2.72711 15.3699 2.10711 16.3399 2.03711Z" fill="white"/>
</svg>
