<svg width="24" height="25" viewBox="0 0 24 25" fill="none" xmlns="http://www.w3.org/2000/svg">
<rect opacity="0.4" x="2" y="2.01807" width="20" height="20" rx="4" fill="#0D0D0D"/>
<path d="M13.9393 6.84345C13.8718 6.59149 13.7102 6.38087 13.4843 6.25048C13.018 5.98126 12.4196 6.14153 12.1503 6.60794L12 6.86825L11.8497 6.6079C11.5804 6.14161 10.982 5.98126 10.5157 6.25044C10.0494 6.5197 9.88902 7.11809 10.1582 7.58446L10.8723 8.82134L8.23742 13.3852H6.31641C5.77793 13.3852 5.33984 13.8233 5.33984 14.3618C5.33984 14.9002 5.77793 15.3383 6.31641 15.3383H13.7328L12.6052 13.3852H10.4927L13.8417 7.5845C13.9721 7.3586 14.0068 7.0954 13.9393 6.84345Z" fill="#0D0D0D"/>
<path d="M17.6837 13.3853H15.7627L13.5788 9.6027L12.4512 11.5558L15.842 17.4288C15.9724 17.6547 16.183 17.8163 16.435 17.8839C16.5192 17.9064 16.6045 17.9176 16.6894 17.9176C16.8586 17.9176 17.0256 17.8732 17.1761 17.7863C17.6424 17.517 17.8027 16.9186 17.5335 16.4523L16.8903 15.3384H17.6837C18.2222 15.3384 18.6603 14.9003 18.6603 14.3618C18.6603 13.8234 18.2222 13.3853 17.6837 13.3853ZM6.65888 16.1197L6.46681 16.4523C6.19759 16.9186 6.35794 17.5171 6.82427 17.7863C6.97215 17.8719 7.14003 17.917 7.31091 17.9169C7.64865 17.9169 7.97759 17.7418 8.1583 17.4288L8.91415 16.1197H6.65888Z" fill="#0D0D0D"/>
</svg>
