<svg width="21" height="20" viewBox="0 0 21 20" fill="none" xmlns="http://www.w3.org/2000/svg">
<path d="M4.5625 15.9569V16.7969C5.22687 16.7775 5.77375 16.7575 6.16437 16.7381C6.555 16.7381 6.84812 16.7188 6.985 16.7188C8.02 16.6406 8.89937 16.5819 9.66062 16.6012L11.4187 16.6406C12.9425 16.6406 14.075 16.445 15.0125 16.0156C15.4619 15.8006 15.8525 15.4881 16.2431 15.0588C16.5362 14.7656 16.7512 14.4144 16.8875 14.0238C17.0437 13.4963 17.1219 13.0275 17.1219 12.5981C17.1219 11.0356 16.0475 9.7075 13.9381 9.21938C14.27 9.06313 14.5825 8.90687 14.7975 8.78937C15.0125 8.67188 15.1881 8.59375 15.2856 8.51562C16.0281 7.96875 16.3987 7.32438 16.3987 6.465C16.3987 6.09375 16.34 5.7225 16.2231 5.39062C15.9887 4.70687 15.4612 4.14062 14.7194 3.78875C14.3875 3.59312 14.075 3.49563 13.86 3.45688C13.2737 3.30063 12.7075 3.2225 12.1606 3.2225H11.4769C11.34 3.2225 11.2231 3.2225 11.145 3.20312H10.8325C10.7931 3.20312 10.735 3.20313 10.6762 3.2225H10.2856L6.90687 3.32L4.5825 3.37875L4.62187 4.12125C5.16875 4.19937 5.50062 4.23875 5.6375 4.23875C5.91125 4.23875 6.12562 4.2975 6.24312 4.37562C6.30187 4.37562 6.34062 4.415 6.36062 4.45375C6.4 4.59062 6.43875 4.88375 6.45812 5.43062C6.4975 6.4075 6.4975 7.18875 6.4975 7.77437C6.51687 8.38 6.51687 8.79 6.55625 9.02437V13.4187C6.55625 14.1806 6.53687 14.7469 6.45875 15.1375C6.43937 15.2744 6.38062 15.4113 6.28312 15.5675C6.00937 15.685 5.65812 15.8019 5.18937 15.8606C4.955 15.9 4.74 15.9388 4.56437 15.9581L4.5625 15.9569ZM9.38687 8.92562V7.3825C9.42625 6.30813 9.38687 5.52688 9.3675 4.90188C9.32812 4.62812 9.32812 4.37438 9.32812 4.2375C9.79687 4.14 10.1681 4.10062 10.4806 4.10062C11.4962 4.10062 12.2581 4.31563 12.7656 4.78438C13.2737 5.21438 13.5275 5.76125 13.5275 6.44438C13.5275 8.3 12.4337 9.00312 10.3631 9.00312C10.0112 9.00312 9.67937 8.98375 9.38625 8.925L9.38687 8.92562ZM9.38687 12.7537V9.94125C9.5825 9.90188 9.85562 9.86312 10.2856 9.86312C11.2819 9.84375 12.0437 9.94125 12.5125 10.1369C13.4694 10.4887 14.1337 11.5044 14.1337 12.8519C14.1337 13.4963 13.9969 14.0044 13.7819 14.4537C13.5475 14.9031 13.2156 15.2156 12.7075 15.45C11.6725 15.9381 10.3831 15.8994 9.50437 15.5281C9.44562 15.3719 9.42625 15.2544 9.42625 15.1569L9.38687 12.7537Z" fill="white"/>
</svg>
