<svg width="25" height="25" viewBox="0 0 25 25" fill="none" xmlns="http://www.w3.org/2000/svg">
<path d="M12.4768 1.41082C12.5388 1.41106 12.6007 1.41129 12.6645 1.41153C15.3112 1.42692 17.7329 2.29867 19.719 4.06512C19.7966 4.12929 19.8742 4.19346 19.9541 4.25958C22.0596 6.04497 23.278 8.75548 23.5305 11.4739C23.7321 14.1759 22.9848 17.0105 21.2717 19.1354C21.1298 19.3001 20.9873 19.4642 20.844 19.6276C20.783 19.7033 20.7219 19.7789 20.659 19.8569C19.0159 21.8261 16.4389 23.0973 13.9065 23.3776C13.4452 23.4041 12.9857 23.409 12.5237 23.4069C12.4617 23.4067 12.3998 23.4065 12.3359 23.4062C9.6871 23.3908 7.27031 22.5177 5.28148 20.7526C5.20607 20.6917 5.13066 20.6308 5.05297 20.568C3.14796 18.9805 1.77477 16.3795 1.53148 13.9089C1.52497 13.847 1.51846 13.7851 1.51175 13.7213C1.49039 13.5086 1.4723 13.2958 1.45531 13.0827C1.44916 13.0154 1.44302 12.948 1.43668 12.8786C1.40774 12.4243 1.47075 12.1344 1.71898 11.7526C2.02238 11.5504 2.07859 11.5413 2.42211 11.5768C2.49462 11.5829 2.56713 11.5889 2.64184 11.5951C2.91329 11.6807 2.97683 11.7937 3.12523 12.0339C3.17405 12.2648 3.17405 12.2648 3.19445 12.5239C3.2033 12.6198 3.21215 12.7157 3.22127 12.8145C3.23019 12.9166 3.2391 13.0186 3.24828 13.1237C3.35734 14.1678 3.56234 15.0979 3.96898 16.0651C3.99364 16.1241 4.01829 16.1831 4.04369 16.2439C4.99773 18.4595 6.83537 20.095 9.03148 21.0339C11.4689 21.9794 14.0372 21.8722 16.4255 20.8447C18.5543 19.863 20.2508 18.0445 21.1252 15.8776C22.0537 13.3428 21.9752 10.7368 20.844 8.28387C19.7168 6.05032 17.7713 4.39041 15.4142 3.58133C13.1122 2.83811 10.594 2.99679 8.41877 4.06579C7.23427 4.68115 5.7126 5.6404 5.09398 6.87762C5.18329 6.86759 5.2726 6.85756 5.36461 6.84723C5.4822 6.83599 5.59979 6.82475 5.72094 6.81317C5.83732 6.8012 5.95369 6.78924 6.0736 6.77691C6.43781 6.78453 6.58959 6.84657 6.87523 7.06512C7.0722 7.31581 7.06259 7.44414 7.05102 7.76825C6.95809 8.13995 6.89022 8.23757 6.59398 8.47137C6.28644 8.56558 6.28644 8.56558 5.92418 8.63104C5.82743 8.64897 5.82743 8.64897 5.72873 8.66727C5.59261 8.6922 5.45637 8.71643 5.32 8.73999C5.11294 8.77582 4.90636 8.81382 4.69976 8.85223C3.11063 9.13997 3.11063 9.13997 2.67992 8.87567C2.36428 8.50245 2.31184 8.01626 2.22596 7.54879C2.18196 7.31578 2.13308 7.084 2.0841 6.85199C2.0482 6.67696 2.01244 6.50191 1.9768 6.32684C1.95921 6.24327 1.94161 6.1597 1.92349 6.07361C1.83019 5.59686 1.78826 5.20234 1.90648 4.72137C2.16367 4.42636 2.31663 4.35579 2.70336 4.29364C3.12728 4.36177 3.24854 4.46994 3.50023 4.81512C3.58932 5.06615 3.63861 5.30165 3.68773 5.56512C4.00537 5.31721 4.27279 5.07614 4.52562 4.76239C6.48697 2.48842 9.54198 1.39758 12.4768 1.41082Z" fill="white"/>
<path d="M16.6076 8.97603C17.1588 9.38354 17.5417 9.87668 17.7502 10.5339C17.7903 10.8181 17.7941 11.0986 17.7941 11.3853C17.7952 11.5055 17.7952 11.5055 17.7963 11.628C17.7973 11.7967 17.7976 11.9654 17.7971 12.1341C17.7971 12.3897 17.801 12.645 17.8051 12.9005C17.8119 13.8733 17.7904 14.6678 17.0992 15.4196C16.5189 15.9859 15.9735 16.1709 15.1721 16.194C14.3705 16.1709 13.8254 15.9858 13.2449 15.4197C12.5003 14.6094 12.5205 13.7042 12.5328 12.6625C12.5353 12.4094 12.5328 12.1566 12.5298 11.9035C12.5278 10.9381 12.56 10.1435 13.2449 9.39811C14.1455 8.51995 15.5048 8.33392 16.6076 8.97603ZM14.4455 10.6159C14.0446 11.1028 14.1704 11.8065 14.1701 12.403C14.169 12.5137 14.1678 12.6243 14.1666 12.7383C14.1664 12.8451 14.1663 12.9518 14.1661 13.0618C14.1657 13.1591 14.1653 13.2564 14.1649 13.3566C14.1989 13.7608 14.3003 14.0149 14.5744 14.3132C14.9244 14.5186 15.1973 14.5651 15.5939 14.4714C15.9238 14.2187 16.0855 14.0326 16.1564 13.6276C16.18 13.2276 16.1781 12.8272 16.1799 12.4265C16.1818 12.3174 16.1837 12.2083 16.1857 12.096C16.1884 11.5079 16.1864 11.0426 15.8752 10.5339C15.3643 10.1513 14.9207 10.2199 14.4455 10.6159Z" fill="white"/>
<path d="M10.0625 8.94014C10.3186 9.14959 10.4258 9.32128 10.4699 9.65063C10.481 9.96197 10.4796 10.2711 10.4741 10.5826C10.4736 10.6964 10.4731 10.8102 10.4725 10.9274C10.4704 11.2904 10.4657 11.6533 10.4609 12.0163C10.4591 12.2626 10.4573 12.5089 10.4558 12.7551C10.4517 13.3585 10.4454 13.9618 10.4375 14.5651C10.5248 14.5626 10.5248 14.5626 10.6138 14.56C10.7281 14.558 10.7281 14.558 10.8447 14.556C10.9203 14.5543 10.9959 14.5526 11.0738 14.5508C11.2812 14.5651 11.2812 14.5651 11.5156 14.7116C11.7032 15.0165 11.7437 15.239 11.75 15.5964C11.6238 15.8727 11.5545 16.0223 11.2812 16.1589C10.778 16.1856 10.2747 16.1883 9.77079 16.1917C9.60247 16.1933 9.43416 16.1958 9.26588 16.1994C9.02296 16.2045 8.78019 16.2066 8.53723 16.208C8.42485 16.2112 8.42485 16.2112 8.31021 16.2144C7.91335 16.2129 7.76207 16.1922 7.43652 15.942C7.25 15.6901 7.25 15.6901 7.19727 15.362C7.26211 14.9585 7.29474 14.8128 7.625 14.5651C7.99625 14.5651 8.3675 14.5651 8.75 14.5651C8.71906 13.5442 8.68813 12.5233 8.65625 11.4714C8.62531 11.5023 8.59438 11.5333 8.5625 11.5651C8.16753 11.614 7.82986 11.6275 7.47852 11.4304C7.27273 11.0635 7.23268 10.7546 7.34375 10.3464C7.55048 10.0668 7.80918 9.88635 8.09375 9.69014C8.2375 9.58917 8.2375 9.58917 8.38416 9.48616C9.44164 8.76275 9.44164 8.76275 10.0625 8.94014Z" fill="white"/>
</svg>
