<svg width="31" height="31" viewBox="0 0 31 31" fill="none" xmlns="http://www.w3.org/2000/svg">
<path d="M23.8496 29.8481C23.8496 28.3919 22.6691 27.2114 21.2129 27.2114H10.666C9.20979 27.2114 8.0293 28.3919 8.0293 29.8481V30.7856H23.8496V29.8481ZM29.1816 7.87549V6.11768H18.4143C18.2832 5.75001 18.072 5.41608 17.796 5.14007C17.52 4.86405 17.186 4.65286 16.8184 4.52176V0.785645H15.0605V4.52176C14.6929 4.65286 14.359 4.86405 14.0829 5.14007C13.8069 5.41608 13.5957 5.75001 13.4646 6.11768H2.69727V7.87549H4.89477L0.939453 17.5435C0.939453 19.9665 2.91096 21.938 5.33398 21.938H7.0918C9.51482 21.938 11.4863 19.9665 11.4863 17.5435L7.51314 7.87549H13.4647C13.5958 8.24316 13.807 8.57708 14.083 8.8531C14.359 9.12911 14.6929 9.34031 15.0606 9.47141V22.0343C13.3429 22.3858 11.9841 23.7353 11.6339 25.4536H20.2451C19.8949 23.7353 18.5361 22.3858 16.8184 22.0343V9.47141C17.1861 9.34031 17.52 9.12911 17.796 8.8531C18.072 8.57708 18.2832 8.24316 18.4143 7.87549H24.3479L20.3926 17.5435C20.3926 19.9665 22.3641 21.938 24.7871 21.938H26.5449C28.9679 21.938 30.9395 19.9665 30.9395 17.5435L26.9663 7.87549H29.1816ZM9.28883 16.6646H3.13695L6.21289 9.28139L9.28883 16.6646ZM28.742 16.6646H22.5901L25.666 9.28139L28.742 16.6646Z" fill="#FEAA39"/>
</svg>
