<svg width="71" height="68" viewBox="0 0 71 68" fill="none" xmlns="http://www.w3.org/2000/svg">
<path d="M68.3548 35.2967L59.5351 40.327C59.1388 40.5535 58.8407 40.9188 58.6982 41.3524C58.5557 41.786 58.5792 42.257 58.7638 42.6744L62.9724 51.8798C63.1091 52.1752 63.1645 52.5017 63.1327 52.8257C63.101 53.1496 62.9834 53.4593 62.7919 53.7225C62.6005 53.9858 62.3422 54.1931 62.0437 54.3231C61.7453 54.4531 61.4176 54.501 61.0944 54.462L51.0339 53.305C50.5791 53.2542 50.1217 53.3758 49.7523 53.646C49.3828 53.9161 49.1281 54.315 49.0386 54.7638L47.0265 64.6734C46.9621 64.9895 46.8152 65.283 46.6006 65.5239C46.386 65.7648 46.1115 65.9447 45.8049 66.0451C45.4983 66.1456 45.1706 66.1632 44.8551 66.096C44.5395 66.0288 44.2474 65.8793 44.0083 65.6627L36.5468 58.8215C36.2137 58.5067 35.7727 58.3312 35.3143 58.3312C34.856 58.3312 34.415 58.5067 34.082 58.8215L26.6204 65.6627C26.3796 65.8785 26.0863 66.0272 25.7699 66.0939C25.4536 66.1606 25.1253 66.1429 24.8179 66.0427C24.5104 65.9425 24.2348 65.7633 24.0185 65.5229C23.8022 65.2826 23.6528 64.9896 23.5855 64.6734L21.5901 54.7638C21.4969 54.3136 21.2389 53.9145 20.8667 53.6446C20.4945 53.3748 20.035 53.2537 19.5781 53.305L9.51758 54.462C9.19575 54.4977 8.87015 54.4473 8.5742 54.3159C8.27826 54.1845 8.02259 53.9768 7.83325 53.7141C7.64392 53.4515 7.52773 53.1432 7.49666 52.8209C7.46558 52.4986 7.52065 52.1738 7.65631 51.8798L11.8482 42.6744C12.0381 42.2595 12.0661 41.7886 11.9265 41.3542C11.7869 40.9199 11.4897 40.5534 11.0936 40.327L2.274 35.2967C1.99567 35.1342 1.76475 34.9017 1.60428 34.6222C1.4438 34.3427 1.35938 34.026 1.35938 33.7038C1.35938 33.3815 1.4438 33.0648 1.60428 32.7854C1.76475 32.5059 1.99567 32.2733 2.274 32.1108L11.0936 27.0806C11.4897 26.8541 11.7869 26.4876 11.9265 26.0533C12.0661 25.6189 12.0381 25.148 11.8482 24.7331L7.65631 15.511C7.51907 15.218 7.46286 14.8936 7.49348 14.5715C7.52411 14.2494 7.64049 13.9414 7.83049 13.6795C8.02049 13.4176 8.2772 13.2114 8.5739 13.0823C8.87059 12.9533 9.19646 12.906 9.51758 12.9456L19.5781 14.1025C20.0323 14.1495 20.4877 14.0263 20.8562 13.7568C21.2248 13.4873 21.4803 13.0907 21.5733 12.6437L23.5687 2.71737C23.6337 2.39947 23.7821 2.10461 23.9988 1.86308C24.2155 1.62155 24.4926 1.44205 24.8016 1.34304C25.1106 1.24402 25.4404 1.22905 25.7571 1.29967C26.0738 1.37029 26.3659 1.52394 26.6036 1.74485L34.0652 8.58601C34.3983 8.90085 34.8393 9.07627 35.2977 9.07627C35.756 9.07627 36.1969 8.90085 36.53 8.58601L43.9916 1.74485C44.2296 1.52828 44.5204 1.37836 44.8348 1.31024C45.1492 1.24211 45.4762 1.2582 45.7824 1.35688C46.0886 1.45555 46.3633 1.63333 46.5788 1.87221C46.7943 2.1111 46.943 2.40263 47.0098 2.71737L49.0219 12.6437C49.1114 13.0926 49.366 13.4915 49.7355 13.7616C50.105 14.0317 50.5624 14.1534 51.0172 14.1025L61.0777 12.9456C61.3987 12.9082 61.7238 12.9566 62.02 13.0859C62.3162 13.2151 62.5728 13.4206 62.7637 13.6814C62.9546 13.9422 63.0729 14.2489 63.1066 14.5703C63.1404 14.8917 63.0883 15.2163 62.9557 15.511L58.747 24.7331C58.5624 25.1505 58.539 25.6215 58.6814 26.0551C58.8239 26.4887 59.1221 26.8541 59.5183 27.0806L68.338 32.1108C68.6172 32.2718 68.8494 32.5032 69.0113 32.7818C69.1733 33.0605 69.2593 33.3767 69.261 33.6989C69.2627 34.0212 69.1799 34.3383 69.0209 34.6187C68.8619 34.899 68.6323 35.1328 68.3548 35.2967Z" stroke="#29ABE2" stroke-width="2.29715" stroke-linecap="round" stroke-linejoin="round"/>
</svg>
