<svg width="12" height="13" viewBox="0 0 12 13" fill="none" xmlns="http://www.w3.org/2000/svg">
<g clip-path="url(#clip0_731_1498)">
<path d="M3.64286 0.5C4.07746 0.5 4.42857 0.835156 4.42857 1.25V2H7.57143V1.25C7.57143 0.835156 7.92254 0.5 8.35714 0.5C8.79174 0.5 9.14286 0.835156 9.14286 1.25V2H10.3214C10.9721 2 11.5 2.50391 11.5 3.125V4.25H0.5V3.125C0.5 2.50391 1.0279 2 1.67857 2H2.85714V1.25C2.85714 0.835156 3.20826 0.5 3.64286 0.5ZM0.5 5H11.5V11.375C11.5 11.9961 10.9721 12.5 10.3214 12.5H1.67857C1.0279 12.5 0.5 11.9961 0.5 11.375V5ZM2.07143 6.875V7.625C2.07143 7.83125 2.24821 8 2.46429 8H3.25C3.46607 8 3.64286 7.83125 3.64286 7.625V6.875C3.64286 6.66875 3.46607 6.5 3.25 6.5H2.46429C2.24821 6.5 2.07143 6.66875 2.07143 6.875ZM5.21429 6.875V7.625C5.21429 7.83125 5.39107 8 5.60714 8H6.39286C6.60893 8 6.78571 7.83125 6.78571 7.625V6.875C6.78571 6.66875 6.60893 6.5 6.39286 6.5H5.60714C5.39107 6.5 5.21429 6.66875 5.21429 6.875ZM8.75 6.5C8.53393 6.5 8.35714 6.66875 8.35714 6.875V7.625C8.35714 7.83125 8.53393 8 8.75 8H9.53571C9.75179 8 9.92857 7.83125 9.92857 7.625V6.875C9.92857 6.66875 9.75179 6.5 9.53571 6.5H8.75ZM2.07143 9.875V10.625C2.07143 10.8313 2.24821 11 2.46429 11H3.25C3.46607 11 3.64286 10.8313 3.64286 10.625V9.875C3.64286 9.66875 3.46607 9.5 3.25 9.5H2.46429C2.24821 9.5 2.07143 9.66875 2.07143 9.875ZM5.60714 9.5C5.39107 9.5 5.21429 9.66875 5.21429 9.875V10.625C5.21429 10.8313 5.39107 11 5.60714 11H6.39286C6.60893 11 6.78571 10.8313 6.78571 10.625V9.875C6.78571 9.66875 6.60893 9.5 6.39286 9.5H5.60714ZM8.35714 9.875V10.625C8.35714 10.8313 8.53393 11 8.75 11H9.53571C9.75179 11 9.92857 10.8313 9.92857 10.625V9.875C9.92857 9.66875 9.75179 9.5 9.53571 9.5H8.75C8.53393 9.5 8.35714 9.66875 8.35714 9.875Z" fill="#FEAA39"/>
</g>
<defs>
<clipPath id="clip0_731_1498">
<rect width="11" height="12" fill="white" transform="translate(0.5 0.5)"/>
</clipPath>
</defs>
</svg>
