<svg width="25" height="25" viewBox="0 0 25 25" fill="none" xmlns="http://www.w3.org/2000/svg">
<path opacity="0.4" d="M16.69 2.46484H8.31C4.67 2.46484 2.5 4.63484 2.5 8.27484V16.6448C2.5 20.2948 4.67 22.4648 8.31 22.4648H16.68C20.32 22.4648 22.49 20.2948 22.49 16.6548V8.27484C22.5 4.63484 20.33 2.46484 16.69 2.46484Z" fill="white"/>
<path d="M13.5599 12.4648L15.8599 10.1648C16.1499 9.87484 16.1499 9.39484 15.8599 9.10484C15.5699 8.81484 15.0899 8.81484 14.7999 9.10484L12.4999 11.4048L10.1999 9.10484C9.90986 8.81484 9.42986 8.81484 9.13986 9.10484C8.84986 9.39484 8.84986 9.87484 9.13986 10.1648L11.4399 12.4648L9.13986 14.7648C8.84986 15.0548 8.84986 15.5348 9.13986 15.8248C9.28986 15.9748 9.47986 16.0448 9.66986 16.0448C9.85986 16.0448 10.0499 15.9748 10.1999 15.8248L12.4999 13.5248L14.7999 15.8248C14.9499 15.9748 15.1399 16.0448 15.3299 16.0448C15.5199 16.0448 15.7099 15.9748 15.8599 15.8248C16.1499 15.5348 16.1499 15.0548 15.8599 14.7648L13.5599 12.4648Z" fill="white"/>
</svg>
