<svg width="37" height="37" viewBox="0 0 37 37" fill="none" xmlns="http://www.w3.org/2000/svg">
<g clip-path="url(#clip0_712_491)">
<path d="M17.0765 11.0031C17.069 11.2296 16.967 11.4441 16.793 11.5911C16.352 11.9646 15.6725 11.7606 15.509 11.2071L14.225 7.65956L11.8385 9.42806C11.336 9.78056 10.637 9.54656 10.445 8.96456L8.711 3.13856C8.5715 2.66306 8.75 2.15156 9.1565 1.86806L10.8575 0.675563C11.402 0.294563 12.1595 0.564563 12.3395 1.20356L13.184 4.76456L15.665 3.02606C16.2515 2.61506 17.0585 3.02306 17.0765 3.73856V11.0031ZM20.0765 11.0031C20.084 11.2296 20.186 11.4441 20.36 11.5911C20.801 11.9646 21.4805 11.7606 21.644 11.2071L22.928 7.65956L25.3145 9.42806C25.817 9.78056 26.516 9.54656 26.708 8.96456L28.442 3.13856C28.5815 2.66306 28.403 2.15156 27.9965 1.86806L26.294 0.675563C25.7495 0.294563 24.992 0.564563 24.812 1.20356L23.9675 4.76456L21.4865 3.02606C20.9 2.61506 20.093 3.02306 20.075 3.73856L20.0765 11.0031ZM28.886 35.5746C29.1185 35.0136 28.9895 34.3686 28.5605 33.9396C26.1815 31.5606 23.0795 30.5001 18.5 30.5001C13.9205 30.5001 10.817 31.5606 8.4395 33.9396C8.0105 34.3686 7.8815 35.0136 8.114 35.5746C8.3465 36.1356 8.894 36.5001 9.5 36.5001H27.5C28.106 36.5001 28.655 36.1356 28.886 35.5746ZM25.25 20.7501C25.25 17.0286 22.2215 14.0001 18.5 14.0001C14.7785 14.0001 11.75 17.0286 11.75 20.7501C11.75 24.4716 14.7785 27.5001 18.5 27.5001C22.2215 27.5001 25.25 24.4716 25.25 20.7501ZM8.3465 30.1596C9.5375 29.3511 10.865 28.7376 12.3455 28.3041C10.154 26.5146 8.75 23.7936 8.75 20.7501C8.75 17.4396 10.412 14.5146 12.941 12.7506C12.866 12.6081 12.7775 12.4746 12.7205 12.3216C11.864 12.6516 10.937 12.6771 10.0805 12.3951C8.909 12.0066 7.9805 11.0751 7.5935 9.90206L6.3155 5.61356C3.2735 6.41006 0.962 9.06356 0.7205 12.2781C0.5735 14.2326 0.5 16.0716 0.5 17.7501C0.5 19.4286 0.575 21.2691 0.7205 23.2221C0.998 26.9241 4.019 29.8911 7.748 30.1236C7.937 30.1356 8.1455 30.1476 8.3465 30.1596ZM36.2795 12.2781C36.0425 9.11456 33.7955 6.50306 30.8225 5.66156L29.585 9.81956C29.1785 11.0691 28.2485 12.0036 27.077 12.3936C26.2115 12.6816 25.2695 12.6531 24.431 12.3291C24.3635 12.5091 24.263 12.6696 24.17 12.8346C26.636 14.6061 28.25 17.4906 28.25 20.7501C28.25 23.7936 26.846 26.5146 24.6545 28.3041C26.1335 28.7376 27.461 29.3526 28.6535 30.1596C28.8545 30.1476 29.0645 30.1356 29.2535 30.1236C32.981 29.8926 36.0035 26.9241 36.281 23.2221C36.428 21.2556 36.5015 19.4166 36.5015 17.7501C36.5015 16.0836 36.425 14.2431 36.2795 12.2781Z" fill="#FEAA39"/>
</g>
<defs>
<clipPath id="clip0_712_491">
<rect width="36" height="36" fill="white" transform="translate(0.5 0.5)"/>
</clipPath>
</defs>
</svg>
