<svg width="8" height="10" viewBox="0 0 8 10" fill="none" xmlns="http://www.w3.org/2000/svg">
<path d="M1.08329 9.16683C0.972786 9.16683 0.866805 9.12293 0.788665 9.04479C0.710525 8.96665 0.666626 8.86067 0.666626 8.75016V5.41683C0.666626 5.30632 0.710525 5.20034 0.788665 5.1222C0.866805 5.04406 0.972786 5.00016 1.08329 5.00016C1.1938 5.00016 1.29978 5.04406 1.37792 5.1222C1.45606 5.20034 1.49996 5.30632 1.49996 5.41683V8.75016C1.49996 8.86067 1.45606 8.96665 1.37792 9.04479C1.29978 9.12293 1.1938 9.16683 1.08329 9.16683ZM3.16663 9.16683C3.05612 9.16683 2.95014 9.12293 2.872 9.04479C2.79386 8.96665 2.74996 8.86067 2.74996 8.75016V1.25016C2.74996 1.13966 2.79386 1.03368 2.872 0.955535C2.95014 0.877395 3.05612 0.833496 3.16663 0.833496C3.27713 0.833496 3.38311 0.877395 3.46125 0.955535C3.53939 1.03368 3.58329 1.13966 3.58329 1.25016V8.75016C3.58329 8.86067 3.53939 8.96665 3.46125 9.04479C3.38311 9.12293 3.27713 9.16683 3.16663 9.16683ZM5.24996 9.16683C5.13945 9.16683 5.03347 9.12293 4.95533 9.04479C4.87719 8.96665 4.83329 8.86067 4.83329 8.75016V3.75016C4.83329 3.63966 4.87719 3.53368 4.95533 3.45553C5.03347 3.37739 5.13945 3.3335 5.24996 3.3335C5.36047 3.3335 5.46645 3.37739 5.54459 3.45553C5.62273 3.53368 5.66663 3.63966 5.66663 3.75016V8.75016C5.66663 8.86067 5.62273 8.96665 5.54459 9.04479C5.46645 9.12293 5.36047 9.16683 5.24996 9.16683ZM7.33329 9.16683C7.22279 9.16683 7.1168 9.12293 7.03866 9.04479C6.96052 8.96665 6.91663 8.86067 6.91663 8.75016V7.0835C6.91663 6.97299 6.96052 6.86701 7.03866 6.78887C7.1168 6.71073 7.22279 6.66683 7.33329 6.66683C7.4438 6.66683 7.54978 6.71073 7.62792 6.78887C7.70606 6.86701 7.74996 6.97299 7.74996 7.0835V8.75016C7.74996 8.86067 7.70606 8.96665 7.62792 9.04479C7.54978 9.12293 7.4438 9.16683 7.33329 9.16683Z" fill="#FEAA39"/>
</svg>
