<svg width="35" height="35" viewBox="0 0 35 35" fill="none" xmlns="http://www.w3.org/2000/svg">
<path d="M11.0758 23.7249C10.2965 25.2792 9.88167 27.0059 9.88167 28.7771C9.88167 30.1225 10.9763 31.2169 12.3217 31.2169C13.6669 31.2169 14.7615 30.1223 14.7615 28.7769C14.7615 28.3731 14.7991 27.9754 14.872 27.5868C13.119 26.9047 11.7283 25.4922 11.0758 23.7249ZM19.6295 27.5868C19.7029 27.9793 19.7398 28.3778 19.7398 28.7771C19.7398 30.1223 20.8344 31.2169 22.1797 31.2169C23.5251 31.2169 24.6195 30.1223 24.6195 28.7771C24.6195 27.0059 24.2049 25.2792 23.4254 23.7249C22.7729 25.4922 21.3823 26.9047 19.6295 27.5868ZM26.013 14.6927C26.9845 13.7214 26.9845 12.1408 26.013 11.1692C25.5426 10.6986 24.9167 10.4395 24.2513 10.4395C23.5858 10.4395 22.9601 10.6986 22.4898 11.1692C20.7874 12.8714 19.1228 13.6641 17.2506 13.6641C15.3786 13.6641 13.7138 12.8714 12.0117 11.1693C11.0404 10.1978 9.45976 10.1978 8.48818 11.1693C8.01765 11.6398 7.75848 12.2655 7.75848 12.9309C7.75848 13.5963 8.01759 14.2221 8.48823 14.6927C9.45724 15.6617 11.009 16.8763 12.326 17.5452V19.4703H22.1755V17.5452C23.4923 16.8763 25.044 15.6619 26.013 14.6927ZM12.3258 21.1251V21.4526C12.3258 24.1682 14.535 26.3775 17.2506 26.3775C19.9662 26.3775 22.1755 24.1682 22.1755 21.4526V21.1251H12.3258Z" fill="#FEAA39"/>
<path d="M17.2507 12.3864C18.9394 12.3864 20.4168 11.468 21.2124 10.1051C21.6211 9.40625 21.8361 8.61114 21.8355 7.80158C21.8355 5.27354 19.7787 3.2168 17.2507 3.2168C14.7227 3.2168 12.6659 5.27359 12.6659 7.80158C12.6659 8.64092 12.8936 9.42744 13.2891 10.1049C14.0846 11.4678 15.562 12.3864 17.2507 12.3864Z" fill="#FEAA39"/>
</svg>
