<svg width="20" height="21" viewBox="0 0 20 21" fill="none" xmlns="http://www.w3.org/2000/svg">
<path opacity="0.4" d="M4.58331 10.0371C4.58331 7.04548 7.00831 4.62048 9.99998 4.62048C12.9916 4.62048 15.4166 7.04548 15.4166 10.0371C15.4166 11.7705 14.6 13.3205 13.3333 14.3121H13.325C12.4083 15.0288 11.2583 15.4538 9.99998 15.4538C8.75831 15.4538 7.61665 15.0371 6.69998 14.3288H6.69165C5.40831 13.3371 4.58331 11.7871 4.58331 10.0371Z" fill="white"/>
<path d="M6.69165 14.3288H6.69998C7.61665 15.0371 8.75832 15.4538 9.99998 15.4538C11.2583 15.4538 12.4083 15.0288 13.325 14.3121H13.3333L12.9083 16.3705C12.5 17.9538 11.5833 18.3705 10.4583 18.3705H9.54998C8.42498 18.3705 7.49998 17.9538 7.09998 16.3621L6.69165 14.3288Z" fill="white"/>
<path d="M6.69165 5.7454H6.69998C7.61665 5.03707 8.75832 4.6204 9.99998 4.6204C11.2583 4.6204 12.4083 5.0454 13.325 5.76207H13.3333L12.9083 3.70374C12.5 2.1204 11.5833 1.70374 10.4583 1.70374H9.54998C8.42498 1.70374 7.49998 2.1204 7.09998 3.71207L6.69165 5.7454Z" fill="white"/>
<path d="M11.1667 12.2038C11.0083 12.2038 10.85 12.1455 10.725 12.0205L9.55833 10.8538C9.44167 10.7372 9.375 10.5788 9.375 10.4122V8.08716C9.375 7.74549 9.65833 7.46216 10 7.46216C10.3417 7.46216 10.625 7.74549 10.625 8.08716V10.1538L11.6083 11.1372C11.85 11.3788 11.85 11.7788 11.6083 12.0205C11.4833 12.1455 11.325 12.2038 11.1667 12.2038Z" fill="white"/>
</svg>
