<svg width="65" height="65" viewBox="0 0 65 65" fill="none" xmlns="http://www.w3.org/2000/svg">
<path opacity="0.4" d="M45.9766 54.7044H19.3099C11.3099 54.7044 5.97656 50.7044 5.97656 41.3711V22.7044C5.97656 13.3711 11.3099 9.37109 19.3099 9.37109H45.9766C53.9766 9.37109 59.3099 13.3711 59.3099 22.7044V41.3711C59.3099 50.7044 53.9766 54.7044 45.9766 54.7044Z" fill="#FEAA39"/>
<path d="M32.6423 34.357C30.4023 34.357 28.1357 33.6637 26.4023 32.2504L18.0556 25.5837C17.2023 24.8904 17.0423 23.637 17.7357 22.7837C18.429 21.9304 19.6823 21.7704 20.5357 22.4637L28.8823 29.1304C30.909 30.757 34.349 30.757 36.3756 29.1304L44.7223 22.4637C45.5756 21.7704 46.8556 21.9037 47.5223 22.7837C48.2157 23.637 48.0823 24.917 47.2023 25.5837L38.8556 32.2504C37.149 33.6637 34.8823 34.357 32.6423 34.357Z" fill="#FEAA39"/>
</svg>
