<svg width="21" height="20" viewBox="0 0 21 20" fill="none" xmlns="http://www.w3.org/2000/svg">
<path d="M7.16667 5.00023L18 5.00083M7.16667 10.0003L18 10.0009M7.16667 15.0003L18 15.0009M3.41667 4.99967H3.425M3.41667 9.99967H3.425M3.41667 14.9997H3.425M3.83333 4.99967C3.83333 5.22979 3.64678 5.41634 3.41667 5.41634C3.18655 5.41634 3 5.22979 3 4.99967C3 4.76956 3.18655 4.58301 3.41667 4.58301C3.64678 4.58301 3.83333 4.76956 3.83333 4.99967ZM3.83333 9.99967C3.83333 10.2298 3.64678 10.4163 3.41667 10.4163C3.18655 10.4163 3 10.2298 3 9.99967C3 9.76959 3.18655 9.58301 3.41667 9.58301C3.64678 9.58301 3.83333 9.76959 3.83333 9.99967ZM3.83333 14.9997C3.83333 15.2298 3.64678 15.4163 3.41667 15.4163C3.18655 15.4163 3 15.2298 3 14.9997C3 14.7696 3.18655 14.583 3.41667 14.583C3.64678 14.583 3.83333 14.7696 3.83333 14.9997Z" stroke="white" stroke-width="2" stroke-linecap="round" stroke-linejoin="round"/>
</svg>
