<svg width="115" height="115" viewBox="0 0 115 115" fill="none" xmlns="http://www.w3.org/2000/svg">
<path opacity="0.4" d="M4.77398 95.3148C2.43692 95.3148 0.498867 93.3767 0.498867 91.0396V58.5487C0.213859 43.1013 5.97099 28.5089 16.6873 17.5646C27.4036 6.67727 41.768 0.691986 57.2155 0.691986C88.7943 0.691986 114.502 26.3996 114.502 57.9785V90.4694C114.502 92.8065 112.564 94.7445 110.227 94.7445C107.89 94.7445 105.952 92.8065 105.952 90.4694V57.9785C105.952 31.1307 84.1202 9.24222 57.2155 9.24222C44.0481 9.24222 31.8497 14.3154 22.7865 23.5497C13.6662 32.8409 8.82109 45.2102 9.0491 58.4346V90.9826C9.0491 93.3767 7.16805 95.3148 4.77398 95.3148Z" fill="#FEAA39"/>
<path d="M22.9562 59.9717H22.2151C10.2448 59.9717 0.497559 69.7189 0.497559 81.6893V92.4056C0.497559 104.376 10.2448 114.123 22.2151 114.123H22.9562C34.9265 114.123 44.6738 104.376 44.6738 92.4056V81.6893C44.6738 69.7189 34.9265 59.9717 22.9562 59.9717Z" fill="#FEAA39"/>
<path d="M92.7833 59.9717H92.0423C80.072 59.9717 70.3247 69.7189 70.3247 81.6893V92.4056C70.3247 104.376 80.072 114.123 92.0423 114.123H92.7833C104.754 114.123 114.501 104.376 114.501 92.4056V81.6893C114.501 69.7189 104.754 59.9717 92.7833 59.9717Z" fill="#FEAA39"/>
</svg>
