<svg width="25" height="25" viewBox="0 0 25 25" fill="none" xmlns="http://www.w3.org/2000/svg">
<path opacity="0.4" d="M16.8091 2.53711H8.43915C4.79915 2.53711 2.62915 4.70711 2.62915 8.34711V16.7171C2.62915 20.3571 4.79915 22.5271 8.43915 22.5271H16.8091C20.4491 22.5271 22.6191 20.3571 22.6191 16.7171V8.34711C22.6191 4.70711 20.4491 2.53711 16.8091 2.53711Z" fill="white"/>
<path d="M14.5391 9.81706L14.5891 12.7671L17.2191 12.7271C17.4091 12.7271 17.5491 12.8971 17.5191 13.0771L17.1691 14.9871C17.1391 15.1271 17.0191 15.2271 16.8791 15.2371L14.6291 15.2771L14.7491 22.5271L11.7491 22.5771L11.6291 15.3271L9.92911 15.3571C9.75911 15.3571 9.62912 15.2271 9.62912 15.0571L9.59912 13.1571C9.59912 12.9871 9.72911 12.8571 9.89911 12.8571L11.5991 12.8271L11.5491 9.57706C11.5191 7.91706 12.8391 6.55706 14.4991 6.52706L17.1991 6.48706C17.3691 6.48706 17.4991 6.61706 17.4991 6.78706L17.5391 9.18707C17.5391 9.35707 17.4091 9.48706 17.2391 9.48706L14.8391 9.52706C14.6691 9.51706 14.5391 9.65706 14.5391 9.81706Z" fill="white"/>
</svg>
