<svg width="25" height="25" viewBox="0 0 25 25" fill="none" xmlns="http://www.w3.org/2000/svg">
<path d="M12.5237 1.41082C12.4617 1.41106 12.3998 1.41129 12.3359 1.41153C9.68933 1.42692 7.2676 2.29867 5.2815 4.06512C5.20392 4.12929 5.12633 4.19346 5.0464 4.25958C2.94089 6.04497 1.72244 8.75548 1.47 11.4739C1.26843 14.1759 2.01573 17.0105 3.72877 19.1354C3.87064 19.3001 4.0132 19.4642 4.1565 19.6276C4.21753 19.7033 4.27856 19.7789 4.34144 19.8569C5.9846 21.8261 8.56163 23.0973 11.094 23.3776C11.5553 23.4041 12.0148 23.409 12.4768 23.4069C12.5388 23.4067 12.6007 23.4065 12.6646 23.4062C15.3134 23.3908 17.7302 22.5177 19.719 20.7526C19.7944 20.6917 19.8698 20.6308 19.9475 20.568C21.8525 18.9805 23.2257 16.3795 23.469 13.9089C23.4755 13.847 23.482 13.7851 23.4887 13.7213C23.5101 13.5086 23.5282 13.2958 23.5452 13.0827C23.5513 13.0154 23.5575 12.948 23.5638 12.8786C23.5927 12.4243 23.5297 12.1344 23.2815 11.7526C22.9781 11.5504 22.9219 11.5413 22.5784 11.5768C22.5059 11.5829 22.4334 11.5889 22.3587 11.5951C22.0872 11.6807 22.0237 11.7937 21.8753 12.0339C21.8264 12.2648 21.8264 12.2648 21.806 12.5239C21.7972 12.6198 21.7883 12.7157 21.7792 12.8145C21.7703 12.9166 21.7614 13.0186 21.7522 13.1237C21.6431 14.1678 21.4381 15.0979 21.0315 16.0651C21.0069 16.1241 20.9822 16.1831 20.9568 16.2439C20.0028 18.4595 18.1651 20.095 15.969 21.0339C13.5316 21.9794 10.9633 21.8722 8.57498 20.8447C6.44618 19.863 4.74966 18.0445 3.87525 15.8776C2.94676 13.3428 3.02534 10.7368 4.1565 8.28387C5.28373 6.05032 7.22915 4.39041 9.58629 3.58133C11.8883 2.83811 14.4065 2.99679 16.5817 4.06579C17.7662 4.68115 19.2879 5.6404 19.9065 6.87762C19.8172 6.86759 19.7279 6.85756 19.6359 6.84723C19.5183 6.83599 19.4007 6.82475 19.2796 6.81317C19.1632 6.8012 19.0468 6.78924 18.9269 6.77691C18.5627 6.78453 18.4109 6.84657 18.1253 7.06512C17.9283 7.31581 17.9379 7.44414 17.9495 7.76825C18.0424 8.13995 18.1103 8.23757 18.4065 8.47137C18.7141 8.56558 18.7141 8.56558 19.0763 8.63104C19.1731 8.64897 19.1731 8.64897 19.2718 8.66727C19.4079 8.6922 19.5441 8.71643 19.6805 8.73999C19.8876 8.77582 20.0941 8.81382 20.3007 8.85223C21.8899 9.13997 21.8899 9.13997 22.3206 8.87567C22.6362 8.50245 22.6886 8.01626 22.7745 7.54879C22.8185 7.31578 22.8674 7.084 22.9164 6.85199C22.9523 6.67696 22.9881 6.50191 23.0237 6.32684C23.0413 6.24327 23.0589 6.1597 23.077 6.07361C23.1703 5.59686 23.2122 5.20234 23.094 4.72137C22.8368 4.42636 22.6839 4.35579 22.2971 4.29364C21.8732 4.36177 21.7519 4.46994 21.5003 4.81512C21.4112 5.06615 21.3619 5.30165 21.3128 5.56512C20.9951 5.31721 20.7277 5.07614 20.4749 4.76239C18.5135 2.48842 15.4585 1.39758 12.5237 1.41082Z" fill="white"/>
<path d="M16.6047 8.97603C17.1559 9.38354 17.5388 9.87668 17.7472 10.5339C17.7874 10.8181 17.7911 11.0986 17.7912 11.3853C17.7923 11.5055 17.7923 11.5055 17.7934 11.628C17.7944 11.7967 17.7946 11.9654 17.7942 12.1341C17.7941 12.3897 17.798 12.645 17.8022 12.9005C17.8089 13.8733 17.7875 14.6678 17.0962 15.4196C16.5159 15.9859 15.9705 16.1709 15.1691 16.194C14.3676 16.1709 13.8225 15.9858 13.242 15.4197C12.4973 14.6094 12.5176 13.7042 12.5299 12.6625C12.5324 12.4094 12.5299 12.1566 12.5269 11.9035C12.5249 10.9381 12.5571 10.1435 13.2419 9.39811C14.1426 8.51995 15.5018 8.33392 16.6047 8.97603ZM14.4426 10.6159C14.0416 11.1028 14.1675 11.8065 14.1672 12.403C14.166 12.5137 14.1649 12.6243 14.1637 12.7383C14.1635 12.8451 14.1633 12.9518 14.1631 13.0618C14.1628 13.1591 14.1624 13.2564 14.162 13.3566C14.1959 13.7608 14.2974 14.0149 14.5715 14.3132C14.9214 14.5186 15.1944 14.5651 15.591 14.4714C15.9209 14.2187 16.0826 14.0326 16.1535 13.6276C16.1771 13.2276 16.1752 12.8272 16.1769 12.4265C16.1789 12.3174 16.1808 12.2083 16.1828 12.096C16.1855 11.5079 16.1835 11.0426 15.8722 10.5339C15.3613 10.1513 14.9177 10.2199 14.4426 10.6159Z" fill="white"/>
<path d="M10.0596 8.94014C10.3157 9.14959 10.4228 9.32128 10.467 9.65063C10.4781 9.96197 10.4767 10.2711 10.4712 10.5826C10.4707 10.6964 10.4701 10.8102 10.4696 10.9274C10.4675 11.2904 10.4628 11.6533 10.458 12.0163C10.4561 12.2626 10.4544 12.5089 10.4529 12.7551C10.4487 13.3585 10.4425 13.9618 10.4346 14.5651C10.5219 14.5626 10.5219 14.5626 10.6109 14.56C10.7252 14.558 10.7252 14.558 10.8418 14.556C10.9174 14.5543 10.993 14.5526 11.0709 14.5508C11.2783 14.5651 11.2783 14.5651 11.5127 14.7116C11.7003 15.0165 11.7408 15.239 11.7471 15.5964C11.6209 15.8727 11.5516 16.0223 11.2783 16.1589C10.7751 16.1856 10.2717 16.1883 9.76786 16.1917C9.59954 16.1933 9.43123 16.1958 9.26295 16.1994C9.02003 16.2045 8.77726 16.2066 8.5343 16.208C8.42193 16.2112 8.42193 16.2112 8.30728 16.2144C7.91042 16.2129 7.75914 16.1922 7.43359 15.942C7.24707 15.6901 7.24707 15.6901 7.19434 15.362C7.25918 14.9585 7.29182 14.8128 7.62207 14.5651C7.99332 14.5651 8.36457 14.5651 8.74707 14.5651C8.71613 13.5442 8.6852 12.5233 8.65332 11.4714C8.62238 11.5023 8.59145 11.5333 8.55957 11.5651C8.1646 11.614 7.82694 11.6275 7.47559 11.4304C7.2698 11.0635 7.22975 10.7546 7.34082 10.3464C7.54756 10.0668 7.80625 9.88635 8.09082 9.69014C8.23457 9.58917 8.23457 9.58917 8.38123 9.48616C9.43871 8.76275 9.43871 8.76275 10.0596 8.94014Z" fill="white"/>
</svg>
