<svg width="71" height="70" viewBox="0 0 71 70" fill="none" xmlns="http://www.w3.org/2000/svg">
<path d="M61.3747 39.784C64.7282 38.1073 67.1092 35.0388 68.9033 34.7538C67.0757 34.4184 64.6108 31.2326 61.2406 29.6061C63.7222 26.7724 64.7617 22.8991 66.2708 21.8763C64.4599 22.262 61.0561 20.3504 57.3841 20.0822C58.5075 16.5778 58.038 12.6877 59.0608 11.1619C57.5182 12.235 53.5275 11.732 50.0063 12.9224C49.738 9.20006 47.7428 5.72917 48.1117 3.90151C47.1392 5.44412 43.3497 6.51724 40.5663 8.93177C38.8895 5.6621 35.7875 3.23082 35.536 1.41992C35.2174 3.24758 32.0148 5.69564 30.3884 9.06591C27.5714 6.61785 23.6813 5.5615 22.6585 4.03565C23.0609 5.82978 21.1495 9.25035 20.8476 12.9392C17.36 11.799 13.47 12.2685 11.9609 11.2625C13.0005 12.8051 12.4974 16.7957 13.6376 20.3169C9.91524 20.5852 6.41078 22.5973 4.58312 22.2116C6.1425 23.2009 7.19886 26.9904 9.61338 29.7403C6.25988 31.417 3.89569 34.519 2.10156 34.7705C3.92922 35.1059 6.37728 38.2917 9.74755 39.9349C7.28272 42.7519 6.22637 46.6419 4.71729 47.648C6.51142 47.2456 9.94876 49.1738 13.6208 49.4421C12.4639 52.9298 12.9501 56.8366 11.9441 58.3457C13.4867 57.2893 17.4438 57.7924 20.9985 56.6689C21.2668 60.3913 23.2454 63.879 22.8598 65.7066C23.8491 64.1472 27.6384 63.0909 30.4218 60.6764C32.0986 64.0299 35.2006 66.3773 35.4521 68.1882C35.7875 66.3605 38.9565 63.879 40.6165 60.5422C43.4167 62.9903 47.3235 64.0299 48.3296 65.5725C47.9271 63.7951 49.8554 60.3578 50.1237 56.6857C53.6281 57.8259 57.5349 57.3564 59.044 58.3624C57.9709 56.8366 58.4907 52.8459 57.3673 49.3247C61.0897 49.0565 64.5606 47.0444 66.3882 47.43C64.7282 46.3569 63.739 42.5674 61.3747 39.784ZM57.2332 48.8385C57.1158 48.9726 57.0319 49.1235 56.9313 49.2577C55.1275 51.8871 52.8537 54.1608 50.2243 55.9647L49.6375 56.3503C46.9625 58.1064 43.9825 59.3462 40.8513 60.0057L40.365 60.0895C38.7694 60.4074 37.1461 60.5647 35.5192 60.559C33.9506 60.5556 32.3852 60.4153 30.841 60.1398L30.1704 60.0057C27.0477 59.3445 24.0744 58.1108 21.4009 56.3671C21.2635 56.2605 21.1178 56.1651 20.965 56.0821C18.3374 54.2761 16.0639 52.0027 14.258 49.375C14.1391 49.1841 14.0103 48.9994 13.8723 48.8217C12.1266 46.145 10.8982 43.1649 10.2506 40.0355C10.2073 39.8756 10.1737 39.7132 10.15 39.5493C9.83863 37.9471 9.68137 36.3188 9.68042 34.6867C9.68778 33.1175 9.83368 31.5521 10.1164 30.0086C10.1497 29.7884 10.1945 29.5701 10.2506 29.3546C10.8982 26.2253 12.1266 23.2451 13.8723 20.5684L14.1741 20.1325C15.9722 17.4984 18.247 15.2236 20.8811 13.4255L21.468 13.023C24.1499 11.272 27.1355 10.038 30.271 9.3845C30.4325 9.36563 30.5957 9.36563 30.7572 9.3845C32.3471 9.0666 33.9649 8.90931 35.5863 8.91501C37.1497 8.90956 38.7103 9.04989 40.2477 9.3342L40.9183 9.46834C44.0519 10.1201 47.0333 11.3605 49.7045 13.1237L50.1573 13.3919C52.7735 15.2115 55.0447 17.4827 56.8643 20.0989L57.2499 20.6523C58.9888 23.3386 60.2167 26.323 60.8717 29.4552C60.915 29.6152 60.9486 29.7775 60.9723 29.9415C61.282 31.5382 61.4391 33.1608 61.4418 34.7873C61.4344 36.3565 61.2886 37.9219 61.0059 39.4654C61.0059 39.6834 60.922 39.9182 60.8717 40.1194C60.1812 43.2282 58.925 46.1837 57.1661 48.8385H57.2332Z" stroke="#1DB555" stroke-width="2.29715" stroke-linecap="round" stroke-linejoin="round"/>
</svg>
