<svg width="20" height="21" viewBox="0 0 20 21" fill="none" xmlns="http://www.w3.org/2000/svg">
<path opacity="0.4" d="M2.29164 15.5788C1.94997 15.5788 1.66664 15.2955 1.66664 14.9538V10.2038C1.62497 7.94548 2.46664 5.81215 4.0333 4.21215C5.59997 2.62048 7.69997 1.74548 9.95831 1.74548C14.575 1.74548 18.3333 5.50382 18.3333 10.1205V14.8705C18.3333 15.2121 18.05 15.4955 17.7083 15.4955C17.3666 15.4955 17.0833 15.2121 17.0833 14.8705V10.1205C17.0833 6.19548 13.8916 2.99548 9.95831 2.99548C8.0333 2.99548 6.24997 3.73715 4.92497 5.08715C3.59164 6.44548 2.8833 8.25382 2.91664 10.1872V14.9455C2.91664 15.2955 2.64164 15.5788 2.29164 15.5788Z" fill="white"/>
<path d="M4.95002 10.4121H4.84169C3.09169 10.4121 1.66669 11.8371 1.66669 13.5871V15.1538C1.66669 16.9038 3.09169 18.3288 4.84169 18.3288H4.95002C6.70002 18.3288 8.12502 16.9038 8.12502 15.1538V13.5871C8.12502 11.8371 6.70002 10.4121 4.95002 10.4121Z" fill="white"/>
<path d="M15.1583 10.4121H15.05C13.3 10.4121 11.875 11.8371 11.875 13.5871V15.1538C11.875 16.9038 13.3 18.3288 15.05 18.3288H15.1583C16.9083 18.3288 18.3333 16.9038 18.3333 15.1538V13.5871C18.3333 11.8371 16.9083 10.4121 15.1583 10.4121Z" fill="white"/>
</svg>
