<svg width="21" height="20" viewBox="0 0 21 20" fill="none" xmlns="http://www.w3.org/2000/svg">
<path d="M6.28125 15.7817L6.125 16.4848C6.18375 16.4848 6.28125 16.4848 6.4375 16.4655C6.555 16.4655 6.75 16.4461 6.965 16.4261C7.64875 16.348 8.17625 16.3086 8.50813 16.3286H10.2075C10.5788 16.368 10.8913 16.4067 11.1063 16.4461C11.3019 16.4655 11.4381 16.4655 11.4775 16.4655C11.5363 16.5048 11.595 16.5048 11.6338 16.5048H11.8488C11.9075 16.5048 11.9856 16.5048 12.0831 16.4855H12.1806C12.2 16.4661 12.2394 16.4661 12.2781 16.4661C12.3175 16.4073 12.3369 16.3292 12.3369 16.2705C12.3369 16.2117 12.3763 16.173 12.3956 16.1336C12.3956 16.0555 12.415 15.9967 12.415 15.8992C12.415 15.8405 12.4344 15.743 12.4344 15.6455C12.2781 15.6261 12.1413 15.5867 12.0438 15.5673C11.9463 15.548 11.8875 15.548 11.8681 15.548C11.5363 15.5086 11.2238 15.4505 10.8331 15.3723C10.8138 15.3136 10.8138 15.2748 10.8138 15.2355V15.138L10.9313 14.7667L11.2831 12.7742L11.635 11.4461L12.1625 8.78984C12.26 8.18422 12.475 7.34422 12.7288 6.21172C12.7481 6.03609 12.7875 5.80172 12.8463 5.52797C12.9244 5.21547 12.9831 4.98109 13.0613 4.78547C13.2763 4.70734 13.5694 4.60984 13.94 4.51172C14.2719 4.43359 14.6238 4.35547 14.8969 4.25797C14.9363 4.08234 14.975 3.92609 15.0144 3.82797C15.0144 3.76922 15.0338 3.71047 15.0338 3.65234C15.0531 3.61297 15.0531 3.55484 15.0531 3.49609C14.9944 3.49609 14.8775 3.49609 14.7213 3.51547C14.565 3.51547 14.3894 3.53484 14.155 3.55484C13.2763 3.61359 12.6706 3.63297 12.28 3.63297H12.065C11.9475 3.63297 11.8113 3.61359 11.635 3.61359L8.88125 3.49609L8.70563 4.37484H8.86188C8.90125 4.39422 8.99875 4.39422 9.0575 4.39422C9.66313 4.43359 10.0538 4.51172 10.3075 4.62859V4.98047L10.2294 5.37109L10.0538 6.52359L9.91688 7.07047L9.64313 8.39859C9.64313 8.41797 9.58438 8.61359 9.48688 8.92609C9.38938 9.25797 9.27188 9.74672 9.155 10.4298L9.0575 10.9767L8.54938 13.2423L8.315 14.3948C8.25625 14.7467 8.11938 15.0592 7.96313 15.2736C7.72875 15.3711 7.41625 15.508 6.9475 15.6055C6.65438 15.6836 6.40063 15.723 6.28313 15.7811L6.28125 15.7817Z" fill="white"/>
</svg>
