<svg width="35" height="35" viewBox="0 0 35 35" fill="none" xmlns="http://www.w3.org/2000/svg">
<path d="M15.7248 7.32017C15.6476 7.24951 15.5695 7.1799 15.4904 7.11135C13.9247 5.75568 11.2018 4.13965 7.12199 4.13965C6.68272 4.13965 6.3266 4.49577 6.3266 4.93504V5.5038C10.3086 5.72158 13.6034 6.5962 15.7248 7.32017ZM21.1375 6.54291C23.3746 5.96503 25.734 5.61548 28.1728 5.49792V4.93504C28.1728 4.49577 27.8167 4.13965 27.3774 4.13965C23.2976 4.13965 20.5748 5.75568 19.009 7.11135C18.9672 7.14757 18.9262 7.18378 18.8856 7.22C19.5322 6.99623 20.2842 6.76334 21.1375 6.54291Z" fill="#FEAA3A"/>
<path d="M30.0294 7.04395C23.1069 7.04395 18.5613 8.96472 17.25 9.59843V9.61387C15.9179 9.01923 11.0007 7.04395 4.47069 7.04395C4.03142 7.04395 3.67529 7.40007 3.67529 7.83934V26.8483C3.67529 27.2876 4.03142 27.6437 4.47069 27.6437C11.5867 27.6437 16.8213 30.1753 16.8973 30.2125C17.0069 30.2668 17.1276 30.295 17.25 30.295H17.25C17.2675 30.295 17.2849 30.2944 17.3024 30.2932C17.308 30.2929 17.3136 30.2921 17.3192 30.2916C17.3311 30.2906 17.3429 30.2895 17.3547 30.288C17.3613 30.2871 17.3679 30.2859 17.3745 30.2848C17.3852 30.2832 17.3959 30.2814 17.4065 30.2793C17.4136 30.2778 17.4206 30.2762 17.4277 30.2746C17.4377 30.2723 17.4478 30.2699 17.4577 30.2672C17.465 30.2652 17.4722 30.2631 17.4794 30.2609C17.5137 30.2506 17.5472 30.238 17.5797 30.2232C17.5888 30.219 17.5978 30.2146 17.6068 30.2101C17.6138 30.2065 17.6209 30.203 17.6279 30.1993C17.6305 30.1978 17.6333 30.1966 17.6359 30.1951C17.6819 30.1696 22.3236 27.6437 30.0294 27.6437C30.4686 27.6437 30.8248 27.2876 30.8248 26.8483V7.83934C30.8248 7.40002 30.4686 7.04395 30.0294 7.04395ZM6.83052 11.1636C6.83051 11.0531 6.85354 10.9438 6.89813 10.8427C6.94272 10.7415 7.0079 10.6508 7.0895 10.5763C7.1711 10.5018 7.26734 10.4451 7.37208 10.4098C7.47681 10.3745 7.58775 10.3615 7.69782 10.3715C10.0075 10.5811 12.2213 11.0114 14.2776 11.6505C14.4397 11.7009 14.5814 11.8018 14.682 11.9384C14.7826 12.0751 14.8369 12.2403 14.8369 12.41V15.5916C14.8369 15.7163 14.8076 15.8392 14.7514 15.9505C14.6952 16.0617 14.6136 16.1582 14.5132 16.2321C14.4128 16.3061 14.2965 16.3553 14.1735 16.376C14.0506 16.3967 13.9245 16.3882 13.8055 16.3512C11.8558 15.7452 9.75253 15.3368 7.55401 15.1372C7.14427 15.1001 6.83052 14.7565 6.83052 14.3451V11.1636ZM14.8011 25.3724C14.6952 25.7133 14.3809 25.932 14.0418 25.932C13.9636 25.932 13.8841 25.9204 13.8055 25.8959C11.8558 25.29 9.75253 24.8816 7.55401 24.682C7.11654 24.6423 6.79404 24.2554 6.83375 23.818C6.87347 23.3805 7.26061 23.0578 7.69776 23.0977C10.0075 23.3074 12.2213 23.7377 14.2775 24.3768C14.6971 24.5072 14.9315 24.9529 14.8011 25.3724ZM14.8011 22.1909C14.6952 22.5318 14.3809 22.7504 14.0418 22.7504C13.9636 22.7504 13.8841 22.7388 13.8055 22.7143C11.8558 22.1084 9.75253 21.7 7.55401 21.5004C7.11654 21.4607 6.79404 21.0739 6.83375 20.6364C6.87347 20.1989 7.26061 19.8764 7.69776 19.9161C10.0075 20.1258 12.2213 20.5561 14.2775 21.1952C14.6971 21.3256 14.9315 21.7714 14.8011 22.1909ZM14.8011 19.0093C14.6952 19.3502 14.3809 19.5688 14.0418 19.5688C13.9636 19.5688 13.8841 19.5572 13.8055 19.5328C11.8558 18.9268 9.75253 18.5184 7.55401 18.3188C7.11654 18.2791 6.79404 17.8923 6.83375 17.4548C6.87347 17.0173 7.26061 16.6945 7.69776 16.7346C10.0075 16.9442 12.2213 17.3745 14.2775 18.0136C14.6971 18.144 14.9315 18.5898 14.8011 19.0093ZM26.9195 24.6821C24.7211 24.8817 22.6178 25.2901 20.6681 25.896C20.5895 25.9204 20.5099 25.9321 20.4317 25.9321C20.0926 25.9321 19.7784 25.7134 19.6724 25.3725C19.5421 24.9531 19.7764 24.5073 20.196 24.3769C22.2523 23.7378 24.4661 23.3075 26.7757 23.0979C27.2129 23.0582 27.6001 23.3806 27.6397 23.8181C27.6795 24.2555 27.3571 24.6424 26.9195 24.6821ZM26.9195 21.5005C24.7211 21.7001 22.6178 22.1085 20.6681 22.7144C20.5895 22.7388 20.5099 22.7505 20.4317 22.7505C20.0926 22.7505 19.7784 22.5319 19.6724 22.191C19.5421 21.7715 19.7764 21.3257 20.196 21.1953C22.2523 20.5563 24.4661 20.126 26.7757 19.9163C27.2129 19.8764 27.6001 20.199 27.6397 20.6366C27.6795 21.0739 27.3571 21.4608 26.9195 21.5005ZM26.9195 18.3189C24.7211 18.5185 22.6178 18.9269 20.6681 19.5329C20.5895 19.5573 20.5099 19.5689 20.4317 19.5689C20.0926 19.5689 19.7784 19.3503 19.6724 19.0094C19.5421 18.5899 19.7764 18.1442 20.196 18.0138C22.2523 17.3747 24.4661 16.9444 26.7757 16.7347C27.2129 16.695 27.6001 17.0175 27.6397 17.455C27.6795 17.8923 27.3571 18.2792 26.9195 18.3189ZM26.9195 15.1373C24.7211 15.3369 22.6178 15.7453 20.6681 16.3512C20.5895 16.3756 20.5099 16.3873 20.4317 16.3873C20.0926 16.3873 19.7784 16.1687 19.6724 15.8278C19.5421 15.4083 19.7764 14.9625 20.196 14.8321C22.2523 14.1931 24.4661 13.7628 26.7757 13.5531C27.2129 13.5131 27.6001 13.8358 27.6397 14.2733C27.6795 14.7108 27.3571 15.0976 26.9195 15.1373ZM26.9195 11.9557C24.7211 12.1553 22.6178 12.5637 20.6681 13.1697C20.5895 13.194 20.5099 13.2057 20.4317 13.2057C20.0926 13.2057 19.7784 12.9871 19.6724 12.6462C19.5421 12.2267 19.7764 11.7809 20.196 11.6506C22.2523 11.0115 24.4661 10.5812 26.7757 10.3715C27.2129 10.3317 27.6001 10.6542 27.6397 11.0918C27.6795 11.5292 27.3571 11.916 26.9195 11.9557Z" fill="#FEAA3A"/>
</svg>
