<svg width="21" height="35" viewBox="0 0 21 35" fill="none" xmlns="http://www.w3.org/2000/svg">
<path d="M12.529 7.31695C13.8205 7.53878 15.0064 7.97454 16.0835 8.67596C17.9537 9.8903 19.3074 11.5255 20.0527 13.6429C20.4852 14.8808 20.67 16.1916 20.5967 17.5008C20.4937 19.5529 19.7879 21.381 18.4701 22.9574C17.3482 24.2993 15.9336 25.227 14.2865 25.8069C12.9401 26.2821 11.5135 26.4881 10.0876 26.4132C7.83956 26.2979 5.79929 25.5965 4.02556 24.181C2.35179 22.8452 1.31193 21.1149 0.869153 19.0321C0.621819 17.8537 0.585894 16.6409 0.763061 15.45C1.09799 13.1107 2.17994 11.1669 3.91947 9.59483C5.21798 8.42301 6.73657 7.66591 8.4704 7.36649C8.63831 7.33712 8.66198 7.27881 8.60192 7.11222C8.40652 6.59614 8.41906 6.02436 8.63691 5.51734C8.85477 5.01033 9.26092 4.60767 9.76979 4.3942C9.89123 4.34203 10.0767 4.38149 10.1275 4.2434C10.1714 4.12152 10.1394 3.96984 10.1394 3.83131C10.1394 2.97031 10.1394 2.10931 10.1394 1.24831C10.1394 1.02605 10.2428 0.873052 10.4519 0.800279C10.5489 0.765356 10.6547 0.763258 10.753 0.794307C10.8513 0.825355 10.9366 0.88783 10.996 0.972127C11.0696 1.07471 11.0661 1.19132 11.0661 1.3075C11.0661 2.23382 11.0723 3.16057 11.0622 4.08689C11.0622 4.24208 11.1113 4.29118 11.2463 4.34072C12.1406 4.67039 12.6627 5.30518 12.7487 6.2635C12.7793 6.62342 12.6895 6.97106 12.529 7.31695ZM10.7452 25.6461C10.9841 25.6105 11.348 25.632 11.7123 25.5934C12.9885 25.4589 14.1971 25.1165 15.3295 24.5067C17.1295 23.5374 18.4683 22.1429 19.2311 20.2337C19.862 18.6515 20.0045 17.0106 19.6919 15.336C19.2478 12.9582 18.0562 11.0463 16.0914 9.62683C14.9558 8.79746 13.6308 8.26518 12.2371 8.07844C12.1196 8.06265 11.9955 8.03197 11.8776 8.11263C11.0236 8.69306 10.1709 8.68254 9.32307 8.09685C9.26915 8.06002 9.22575 8.02846 9.14772 8.046C8.93597 8.09378 8.71941 8.11833 8.50592 8.15998C6.30914 8.59004 4.55689 9.73511 3.21805 11.5088C2.17981 12.8653 1.5685 14.5 1.46186 16.2049C1.38821 17.2903 1.46186 18.3587 1.75777 19.4003C2.50961 22.0495 4.24257 23.8241 6.74358 24.8898C7.97897 25.4181 9.27836 25.65 10.7452 25.6461ZM10.6001 5.1364C10.0302 5.0816 9.3542 5.60241 9.35113 6.34241C9.34806 7.03507 9.91665 7.62777 10.5913 7.62865C10.9255 7.63034 11.247 7.50071 11.4865 7.26767C11.726 7.03463 11.8644 6.71684 11.8719 6.38274C11.8824 5.70543 11.3028 5.13727 10.6001 5.1364Z" fill="#FEAA39"/>
<path d="M9.05905 29.0873C8.39236 29.0023 7.73223 28.8721 7.08322 28.6975C4.66681 28.0338 2.57919 26.8124 0.835277 25.0107C0.70376 24.8743 0.599423 24.7231 0.6928 24.5262C0.764258 24.375 0.895338 24.307 1.06675 24.3163C1.17985 24.322 1.25394 24.3873 1.32715 24.4592C2.51081 25.6191 3.83167 26.5797 5.34982 27.2592C6.4606 27.7576 7.63609 28.0971 8.8416 28.2675C9.60562 28.3801 10.3786 28.4202 11.1502 28.3871C13.0398 28.3059 14.8885 27.8105 16.5656 26.9361C17.7892 26.3046 18.905 25.4832 19.8715 24.5026C19.933 24.4299 20.0114 24.3734 20.0999 24.3382C20.2643 24.286 20.4116 24.3281 20.5041 24.4697C20.555 24.5383 20.5786 24.6233 20.5706 24.7083C20.5625 24.7933 20.5232 24.8723 20.4603 24.93C20.1736 25.2207 19.8904 25.5174 19.5835 25.7866C18.4241 26.8046 17.0982 27.6154 15.6638 28.1837C14.6466 28.5862 13.5881 28.8753 12.5074 29.0456C12.4031 29.0623 12.2488 29.0018 12.2054 29.096C12.165 29.1837 12.2966 29.2771 12.3579 29.3634C13.5696 31.0574 15.076 32.4076 16.9707 33.3024C17.0803 33.3541 17.2043 33.3901 17.2657 33.5115C17.3451 33.6702 17.3459 33.8267 17.2219 33.9573C17.0978 34.088 16.9531 34.1103 16.7835 34.0327C15.9385 33.6415 15.1436 33.1498 14.4162 32.5685C13.2803 31.6694 12.3251 30.6063 11.5171 29.4086C11.3992 29.2332 11.2584 29.1745 11.0603 29.1964C10.7621 29.2218 10.4624 29.2218 10.1642 29.1964C9.96476 29.1846 9.82228 29.2569 9.70436 29.4257C8.38305 31.3178 6.74916 32.8635 4.68654 33.9306C4.61637 33.9689 4.54423 34.0034 4.47041 34.0341C4.2613 34.1156 4.05131 34.0441 3.96758 33.867C3.88385 33.6899 3.95136 33.4817 4.15652 33.373C4.56729 33.1538 4.97631 32.9346 5.36823 32.6847C6.35955 32.0537 7.25636 31.2853 8.03189 30.4024C8.40223 29.9866 8.74533 29.5473 9.05905 29.0873Z" fill="#FEAA39"/>
<path d="M12.197 16.3705V21.9951C12.197 22.4887 11.8292 22.711 11.4079 22.4453C11.0265 22.2068 10.6727 21.9241 10.3119 21.6562C9.49168 21.0521 8.67496 20.444 7.85341 19.8421C7.63948 19.6856 7.51585 19.5006 7.51673 19.2218C7.52374 17.3687 7.52725 15.5161 7.51673 13.663C7.51673 13.3312 7.62413 13.1032 7.89374 12.9081C9.02479 12.0905 10.1449 11.2576 11.2693 10.433C11.4088 10.3313 11.5477 10.2221 11.7349 10.2138C12.0295 10.1997 12.1965 10.3536 12.1979 10.6579C12.1979 11.4093 12.1979 12.1607 12.1979 12.9121C12.1979 14.0647 12.1979 15.2174 12.1979 16.3701L12.197 16.3705Z" fill="#FEAA39"/>
<path d="M6.94205 16.492V19.2271C6.94205 19.5643 6.83465 19.6743 6.50366 19.6752C5.94208 19.6752 5.3805 19.6774 4.81892 19.6752C4.35642 19.6752 3.97283 19.3166 3.97064 18.8545C3.96275 17.2424 3.96275 15.6304 3.97064 14.0186C3.97064 13.6368 4.3516 13.2887 4.75448 13.2843C5.36823 13.2773 5.98198 13.2808 6.59266 13.2843C6.82369 13.2843 6.94337 13.4325 6.94337 13.7135C6.94337 14.6397 6.94337 15.5659 6.94337 16.492H6.94205Z" fill="#FEAA39"/>
<path d="M17.4102 16.3369C17.3717 18.0585 16.7553 19.5433 15.5743 20.7954C15.3603 21.022 15.1359 21.0514 14.9666 20.8887C14.7974 20.7261 14.815 20.4657 15.0223 20.2491C15.7676 19.4723 16.2831 18.5675 16.4997 17.5105C16.8833 15.6403 16.4616 13.9731 15.1968 12.5304C15.1091 12.4322 15.0144 12.3406 14.9338 12.2367C14.7996 12.0587 14.8185 11.8496 14.9706 11.7045C15.1117 11.5694 15.3095 11.5729 15.4778 11.7299C16.4265 12.6238 17.0161 13.718 17.2721 14.992C17.3653 15.4342 17.4116 15.885 17.4102 16.3369Z" fill="#FEAA39"/>
<path d="M15.4435 16.6666C15.4335 17.5097 15.0214 18.5776 14.1722 19.4723C14.0622 19.5889 13.9328 19.6674 13.7702 19.6503C13.7039 19.6467 13.6402 19.6229 13.5877 19.5822C13.5353 19.5415 13.4964 19.4857 13.4765 19.4224C13.4283 19.2707 13.4357 19.1243 13.5506 18.9927C13.8811 18.6144 14.2003 18.2247 14.3756 17.7464C14.9048 16.3023 14.7141 14.9819 13.6742 13.814C13.6078 13.7477 13.549 13.6742 13.4988 13.5948C13.4072 13.4256 13.4147 13.256 13.5637 13.1187C13.7128 12.9815 13.8776 12.9807 14.0403 13.0977C14.3787 13.341 14.6102 13.6768 14.821 14.0262C15.2761 14.7851 15.4299 15.3743 15.4435 16.6666Z" fill="#FEAA39"/>
</svg>
