<svg width="51" height="51" viewBox="0 0 51 51" fill="none" xmlns="http://www.w3.org/2000/svg">
<path opacity="0.4" d="M25.1715 36.2116C27.0469 36.2116 28.5673 34.6912 28.5673 32.8158C28.5673 30.9403 27.0469 29.4199 25.1715 29.4199C23.296 29.4199 21.7756 30.9403 21.7756 32.8158C21.7756 34.6912 23.296 36.2116 25.1715 36.2116Z" fill="#FEAA39"/>
<path d="M34.8593 19.7325H15.4843C6.94261 19.7325 4.33844 22.3367 4.33844 30.8784V34.7534C4.33844 43.295 6.94261 45.8992 15.4843 45.8992H34.8593C43.4009 45.8992 46.0051 43.295 46.0051 34.7534V30.8784C46.0051 22.3367 43.4009 19.7325 34.8593 19.7325ZM25.1718 39.1075C21.6926 39.1075 18.8801 36.2742 18.8801 32.8159C18.8801 29.3575 21.6926 26.5242 25.1718 26.5242C28.6509 26.5242 31.4634 29.3575 31.4634 32.8159C31.4634 36.2742 28.6509 39.1075 25.1718 39.1075Z" fill="#FEAA39"/>
<path opacity="0.4" d="M15.0049 19.7542V17.3167C15.0049 11.2126 16.734 7.15007 25.1715 7.15007C33.609 7.15007 35.3382 11.2126 35.3382 17.3167V19.7542C36.4007 19.7751 37.359 19.8167 38.2549 19.9417V17.3167C38.2549 11.6917 36.9007 4.2334 25.1715 4.2334C13.4424 4.2334 12.0882 11.6917 12.0882 17.3167V19.9209C12.9632 19.8167 13.9424 19.7542 15.0049 19.7542Z" fill="#FEAA39"/>
</svg>
