<svg width="35" height="35" viewBox="0 0 35 35" fill="none" xmlns="http://www.w3.org/2000/svg">
<path d="M5.78833 20.8933H6.74976C7.54544 20.89 8.31238 21.1904 8.89421 21.7332C10.351 23.1138 11.7754 24.4929 13.095 25.8683C13.887 26.6916 15.1362 26.825 16.1472 26.1697C17.2077 25.4794 18.0304 24.3693 18.2442 23.0893C18.4444 21.8693 18.6326 20.192 18.6347 17.8958C18.6368 15.5997 18.4449 13.9229 18.2452 12.7023C18.0299 11.4161 17.2025 10.3008 16.1315 9.61156C15.1279 8.96661 13.8943 9.08653 13.1007 9.89103C11.7973 11.2153 10.3927 12.5428 8.95573 13.8723C8.37762 14.3989 7.623 14.6895 6.841 14.6867H5.7951C4.793 14.6867 3.94054 15.4495 3.91812 16.3901C3.8957 17.3306 3.89727 18.2566 3.91447 19.1894C3.93324 20.1305 4.78518 20.8933 5.78833 20.8933ZM25.2401 17.5522C25.2454 16.3406 25.0954 15.1334 24.7938 13.9599C24.562 13.0647 24.2269 12.1995 23.7953 11.3817C23.0654 10.0063 22.311 9.3003 22.2275 9.2247C21.9671 8.98575 21.6224 8.86005 21.2693 8.87526C20.9161 8.89046 20.5835 9.04532 20.3446 9.30577C20.1056 9.56622 19.9799 9.91093 19.9951 10.2641C20.0103 10.6172 20.1652 10.9498 20.4256 11.1887C20.5367 11.293 22.5748 13.3045 22.5748 17.5522C22.58 18.526 22.4614 19.4964 22.2218 20.4402C22.0453 21.129 21.7897 21.7951 21.4601 22.4251C20.9611 23.3672 20.4601 23.8558 20.4303 23.8881C20.1733 24.127 20.0208 24.4578 20.0062 24.8084C19.9915 25.1591 20.1157 25.5014 20.3519 25.761C20.5881 26.0206 20.9172 26.1766 21.2677 26.195C21.6182 26.2134 21.9618 26.0928 22.2239 25.8594C22.3073 25.7844 23.0623 25.0836 23.7953 23.7124C24.2279 22.8972 24.5635 22.0342 24.7954 21.1409C25.0963 19.9686 25.2458 18.7626 25.2401 17.5522Z" fill="#FEAA39"/>
<path d="M29.9779 12.5664C29.658 11.3296 29.1952 10.1342 28.5989 9.00435C27.5984 7.12372 26.5895 6.17636 26.4784 6.07626C26.3495 5.95794 26.1985 5.86619 26.034 5.80623C25.8696 5.74628 25.695 5.71929 25.5201 5.72682C25.3453 5.73435 25.1736 5.77624 25.015 5.85011C24.8563 5.92398 24.7138 6.02837 24.5954 6.15733C24.4771 6.2863 24.3854 6.4373 24.3254 6.60172C24.2655 6.76614 24.2385 6.94076 24.246 7.11561C24.2612 7.46874 24.4161 7.80136 24.6765 8.04031C24.7062 8.06847 25.4894 8.82239 26.2636 10.2901C26.758 11.2347 27.1415 12.2334 27.4065 13.2661C27.7628 14.6684 27.9394 16.1103 27.932 17.5571C27.9396 19.0017 27.763 20.4414 27.4065 21.8413C27.1421 22.8703 26.7589 23.865 26.2647 24.8054C25.4935 26.2575 24.7141 27.0041 24.6812 27.0354C24.4194 27.2729 24.2628 27.6046 24.2456 27.9576C24.2284 28.3107 24.3522 28.656 24.5897 28.9178C24.8272 29.1796 25.159 29.3363 25.512 29.3534C25.865 29.3706 26.2104 29.2468 26.4722 29.0093C26.5843 28.9082 27.5952 27.9665 28.5978 26.0948C29.1946 24.9687 29.6578 23.7767 29.9779 22.5431C30.3968 20.9145 30.605 19.2388 30.5974 17.5571C30.6048 15.8739 30.3966 14.1967 29.9779 12.5664Z" fill="#FEAA39"/>
</svg>
