<svg width="22" height="21" viewBox="0 0 22 21" fill="none" xmlns="http://www.w3.org/2000/svg">
<path opacity="0.4" fill-rule="evenodd" clip-rule="evenodd" d="M20.6819 12.7067C20.8375 13.1452 20.6976 13.5578 20.2859 13.8509C18.7999 14.9088 16.0153 16.3524 13.4954 17.235C11.0933 18.0765 9.33923 17.9062 7.54828 17.9433C5.25576 17.9907 2.78166 19.5671 1.93855 20.0184C0.896326 18.5049 0.411529 16.6768 0.566876 14.8458C4.90194 13.952 4.56517 11.545 8.91742 12.8057C9.90491 13.0918 11.432 13.5149 13.0946 13.5149C13.8651 13.4857 13.9647 14.8819 12.8747 15.1464C12.3993 15.2618 11.7736 15.2617 11.1724 15.1983C10.4441 15.1214 9.76934 14.9541 9.44981 14.7878C9.37188 14.7491 9.28186 14.7425 9.19911 14.7694C9.11637 14.7964 9.04752 14.8548 9.00738 14.932C8.96724 15.0092 8.95902 15.0991 8.98449 15.1823C9.00996 15.2655 9.06708 15.3354 9.14357 15.3769C9.52588 15.5759 10.2955 15.772 11.105 15.8575C11.7704 15.9277 12.4747 15.9249 13.0304 15.79C13.4024 15.6997 13.6893 15.5251 13.8978 15.3103C14.1873 15.0122 14.2973 14.6998 14.3393 14.2977C15.8488 13.7211 17.9031 12.8192 18.9485 12.2887C19.5938 11.9613 20.401 11.9149 20.6819 12.7067Z" fill="#0D0D0D"/>
<path d="M10.2582 10.9562C8.92752 10.9697 7.62428 10.6276 6.45819 9.95443C4.77064 8.98019 3.52524 7.36962 3 5.49891C4.08279 5.22182 5.21495 5.18968 6.30592 5.40573C6.49054 6.11963 6.77091 6.80527 7.1394 7.44399C7.9088 8.77746 9.01422 9.84892 10.3567 10.5688C10.293 10.6786 10.2578 10.8007 10.2578 10.9358C10.2578 10.9416 10.2579 10.9475 10.2581 10.9533L10.2582 10.9562Z" fill="#0D0D0D"/>
<path d="M11.1524 10.0104C11.1019 10.0279 11.0519 10.047 11.0026 10.0676C9.64776 9.41598 8.53594 8.38419 7.77958 7.0743C6.80533 5.38675 6.53214 3.369 7.01279 1.48649C8.08889 1.78783 9.08485 2.32582 9.92186 3.0586C9.72641 3.76427 9.62442 4.49813 9.62442 5.24059C9.62442 6.95239 10.1634 8.62507 11.1524 10.0104Z" fill="#0D0D0D"/>
<path d="M13.041 9.83783C12.8602 9.81728 12.6757 9.80714 12.4936 9.80714C12.3115 9.80714 12.1271 9.81732 11.9463 9.83787C10.9245 8.53006 10.364 6.90584 10.364 5.24063C10.364 3.29197 11.1363 1.40809 12.4936 0.0180664C13.8511 1.40809 14.623 3.29193 14.623 5.24063C14.623 6.90575 14.0624 8.5299 13.041 9.83783Z" fill="#0D0D0D"/>
<path d="M13.9848 10.0676C13.9364 10.0473 13.8862 10.0282 13.8347 10.0103C14.8235 8.62486 15.3624 6.95234 15.3624 5.24059C15.3621 4.50326 15.2621 3.76936 15.065 3.05885C15.9018 2.32611 16.8985 1.78783 17.9747 1.48649C18.4549 3.36921 18.1817 5.38675 17.2075 7.0743C16.4512 8.38419 15.3394 9.41594 13.9848 10.0676Z" fill="#0D0D0D"/>
<path d="M14.7298 10.9358C14.7303 10.8067 14.6961 10.6799 14.6307 10.5685C15.9729 9.84867 17.0782 8.7773 17.8482 7.44399C18.2165 6.80524 18.4968 6.11963 18.6814 5.40577C19.7724 5.18963 20.9037 5.22177 21.9862 5.49887C21.4625 7.36958 20.2169 8.98023 18.5289 9.95447C17.3634 10.6276 16.0599 10.9697 14.7293 10.9562C14.7295 10.9494 14.7298 10.9427 14.7298 10.9358Z" fill="#0D0D0D"/>
<path d="M12.4937 11.3251C11.5916 11.3251 11.0823 11.0588 11.0027 10.9358C11.0822 10.8128 11.5914 10.5465 12.4937 10.5465C13.3959 10.5465 13.9047 10.8128 13.9846 10.9358C13.9047 11.0588 13.3957 11.3251 12.4937 11.3251Z" fill="#0D0D0D"/>
</svg>
