<svg width="125" height="125" viewBox="0 0 125 125" fill="none" xmlns="http://www.w3.org/2000/svg">
<path opacity="0.4" d="M98.9561 47.5292C96.9411 47.5292 95.3394 49.1309 95.3394 51.1459V59.3092C95.3394 77.5992 80.4594 92.4792 62.1694 92.4792C43.8794 92.4792 28.9994 77.5992 28.9994 59.3092V51.0942C28.9994 49.0792 27.3978 47.4776 25.3828 47.4776C23.3678 47.4776 21.7661 49.0792 21.7661 51.0942V59.2576C21.7661 80.2859 37.9378 97.5942 58.5528 99.4543V110.459C58.5528 112.474 60.1544 114.076 62.1694 114.076C64.1844 114.076 65.7861 112.474 65.7861 110.459V99.4543C86.3494 97.6459 102.573 80.2859 102.573 59.2576V51.0942C102.521 49.1309 100.919 47.5292 98.9561 47.5292Z" fill="#FEAA39"/>
<path d="M62.1677 10.7437C49.5611 10.7437 39.3311 20.9737 39.3311 33.5803V60.0337C39.3311 72.6403 49.5611 82.8703 62.1677 82.8703C74.7744 82.8703 85.0044 72.6403 85.0044 60.0337V33.5803C85.0044 20.9737 74.7744 10.7437 62.1677 10.7437ZM68.9361 46.652C68.5744 47.9953 67.3861 48.8737 66.0427 48.8737C65.7844 48.8737 65.5261 48.822 65.2677 48.7703C63.2527 48.202 61.1344 48.202 59.1194 48.7703C57.4661 49.2353 55.8644 48.2537 55.4511 46.652C54.9861 45.0503 55.9677 43.397 57.5694 42.9837C60.6177 42.157 63.8211 42.157 66.8694 42.9837C68.4194 43.397 69.3494 45.0503 68.9361 46.652ZM71.6744 36.6287C71.2094 37.8687 70.0727 38.592 68.8327 38.592C68.4711 38.592 68.1611 38.5403 67.7994 38.437C64.1827 37.0937 60.1527 37.0937 56.5361 38.437C54.9861 39.0053 53.2294 38.1787 52.6611 36.6287C52.0927 35.0787 52.9194 33.322 54.4694 32.8053C59.4294 30.997 64.9061 30.997 69.8661 32.8053C71.4161 33.3737 72.2427 35.0787 71.6744 36.6287Z" fill="#FEAA39"/>
</svg>
