<svg width="25" height="25" viewBox="0 0 25 25" fill="none" xmlns="http://www.w3.org/2000/svg">
<path opacity="0.4" d="M16.69 2.46484H8.31C4.67 2.46484 2.5 4.63484 2.5 8.27484V16.6448C2.5 20.2948 4.67 22.4648 8.31 22.4648H16.68C20.32 22.4648 22.49 20.2948 22.49 16.6548V8.27484C22.5 4.63484 20.33 2.46484 16.69 2.46484Z" fill="white"/>
<path d="M16.5 13.2148H8.5C8.09 13.2148 7.75 12.8748 7.75 12.4648C7.75 12.0548 8.09 11.7148 8.5 11.7148H16.5C16.91 11.7148 17.25 12.0548 17.25 12.4648C17.25 12.8748 16.91 13.2148 16.5 13.2148Z" fill="white"/>
</svg>
