<svg width="20" height="21" viewBox="0 0 20 21" fill="none" xmlns="http://www.w3.org/2000/svg">
<path opacity="0.4" d="M13.5333 1.70374H6.46665C4.16665 1.70374 3.33331 2.53707 3.33331 4.87873V15.1954C3.33331 17.5371 4.16665 18.3704 6.46665 18.3704H13.525C15.8333 18.3704 16.6666 17.5371 16.6666 15.1954V4.87873C16.6666 2.53707 15.8333 1.70374 13.5333 1.70374Z" fill="white"/>
<path d="M11.6666 5.24548H8.33331C7.99165 5.24548 7.70831 4.96215 7.70831 4.62048C7.70831 4.27882 7.99165 3.99548 8.33331 3.99548H11.6666C12.0083 3.99548 12.2916 4.27882 12.2916 4.62048C12.2916 4.96215 12.0083 5.24548 11.6666 5.24548Z" fill="white"/>
<path d="M10 16.1204C10.8054 16.1204 11.4584 15.4675 11.4584 14.6621C11.4584 13.8567 10.8054 13.2037 10 13.2037C9.19461 13.2037 8.54169 13.8567 8.54169 14.6621C8.54169 15.4675 9.19461 16.1204 10 16.1204Z" fill="white"/>
</svg>
