<svg width="20" height="21" viewBox="0 0 20 21" fill="none" xmlns="http://www.w3.org/2000/svg">
<path opacity="0.4" d="M18.3084 5.37874V10.7954H1.66669V5.37874C1.66669 3.35374 3.31669 1.70374 5.34169 1.70374H14.6334C16.6584 1.70374 18.3084 3.35374 18.3084 5.37874Z" fill="white"/>
<path d="M1.66669 10.8038V10.9705C1.66669 13.0038 3.31669 14.6455 5.34169 14.6455H8.54169C9.00002 14.6455 9.37502 15.0205 9.37502 15.4788V16.2872C9.37502 16.7455 9.00002 17.1205 8.54169 17.1205H6.52502C6.18335 17.1205 5.90002 17.4038 5.90002 17.7455C5.90002 18.0872 6.17502 18.3705 6.52502 18.3705H13.4834C13.825 18.3705 14.1084 18.0872 14.1084 17.7455C14.1084 17.4038 13.825 17.1205 13.4834 17.1205H11.4667C11.0084 17.1205 10.6334 16.7455 10.6334 16.2872V15.4788C10.6334 15.0205 11.0084 14.6455 11.4667 14.6455H14.6417C16.675 14.6455 18.3167 12.9955 18.3167 10.9705V10.8038H1.66669Z" fill="white"/>
</svg>
