<svg width="10" height="10" viewBox="0 0 10 10" fill="none" xmlns="http://www.w3.org/2000/svg">
<path d="M2.50008 9.1665C2.27091 9.1665 2.0748 9.08498 1.91175 8.92192C1.74869 8.75887 1.66703 8.56262 1.66675 8.33317V4.1665C1.66675 3.93734 1.74841 3.74123 1.91175 3.57817C2.07508 3.41512 2.27119 3.33345 2.50008 3.33317H2.91675V2.49984C2.91675 1.92345 3.11994 1.4322 3.52633 1.02609C3.93272 0.619976 4.42397 0.416782 5.00008 0.416504C5.57619 0.416226 6.06758 0.619421 6.47425 1.02609C6.88091 1.43275 7.08397 1.924 7.08341 2.49984V3.33317H7.50008C7.72925 3.33317 7.9255 3.41484 8.08883 3.57817C8.25216 3.7415 8.33369 3.93762 8.33341 4.1665V8.33317C8.33341 8.56234 8.25189 8.75859 8.08883 8.92192C7.92578 9.08525 7.72953 9.16678 7.50008 9.1665H2.50008ZM5.00008 7.08317C5.22925 7.08317 5.4255 7.00164 5.58883 6.83859C5.75216 6.67553 5.83369 6.47928 5.83341 6.24984C5.83314 6.02039 5.75161 5.82428 5.58883 5.6615C5.42605 5.49873 5.2298 5.41706 5.00008 5.4165C4.77036 5.41595 4.57425 5.49762 4.41175 5.6615C4.24925 5.82539 4.16758 6.0215 4.16675 6.24984C4.16591 6.47817 4.24758 6.67442 4.41175 6.83859C4.57591 7.00275 4.77203 7.08428 5.00008 7.08317ZM3.75008 3.33317H6.25008V2.49984C6.25008 2.15262 6.12855 1.85748 5.8855 1.61442C5.64244 1.37137 5.3473 1.24984 5.00008 1.24984C4.65286 1.24984 4.35772 1.37137 4.11466 1.61442C3.87161 1.85748 3.75008 2.15262 3.75008 2.49984V3.33317Z" fill="#FEAA39"/>
</svg>
