<svg width="23" height="22" viewBox="0 0 23 22" fill="none" xmlns="http://www.w3.org/2000/svg">
<path d="M15.5326 1.83313H7.85092C4.51425 1.83313 2.52509 3.8223 2.52509 7.15896V14.8315C2.52509 18.1773 4.51425 20.1665 7.85092 20.1665H15.5234C18.8601 20.1665 20.8493 18.1773 20.8493 14.8406V7.15896C20.8584 3.8223 18.8693 1.83313 15.5326 1.83313ZM16.0734 8.89146L10.8759 14.089C10.7476 14.2173 10.5734 14.2906 10.3901 14.2906C10.2068 14.2906 10.0326 14.2173 9.90425 14.089L7.31009 11.4948C7.04425 11.229 7.04425 10.789 7.31009 10.5231C7.57592 10.2573 8.01592 10.2573 8.28175 10.5231L10.3901 12.6315L15.1018 7.9198C15.3676 7.65396 15.8076 7.65396 16.0734 7.9198C16.3393 8.18563 16.3393 8.61646 16.0734 8.89146Z" fill="#FEAA39"/>
</svg>
