<svg width="36" height="37" viewBox="0 0 36 37" fill="none" xmlns="http://www.w3.org/2000/svg">
<path d="M26.7002 16.6836C27.1002 16.964 27.3961 17.3293 27.698 17.7091C27.899 17.9608 28.111 18.2027 28.3229 18.4452C28.632 18.7997 28.9333 19.1589 29.2292 19.5246C29.4294 19.7671 29.6354 20.0043 29.842 20.2413C30.0999 20.5371 30.3547 20.8343 30.6016 21.1394C30.8831 21.4871 31.175 21.8249 31.4687 22.1623C31.714 22.4443 31.9573 22.7276 32.1984 23.0132C32.229 23.0495 32.2597 23.0859 32.2913 23.1233C32.4164 23.2716 32.5413 23.42 32.6661 23.5686C32.9884 23.9524 33.3111 24.3348 33.6484 24.7057C33.9146 24.999 34.1673 25.3011 34.4152 25.6099C34.5208 25.7396 34.629 25.8671 34.7395 25.9926C35.1565 26.4726 35.4663 26.9553 35.4998 27.6071C35.4285 28.2391 35.2119 28.7082 34.7101 29.1182C34.2063 29.4373 33.7888 29.5128 33.1996 29.5028C33.1207 29.5029 33.0418 29.5029 32.9605 29.503C32.7019 29.5027 32.4434 29.5001 32.1849 29.4974C32.0047 29.4967 31.8246 29.4962 31.6444 29.4959C31.2202 29.4948 30.7959 29.492 30.3716 29.4885C29.8882 29.4846 29.4048 29.4827 28.9213 29.481C27.9278 29.4774 26.9342 29.4713 25.9407 29.4636C25.9413 29.5296 25.9419 29.5956 25.9425 29.6635C25.9482 30.2875 25.9523 30.9115 25.955 31.5355C25.9564 31.8562 25.9584 32.177 25.9615 32.4977C25.9645 32.8076 25.9662 33.1176 25.9669 33.4276C25.9674 33.5454 25.9684 33.6632 25.9699 33.781C25.9864 35.1359 25.9864 35.1359 25.5312 35.7111C25.4869 35.7468 25.4426 35.7824 25.3969 35.8191C25.3529 35.8561 25.309 35.8932 25.2637 35.9313C24.9069 36.1549 24.5526 36.1848 24.141 36.1834C24.0586 36.184 24.0586 36.184 23.9746 36.1845C23.7913 36.1855 23.6079 36.1856 23.4246 36.1856C23.2929 36.1862 23.1612 36.1868 23.0295 36.1874C22.6721 36.1889 22.3147 36.1895 21.9573 36.1899C21.7339 36.1901 21.5105 36.1905 21.2871 36.191C20.5074 36.1927 19.7276 36.1936 18.9479 36.1939C18.2216 36.1941 17.4954 36.1962 16.7691 36.1991C16.1451 36.2015 15.5211 36.2025 14.8971 36.2026C14.5246 36.2027 14.1521 36.2033 13.7797 36.2052C13.4292 36.207 13.0788 36.2072 12.7284 36.2061C12.6 36.2059 12.4717 36.2064 12.3433 36.2075C11.0332 36.2181 11.0332 36.2181 10.4855 35.6998C10.1292 35.335 9.96749 34.8838 9.96431 34.3765C9.96506 34.3288 9.9658 34.281 9.96657 34.2318C9.96654 34.1799 9.96651 34.1279 9.96648 34.0744C9.96662 33.9047 9.96823 33.735 9.96986 33.5653C9.97024 33.4468 9.97054 33.3284 9.97075 33.2099C9.97153 32.8996 9.97356 32.5894 9.97586 32.2791C9.97799 31.9619 9.97893 31.6447 9.97997 31.3275C9.98219 30.7062 9.98572 30.0849 9.99009 29.4636C9.92912 29.4641 9.92912 29.4641 9.86692 29.4646C8.87556 29.4722 7.8842 29.4779 6.89281 29.4815C6.41337 29.4833 5.93395 29.4857 5.45452 29.4897C4.99158 29.4935 4.52867 29.4955 4.06571 29.4964C3.88935 29.497 3.713 29.4983 3.53666 29.5001C3.28906 29.5027 3.04154 29.503 2.79393 29.5028C2.72151 29.5041 2.6491 29.5053 2.57449 29.5066C1.95573 29.5023 1.49124 29.3047 1.02219 28.9023C0.695353 28.5475 0.523005 28.0702 0.5 27.5898C0.566776 26.9981 0.772004 26.5989 1.15166 26.1477C1.20667 26.0817 1.26168 26.0156 1.31835 25.9475C1.51432 25.7135 1.71263 25.4815 1.91121 25.2497C1.97928 25.1701 2.04734 25.0905 2.1154 25.0109C2.28845 24.8086 2.46176 24.6066 2.63513 24.4046C2.80825 24.2028 2.98117 24.0009 3.15412 23.799C3.36198 23.5563 3.56989 23.3137 3.778 23.0712C4.6365 22.0723 4.6365 22.0723 5.47593 21.0573C5.72302 20.7534 5.98161 20.4627 6.24519 20.173C6.39957 19.9994 6.54681 19.8218 6.69294 19.6412C6.97991 19.2866 7.27691 18.9418 7.57636 18.5978C8.18096 17.9041 8.18096 17.9041 8.76691 17.1947C9.08803 16.7971 9.37692 16.5819 9.8911 16.512C10.5387 16.4885 11.0269 16.5785 11.5132 17.0199C11.9582 17.4956 12.1047 17.964 12.0992 18.6141C12.0807 19.085 11.94 19.365 11.6473 19.7232C11.6195 19.7574 11.5917 19.7917 11.5631 19.827C11.3735 20.0593 11.1783 20.2864 10.9814 20.5125C10.8447 20.6713 10.713 20.834 10.5813 20.9969C10.2432 21.4122 9.89437 21.818 9.5449 22.2237C9.36935 22.4277 9.19418 22.6319 9.01907 22.8362C8.98473 22.8762 8.95039 22.9163 8.915 22.9575C8.65401 23.2623 8.39469 23.5684 8.136 23.8751C7.90109 24.1533 7.66406 24.4296 7.4266 24.7057C7.17931 24.9932 6.93589 25.283 6.69726 25.5778C6.50387 25.8164 6.30511 26.0467 6.09738 26.2729C5.8106 26.5869 5.5509 26.9174 5.29245 27.2546C5.1191 27.4785 4.94372 27.6792 4.73364 27.8704C4.56768 28.0258 4.50403 28.1278 4.47039 28.354C4.46896 28.4238 4.46754 28.4936 4.46607 28.5656C4.55722 28.5884 4.64836 28.6112 4.74227 28.6347C5.06002 28.2882 5.37107 27.9389 5.66582 27.5725C5.9196 27.2585 6.18626 26.9612 6.46135 26.666C6.73497 26.3706 6.98738 26.062 7.23671 25.7457C7.37505 25.5848 7.48713 25.4681 7.7045 25.4399C7.75421 25.4401 7.80392 25.4402 7.85514 25.4403C7.91236 25.4401 7.96958 25.4399 8.02854 25.4397C8.09107 25.4402 8.1536 25.4407 8.21803 25.4412C8.28406 25.4412 8.35009 25.4412 8.41813 25.4412C8.6367 25.4413 8.85525 25.4424 9.07382 25.4434C9.22524 25.4437 9.37666 25.4439 9.52808 25.444C9.92687 25.4446 10.3257 25.4459 10.7244 25.4474C11.1313 25.4489 11.5381 25.4495 11.9449 25.4502C12.7434 25.4517 13.5418 25.454 14.3402 25.4569C14.3457 25.561 14.3457 25.561 14.3513 25.6672C14.3566 25.7601 14.3621 25.853 14.3675 25.9459C14.3751 26.082 14.3751 26.082 14.3828 26.2209C14.4824 27.2444 14.9653 28.162 15.7478 28.8263C16.5805 29.4582 17.5354 29.6238 18.5523 29.5327C19.5742 29.3355 20.4401 28.7909 21.0295 27.9266C21.384 27.324 21.5237 26.7017 21.5978 26.0144C21.6039 25.9606 21.6099 25.9067 21.6162 25.8512C21.6309 25.7198 21.6453 25.5884 21.6596 25.4569C22.5401 25.4393 23.4206 25.4258 24.3013 25.4176C24.7103 25.4136 25.1191 25.4082 25.528 25.3996C25.9229 25.3913 26.3177 25.3868 26.7127 25.3848C26.8631 25.3834 27.0135 25.3807 27.1638 25.3766C28.4057 25.344 28.4057 25.344 28.7221 25.6226C28.8795 25.8138 28.9983 26.0002 29.117 26.2168C29.1877 26.3005 29.2604 26.3825 29.3371 26.4608C29.3693 26.4949 29.4015 26.5291 29.4346 26.5643C29.4665 26.5978 29.4984 26.6313 29.5313 26.6658C29.8953 27.0546 30.2343 27.4589 30.567 27.8748C30.6832 28.0175 30.7999 28.1598 30.9166 28.3022C31.0072 28.413 31.0979 28.5238 31.1885 28.6347C31.2796 28.6119 31.3708 28.5891 31.4647 28.5656C31.5232 28.445 31.5232 28.445 31.5337 28.2892C31.4334 28.1205 31.4334 28.1205 31.2791 27.9525C31.2216 27.8854 31.1641 27.8184 31.1049 27.7493C31.0736 27.7136 31.0423 27.6778 31.01 27.641C30.9108 27.5277 30.813 27.4133 30.7154 27.2986C30.5057 27.0524 30.2948 26.8072 30.0837 26.5622C29.2948 25.6467 29.2948 25.6467 28.9487 25.2195C28.7002 24.9131 28.4439 24.6144 28.1848 24.3171C27.8743 23.9607 27.571 23.5999 27.2734 23.2326C27.0539 22.9652 26.8284 22.7031 26.6028 22.4409C26.3328 22.1272 26.0657 21.8111 25.7995 21.4941C25.5481 21.1962 25.2869 20.908 25.0209 20.6229C24.9049 20.4831 24.9049 20.4831 24.8359 20.2759C24.7548 20.1971 24.6737 20.1184 24.592 20.0403C24.389 19.8204 24.2317 19.5636 24.0763 19.3087C24.0502 19.2685 24.024 19.2282 23.997 19.1867C23.8303 18.7491 23.8667 18.1102 23.9938 17.6621C24.2373 17.1833 24.6835 16.7593 25.1768 16.5455C25.6882 16.3888 26.2326 16.4189 26.7002 16.6836Z" fill="#FEAA39"/>
<path d="M22.3742 5.43748C23.6615 6.53274 24.7352 8.07519 24.9666 9.78576C24.976 9.9258 24.9818 10.0661 24.984 10.2065C24.9867 10.3107 24.9867 10.3107 24.9894 10.4171C24.9626 10.6546 24.8838 10.7626 24.7584 10.9655C24.6676 11.1968 24.5898 11.4324 24.5112 11.6681C24.4695 11.7928 24.4275 11.9173 24.3851 12.0417C24.3668 12.0965 24.3485 12.1514 24.3297 12.2079C24.2726 12.3534 24.2726 12.3534 24.1339 12.5616C23.0736 12.4694 22.1695 11.8245 21.4273 11.1043C21.3847 11.0668 21.3421 11.0293 21.2983 10.9907C20.4567 10.2244 19.9751 9.05807 19.6923 7.98144C19.6587 8.03851 19.6251 8.09558 19.5904 8.15439C18.9268 9.25953 18.0965 10.2842 16.9858 10.9655C16.9173 11.0101 16.8487 11.0548 16.7781 11.1008C15.5544 11.8566 14.2126 12.1497 12.7872 12.1626C12.7216 12.1633 12.656 12.1639 12.5885 12.1646C12.251 12.163 11.9513 12.1581 11.6421 12.0065C11.5522 11.8162 11.4926 11.651 11.4339 11.4513C11.3871 11.3165 11.3393 11.1821 11.2907 11.0479C11.2685 10.9845 11.2462 10.9211 11.2232 10.8557C11.1575 10.6742 11.1575 10.6742 11.0175 10.4797C10.9234 8.92147 11.7929 7.35877 12.7872 6.22049C13.8195 5.13051 14.9754 4.41613 16.4306 4.02582C16.4894 4.00999 16.5481 3.99415 16.6087 3.97784C18.583 3.53602 20.8234 4.17216 22.3742 5.43748Z" fill="#FEAA39"/>
<path d="M14.1001 2.13702C14.6189 2.57926 15.0724 3.04155 15.4248 3.63171C15.2121 3.86479 14.9594 3.96613 14.6755 4.09067C14.2647 4.27348 13.9238 4.47654 13.5731 4.75746C13.2133 5.02313 13.2133 5.02313 12.9396 4.99722C12.7466 4.92529 12.5749 4.83673 12.3932 4.74014C11.6195 4.53671 10.8925 4.68953 10.194 5.05243C9.27536 5.60028 8.78198 6.39544 8.51755 7.42461C8.33797 8.15638 8.2682 8.91349 8.21746 9.6642C8.14254 10.7598 8.03558 11.7666 7.57017 12.7762C7.54138 12.8414 7.54138 12.8414 7.512 12.9079C7.02365 13.9949 6.20534 14.7396 5.12043 15.1912C4.46923 15.408 3.87291 15.5128 3.18637 15.504C3.10915 15.5036 3.03193 15.5032 2.95238 15.5028C2.2951 15.4926 1.66608 15.4102 1.02461 15.2702C0.989682 15.1274 0.955346 14.9845 0.921257 14.8416C0.902073 14.762 0.882888 14.6824 0.863122 14.6004C0.823766 14.3995 0.808754 14.2268 0.817906 14.0232C0.911831 13.9954 0.911831 13.9954 1.00765 13.9669C2.47816 13.5059 3.66111 12.7414 4.45699 11.3853C5.03137 10.2795 5.17651 9.17137 5.262 7.94852C5.41502 5.78288 5.74676 3.87132 7.37639 2.30246C9.29301 0.666953 12.1075 0.527061 14.1001 2.13702Z" fill="#FEAA39"/>
<path d="M15.3901 23.6131C15.575 23.6141 15.7521 23.6232 15.9359 23.6385C16.5908 23.6837 17.2422 23.6928 17.8984 23.6912C18.083 23.6908 18.2676 23.6912 18.4521 23.6916C18.5716 23.6916 18.691 23.6915 18.8105 23.6913C18.8646 23.6915 18.9188 23.6916 18.9746 23.6918C19.3182 23.6903 19.6473 23.66 19.9876 23.6131C20.1007 23.6061 20.214 23.6011 20.3272 23.6001C20.3788 23.5992 20.4303 23.5982 20.4834 23.5972C20.6146 23.6131 20.6146 23.6131 20.7539 23.7513C20.7696 23.9456 20.7768 24.1329 20.7773 24.3274C20.778 24.4141 20.778 24.4141 20.7787 24.5025C20.7794 24.6254 20.7797 24.7482 20.7797 24.871C20.78 25.0566 20.7825 25.2421 20.7852 25.4277C20.7918 26.4158 20.6328 27.2177 19.9286 27.9633C19.351 28.4996 18.5966 28.7677 17.8072 28.7461C17.0589 28.6623 16.3902 28.3101 15.8886 27.7536C15.3048 26.9502 15.1979 26.1528 15.2169 25.1946C15.2203 25.0139 15.2211 24.8334 15.2215 24.6527C15.2225 24.5376 15.2236 24.4225 15.2249 24.3074C15.2253 24.2535 15.2257 24.1996 15.2261 24.1441C15.2345 23.7674 15.2345 23.7674 15.3901 23.6131Z" fill="#FEAA39"/>
<path d="M19.439 18.5117C19.6707 18.6697 19.8048 18.8088 19.93 19.0609C19.9659 19.0946 20.0017 19.1283 20.0386 19.163C20.1682 19.2955 20.2135 19.4351 20.2776 19.6058C20.3006 19.6283 20.3235 19.6507 20.3472 19.6739C20.3551 19.844 20.3586 20.0122 20.3589 20.1823C20.3592 20.2588 20.3592 20.2588 20.3596 20.3368C20.3599 20.4449 20.3601 20.5529 20.3601 20.661C20.3602 20.8266 20.3615 20.9922 20.3628 21.1579C20.363 21.2627 20.3631 21.3674 20.3632 21.4722C20.3637 21.522 20.3642 21.5717 20.3647 21.623C20.3631 21.9741 20.3631 21.9741 20.2081 22.126C19.7978 22.116 19.4677 21.9063 19.1174 21.7173C18.9998 21.6547 18.8822 21.5923 18.7646 21.53C18.713 21.5022 18.6614 21.4745 18.6082 21.4459C18.3113 21.2974 18.0322 21.2625 17.7051 21.3086C17.4438 21.3992 17.2001 21.5178 16.9533 21.6407C16.8879 21.672 16.8225 21.7033 16.7551 21.7356C16.5057 21.8562 16.2681 21.9746 16.0364 22.126C15.7207 22.0891 15.7207 22.0891 15.6192 21.9897C15.4672 19.6378 15.4672 19.6378 15.9581 19.0609C16.0301 18.9923 16.1025 18.9241 16.1754 18.8565C16.217 18.7975 16.2586 18.7385 16.3014 18.6777C17.1617 17.7628 18.4589 17.9124 19.439 18.5117Z" fill="#FEAA39"/>
<path d="M10.2849 10.5909C10.6706 10.7679 10.8061 11.0336 10.9622 11.4148C11.084 11.7711 11.1928 12.131 11.3009 12.4918C11.3299 12.5876 11.359 12.6834 11.3882 12.7792C11.4591 13.0127 11.5296 13.2464 11.5999 13.4801C11.6604 13.6811 11.7214 13.8819 11.7824 14.0827C11.8041 14.1542 11.8258 14.2258 11.8481 14.2996C11.8883 14.4316 11.9288 14.5636 11.9696 14.6954C12.426 16.1763 12.426 16.1763 12.3168 16.7699C12.2721 16.8379 12.2274 16.9058 12.1814 16.9759C12.1506 16.9291 12.1199 16.8824 12.0882 16.8343C11.512 16.1806 10.8432 15.9751 10.0139 15.8774C9.75747 14.8568 9.55327 13.8282 9.35854 12.7941C9.34859 12.7414 9.33865 12.6886 9.32841 12.6343C9.30966 12.5346 9.291 12.4348 9.27244 12.3351C9.23937 12.1586 9.20597 11.9832 9.16217 11.8091C9.09533 11.531 9.09982 11.2858 9.21383 11.0243C9.52566 10.621 9.7883 10.5055 10.2849 10.5909Z" fill="#FEAA39"/>
<path d="M26.5276 10.6713C26.7005 10.8203 26.787 10.9264 26.8759 11.1391C26.9019 11.5886 26.8282 11.9933 26.7344 12.4317C26.7198 12.502 26.7052 12.5722 26.6901 12.6446C26.6435 12.8682 26.5962 13.0916 26.5488 13.315C26.5177 13.4637 26.4867 13.6125 26.4557 13.7612C26.3081 14.4681 26.1581 15.1743 25.9923 15.8772C25.9315 15.8842 25.8706 15.8912 25.8079 15.8984C24.9301 16.0045 24.3558 16.3397 23.7494 16.9759C23.4919 16.3092 23.6739 15.8253 23.8853 15.169C23.9133 15.0805 23.9412 14.992 23.969 14.9034C24.0262 14.7217 24.0836 14.5402 24.1412 14.3586C24.2443 14.0322 24.3432 13.7045 24.442 13.3767C24.5497 13.0195 24.6591 12.6629 24.7689 12.3064C24.7883 12.2432 24.8076 12.18 24.8276 12.1148C24.8808 11.9424 24.9351 11.7703 24.9898 11.5983C25.0049 11.5491 25.02 11.4998 25.0355 11.4491C25.1463 11.107 25.2792 10.8392 25.5826 10.6383C25.8973 10.5274 26.2222 10.5438 26.5276 10.6713Z" fill="#FEAA39"/>
<path d="M34.4896 5.83447C34.6541 5.99597 34.6677 6.08579 34.7174 6.30629C34.7326 6.37274 34.7477 6.43919 34.7634 6.50766C34.7787 6.57727 34.7941 6.64688 34.8099 6.71859C34.8258 6.7882 34.8417 6.85781 34.858 6.92953C34.9744 7.44494 34.9744 7.44494 34.9744 7.60271C34.0344 7.72036 33.0927 7.80045 32.1483 7.87475C31.1272 7.95551 30.1074 8.04254 29.0885 8.14679C29.3171 7.96023 29.5634 7.84767 29.8351 7.73554C29.8817 7.71594 29.9284 7.69633 29.9765 7.67613C30.1305 7.61161 30.2846 7.54764 30.4388 7.4837C30.5462 7.43886 30.6536 7.39399 30.7609 7.34911C31.564 7.01399 32.3687 6.68297 33.174 6.35304C33.2284 6.33072 33.2829 6.3084 33.339 6.28541C33.4931 6.22231 33.6473 6.15933 33.8015 6.09641C33.8473 6.07769 33.893 6.05896 33.9402 6.03967C34.1221 5.9656 34.3027 5.89567 34.4896 5.83447Z" fill="#FEAA39"/>
<path d="M30.4295 0.789551C30.8488 1.13419 31.2301 1.51002 31.611 1.89592C31.3799 2.44545 30.7965 2.85456 30.3505 3.23432C30.2206 3.34831 30.099 3.46718 29.9777 3.59005C29.8171 3.75267 29.6526 3.9047 29.4781 4.05248C29.2269 4.26744 28.994 4.49668 28.7614 4.731C28.4486 5.04559 28.1288 5.34487 27.7883 5.62993C27.6956 5.70911 27.6029 5.78834 27.5103 5.86762C27.4071 5.95533 27.4071 5.95533 27.3018 6.04481C27.3962 5.79288 27.5104 5.5703 27.6506 5.34064C27.6926 5.27157 27.7345 5.20251 27.7778 5.13135C27.8228 5.05771 27.8679 4.98407 27.9143 4.90819C28.0093 4.75173 28.1044 4.59525 28.1993 4.43874C28.2233 4.39928 28.2473 4.35981 28.272 4.31916C28.5 3.94369 28.7244 3.56615 28.9481 3.18813C29.2467 2.68463 29.546 2.18164 29.8474 1.67983C29.8992 1.59315 29.8992 1.59315 29.9521 1.50472C29.9844 1.45109 30.0166 1.39745 30.0499 1.3422C30.0921 1.27198 30.0921 1.27198 30.1351 1.20035C30.2264 1.05762 30.3258 0.923639 30.4295 0.789551Z" fill="#FEAA39"/>
<path d="M29.0885 10.5645C29.7059 10.7004 30.3209 10.8415 30.9325 11.0024C31.741 11.2142 32.5585 11.3863 33.3752 11.5618C33.4566 11.5794 33.4566 11.5794 33.5397 11.5974C33.642 11.6196 33.7444 11.6415 33.8468 11.6633C34.1248 11.7236 34.3913 11.7988 34.659 11.8958C34.6184 12.2342 34.52 12.5091 34.384 12.8198C34.2355 13.1591 34.2355 13.1591 34.1089 13.5074C33.8816 13.4617 33.7122 13.3756 33.5136 13.2553C33.4499 13.217 33.3862 13.1788 33.3206 13.1393C33.2516 13.0975 33.1827 13.0556 33.1117 13.0125C32.9626 12.9229 32.8135 12.8334 32.6644 12.744C32.6255 12.7207 32.5866 12.6973 32.5466 12.6733C32.1379 12.4283 31.726 12.1889 31.3139 11.9499C30.7255 11.6087 30.1374 11.2669 29.5527 10.9192C29.5044 10.8907 29.456 10.8621 29.4062 10.8328C29.2991 10.7687 29.1936 10.702 29.0885 10.6345C29.0885 10.6114 29.0885 10.5883 29.0885 10.5645Z" fill="#FEAA39"/>
<path d="M22.1559 13.1385C22.1899 13.3763 22.1899 13.3763 22.2245 13.6188C21.8287 13.9025 21.4006 14.0923 20.9583 14.2926C20.9016 14.3188 20.8448 14.345 20.7864 14.3719C20.7347 14.3953 20.6831 14.4188 20.6299 14.4429C20.4969 14.5026 20.4969 14.5026 20.4403 14.648C20.5204 14.6714 20.5204 14.6714 20.6022 14.6952C20.9334 14.8146 21.2414 14.9699 21.5554 15.1283C21.6491 15.1747 21.6491 15.1747 21.7447 15.2221C21.8043 15.252 21.8639 15.2819 21.9254 15.3127C21.9795 15.3398 22.0337 15.367 22.0895 15.395C22.2245 15.4714 22.2245 15.4714 22.3618 15.6086C22.336 15.8573 22.336 15.8573 22.2931 16.0889C21.8392 16.2064 21.5767 16.0858 21.1678 15.8785C21.1077 15.8489 21.0476 15.8193 20.9857 15.7888C20.8594 15.7262 20.7333 15.6629 20.6075 15.599C20.4147 15.5014 20.2205 15.4069 20.0261 15.3126C19.9034 15.2512 19.7807 15.1897 19.6581 15.128C19.5999 15.0999 19.5417 15.0718 19.4818 15.0428C19.3318 14.9652 19.1979 14.8929 19.0678 14.7852C18.9966 14.558 18.9966 14.558 18.9992 14.3736C19.3043 14.219 19.6102 14.0663 19.9168 13.9146C20.0435 13.8514 20.17 13.7876 20.2963 13.7235C20.5053 13.6174 20.715 13.513 20.9249 13.4087C20.9918 13.3743 21.0587 13.3399 21.1276 13.3045C21.5067 13.1183 21.743 13.02 22.1559 13.1385Z" fill="#FEAA39"/>
<path d="M14.1375 12.9819C14.4376 13.0137 14.6577 13.1227 14.9249 13.2593C14.977 13.2852 15.029 13.311 15.0826 13.3376C15.2481 13.42 15.4129 13.5035 15.5778 13.587C15.6894 13.6427 15.8011 13.6983 15.9128 13.7538C16.7193 14.1566 16.7193 14.1566 16.9663 14.3236C17.0133 14.4839 17.0133 14.4839 16.9663 14.6702C16.4981 15.0068 15.9744 15.2566 15.4624 15.5169C15.3122 15.5935 15.1626 15.6711 15.0129 15.7487C14.9169 15.7977 14.8208 15.8467 14.7247 15.8956C14.6581 15.9304 14.6581 15.9304 14.5902 15.9658C14.348 16.0874 14.1615 16.1619 13.8902 16.1261C13.727 16.0176 13.6924 15.9433 13.6382 15.7534C13.7053 15.4936 13.8489 15.4521 14.0689 15.3188C14.3478 15.1581 14.6309 15.0062 14.9156 14.8565C14.9751 14.825 15.0345 14.7935 15.0958 14.7611C15.2407 14.6844 15.3857 14.6079 15.5308 14.5316C15.3463 14.3832 15.1681 14.2725 14.9538 14.1741C14.897 14.1476 14.8402 14.121 14.7817 14.0937C14.6628 14.0389 14.5439 13.9842 14.4249 13.9296C14.3682 13.903 14.3115 13.8765 14.2531 13.8491C14.2015 13.8254 14.1499 13.8017 14.0968 13.7772C13.9529 13.6964 13.8562 13.6219 13.7535 13.4917C13.7747 13.1982 13.8275 13.0243 14.1375 12.9819Z" fill="#FEAA39"/>
</svg>
