<svg width="27" height="44" viewBox="0 0 27 44" fill="none" xmlns="http://www.w3.org/2000/svg">
<path d="M25.1013 21.7034C15.4599 25.0569 8.33371 37.7499 2.9681 40.8687C1.82884 41.5061 0.549021 41.8506 -0.756288 41.8711C-2.0616 41.8915 -3.35155 41.5874 -4.51025 40.9861C-1.39738 38.8248 1.14598 35.9421 2.9025 32.5842C4.65902 29.2262 5.57657 25.493 5.57657 21.7034C5.57657 17.9138 4.65902 14.1806 2.9025 10.8226C1.14598 7.46473 -1.39738 4.58198 -4.51025 2.42074C-3.35123 1.81051 -2.05738 1.50144 -0.747692 1.52195C0.561996 1.54246 1.84554 1.89191 2.98488 2.53812C8.28342 5.64012 15.4599 18.417 25.1013 21.7034Z" stroke="#9C24FF" stroke-width="2.29715" stroke-linecap="round" stroke-linejoin="round"/>
</svg>
