<svg width="14" height="22" viewBox="0 0 14 22" fill="none" xmlns="http://www.w3.org/2000/svg">
<path d="M5.66671 11.8931H2.38137C2.70537 14.0341 4.65293 15.6847 7.00004 15.6847C9.34715 15.6847 11.2947 14.0341 11.6187 11.8931H8.33337V10.6292H10.7188C11.2423 10.6292 11.6667 10.2048 11.6667 9.68126C11.6667 9.15774 11.2423 8.73334 10.7188 8.73334H8.33337V7.46946H10.7188C11.2423 7.46946 11.6667 7.04506 11.6667 6.52154C11.6667 5.99802 11.2423 5.57362 10.7188 5.57362H8.33337V4.30973H11.6187C11.2947 2.16871 9.34715 0.518066 7.00004 0.518066C4.65293 0.518066 2.70537 2.16871 2.38137 4.30973H5.66671V5.57362H3.28129C2.75777 5.57362 2.33337 5.99802 2.33337 6.52154C2.33337 7.04506 2.75777 7.46946 3.28129 7.46946H5.66671V8.73334H3.28129C2.75777 8.73334 2.33337 9.15774 2.33337 9.68126C2.33337 10.2048 2.75777 10.6292 3.28129 10.6292H5.66671V11.8931Z" fill="#0D0D0D"/>
<path opacity="0.4" d="M7.63636 17.7319C10.9817 17.44 13.6552 14.8719 13.9692 11.6536C14.0033 11.3038 13.7151 11.0181 13.3636 11.0181C13.0122 11.0181 12.7313 11.3043 12.6896 11.6532C12.3614 14.3988 9.93252 16.5336 7 16.5336C4.06496 16.5336 1.63853 14.3965 1.31047 11.6532C1.26873 11.3043 0.987818 11.0181 0.636364 11.0181C0.28491 11.0181 -0.00327445 11.3038 0.0308462 11.6536C0.344784 14.8719 3.01833 17.44 6.36364 17.7319V20.2924H2.52193C2.18347 20.2924 1.90909 20.5668 1.90909 20.9052C1.90909 21.2437 2.18347 21.5181 2.52193 21.5181H11.4781C11.8165 21.5181 12.0909 21.2437 12.0909 20.9052C12.0909 20.5668 11.8165 20.2924 11.4781 20.2924H7.63636V17.7319Z" fill="#0D0D0D"/>
</svg>
