<svg width="34" height="73" viewBox="0 0 34 73" fill="none" xmlns="http://www.w3.org/2000/svg">
<path d="M46.2187 14.2685H46.1181C40.208 11.8495 33.584 11.8495 27.6738 14.2685H27.5732C27.5732 14.0505 27.5733 13.866 27.6906 13.648C27.808 13.4301 27.808 13.2792 27.875 13.0947C28.8643 10.2945 31.8154 7.37701 34.0791 5.14693C35.074 4.16513 36.0143 3.12957 36.896 2.04492C37.7776 3.12957 38.718 4.16513 39.7129 5.14693C42.1274 7.51115 45.33 10.6802 46.1013 13.648C46.1013 13.866 46.1014 14.0505 46.2187 14.2685Z" stroke="#DE5500" stroke-width="2.29715" stroke-linecap="round" stroke-linejoin="round"/>
<path d="M46.2185 59.1382C46.2254 59.177 46.2254 59.2167 46.2185 59.2556C46.2185 59.44 46.2185 59.658 46.1011 59.8424C45.3298 62.8103 42.1272 65.9961 39.7127 68.3603C38.7133 69.3378 37.7727 70.3736 36.8958 71.4623C36.0189 70.3736 35.0782 69.3378 34.0789 68.3603C31.8152 66.1302 28.8641 63.2127 27.8748 60.4125C27.8748 60.2281 27.7407 60.0269 27.6904 59.8424C27.6401 59.658 27.6904 59.44 27.573 59.2556C27.5661 59.2167 27.5661 59.177 27.573 59.1382H27.6904C33.5988 61.5662 40.2263 61.5662 46.1347 59.1382H46.2185Z" stroke="#DE5500" stroke-width="2.29715" stroke-linecap="round" stroke-linejoin="round"/>
<path d="M14.3934 45.9591V46.0597H14.2928C14.0831 46.0384 13.8755 45.9991 13.6724 45.9423C10.7046 45.171 7.53551 41.9684 5.17129 39.5707C4.19443 38.5706 3.15862 37.63 2.06934 36.7537C3.15862 35.8775 4.19443 34.9368 5.17129 33.9368C7.40137 31.6732 10.319 28.7221 13.1192 27.7328C13.2986 27.6616 13.4837 27.6055 13.6724 27.5651C13.8735 27.5003 14.0819 27.4608 14.2928 27.4478H14.3934C14.3871 27.481 14.3871 27.5151 14.3934 27.5484C11.9709 33.4578 11.9709 40.0832 14.3934 45.9926V45.9591Z" stroke="#DE5500" stroke-width="2.29715" stroke-linecap="round" stroke-linejoin="round"/>
<path d="M27.6234 59.1717L27.5228 59.2555C27.3617 59.3769 27.1938 59.4888 27.0198 59.5908C24.3873 61.1502 19.8768 61.1167 16.4897 61.0999C15.09 61.078 13.6902 61.1396 12.2979 61.2844C12.4524 59.8926 12.5197 58.4926 12.4992 57.0925C12.4992 53.9234 12.4991 49.7651 13.7232 47.032L13.9914 46.5289C14.099 46.3453 14.2225 46.1713 14.3603 46.0091C14.3603 46.0091 14.3603 46.0091 14.3603 45.9253V46.0259C16.815 51.9402 21.511 56.6424 27.4222 59.1046L27.6234 59.1717Z" stroke="#DE5500" stroke-width="2.29715" stroke-linecap="round" stroke-linejoin="round"/>
<path d="M27.6067 14.235H27.5061C21.5969 16.7088 16.9029 21.4149 14.4442 27.3304C14.4379 27.3636 14.4379 27.3978 14.4442 27.431C14.4363 27.4036 14.4363 27.3745 14.4442 27.3471C14.301 27.1892 14.1772 27.0147 14.0754 26.8274C12.516 24.1949 12.5495 19.6844 12.583 16.2974C12.6024 14.8972 12.5352 13.4973 12.3818 12.1055C13.7749 12.241 15.1741 12.3026 16.5737 12.2899C19.7428 12.2899 23.9179 12.2899 26.6342 13.5139L27.154 13.7822C27.3285 13.8956 27.4964 14.0188 27.657 14.1511L27.6067 14.235Z" stroke="#DE5500" stroke-width="2.29715" stroke-linecap="round" stroke-linejoin="round"/>
<path d="M46.0945 59.2342C58.5103 54.1446 64.4493 39.9538 59.3598 27.5381C54.2702 15.1224 40.0795 9.18336 27.6637 14.2729C15.248 19.3624 9.30897 33.5532 14.3985 45.9689C19.488 58.3846 33.6788 64.3237 46.0945 59.2342Z" stroke="#DE5500" stroke-width="2.29715" stroke-linecap="round" stroke-linejoin="round"/>
</svg>
