<svg width="49" height="51" viewBox="0 0 49 51" fill="none" xmlns="http://www.w3.org/2000/svg">
<g clip-path="url(#clip0_715_678)">
<path d="M24.4999 15.8257C15.8835 15.8257 8.89819 22.8637 8.89819 31.5451C8.89819 40.2265 15.8835 47.2645 24.4999 47.2645C33.1164 47.2645 40.1017 40.2265 40.1017 31.5451C40.1017 22.8637 33.1164 15.8257 24.4999 15.8257ZM33.4114 25.1908C34.0403 25.3694 34.4068 26.0271 34.2312 26.6609C33.7114 28.526 32 29.8295 30.0722 29.8295C28.1426 29.8295 26.4415 28.526 25.9216 26.6609C25.7443 26.0272 26.1125 25.3694 26.7415 25.1908C26.8489 25.1599 26.9563 25.1461 27.062 25.1461C27.5801 25.1461 28.054 25.4896 28.2006 26.0169C28.4341 26.8584 29.2046 27.4457 30.0722 27.4457C30.9449 27.4457 31.7188 26.8584 31.9523 26.0169C32.1296 25.3831 32.784 25.0139 33.4114 25.1908ZM31.2449 36.2833C29.9972 38.856 27.3483 40.5167 24.5 40.5167C21.6517 40.5167 19.0027 38.856 17.7552 36.2833C17.4756 35.7079 17.7125 35.0141 18.2835 34.7325C18.8529 34.4508 19.5449 34.6895 19.8227 35.2649C20.6869 37.0458 22.5227 38.1965 24.4984 38.1965C26.5046 38.1965 28.2961 37.0733 29.1757 35.2649C29.4553 34.6895 30.1439 34.4508 30.7166 34.7325C31.2877 35.0141 31.5245 35.708 31.2449 36.2833ZM15.5886 25.1908C15.696 25.1599 15.8034 25.1461 15.9091 25.1461C16.4272 25.1461 16.9011 25.4896 17.0477 26.0169C17.2812 26.8584 18.0551 27.4457 18.9278 27.4457C19.7954 27.4457 20.5642 26.8584 20.7994 26.0169C20.975 25.3831 21.6278 25.007 22.2585 25.1908C22.8875 25.3677 23.2557 26.0272 23.0784 26.6609C22.5585 28.526 20.8523 29.8295 18.9279 29.8295C17.0034 29.8295 15.2869 28.526 14.7688 26.6609C14.5915 26.0272 14.9596 25.3677 15.5886 25.1908Z" fill="#FEAA39"/>
<path d="M10.2806 18.5238C9.94823 18.5238 9.61756 18.3967 9.36356 18.1408L6.21698 14.9705C5.71071 14.4604 5.71071 13.6343 6.21698 13.1243C6.72325 12.6142 7.54314 12.6142 8.04936 13.1243L11.1959 16.2946C11.7022 16.8047 11.7022 17.6307 11.1959 18.1408C10.9437 18.3949 10.6113 18.5238 10.2789 18.5238H10.2806Z" fill="#FEAA39"/>
<path d="M16.8057 14.133C16.2977 14.133 15.8153 13.829 15.6074 13.3258L13.9045 9.1834C13.6301 8.51706 13.9454 7.75281 14.6051 7.47803C15.2665 7.20152 16.025 7.51753 16.2994 8.18389L18.0023 12.3263C18.2767 12.9926 17.9613 13.7569 17.3017 14.0317C17.1397 14.0986 16.971 14.1313 16.8057 14.1313V14.133Z" fill="#FEAA39"/>
<path d="M24.4999 12.5906C23.784 12.5906 23.2045 12.0067 23.2045 11.2854V6.80134C23.2045 6.08004 23.784 5.49609 24.4999 5.49609C25.2159 5.49609 25.7954 6.08 25.7954 6.80134V11.2836C25.7954 12.0049 25.2159 12.5889 24.4999 12.5889V12.5906Z" fill="#FEAA39"/>
<path d="M32.1944 14.1327C32.029 14.1327 31.8603 14.1001 31.6984 14.0331C31.037 13.7566 30.7233 12.9941 30.9978 12.3277L32.7006 8.18535C32.975 7.51901 33.7319 7.20299 34.3949 7.47949C35.0563 7.75599 35.3699 8.51852 35.0955 9.18486L33.3927 13.3273C33.1864 13.8304 32.704 14.1344 32.1944 14.1344V14.1327Z" fill="#FEAA39"/>
<path d="M38.7194 18.5238C38.387 18.5238 38.0563 18.3967 37.8023 18.1408C37.296 17.6307 37.296 16.8046 37.8023 16.2946L40.9489 13.1243C41.4552 12.6142 42.275 12.6142 42.7813 13.1243C43.2875 13.6344 43.2875 14.4604 42.7813 14.9705L39.6347 18.1408C39.3824 18.3949 39.05 18.5238 38.7176 18.5238H38.7194Z" fill="#FEAA39"/>
</g>
<defs>
<clipPath id="clip0_715_678">
<rect width="48" height="51" fill="white" transform="translate(0.5)"/>
</clipPath>
</defs>
</svg>
