<svg width="25" height="25" viewBox="0 0 25 25" fill="none" xmlns="http://www.w3.org/2000/svg">
<path opacity="0.4" d="M17.1191 21.0371H7.11914C4.11914 21.0371 2.11914 19.5371 2.11914 16.0371V9.03711C2.11914 5.53711 4.11914 4.03711 7.11914 4.03711H17.1191C20.1191 4.03711 22.1191 5.53711 22.1191 9.03711V16.0371C22.1191 19.5371 20.1191 21.0371 17.1191 21.0371Z" fill="white"/>
<path d="M12.1192 13.4071C11.2792 13.4071 10.4292 13.1471 9.77917 12.6171L6.64916 10.1171C6.32916 9.85708 6.26917 9.38708 6.52917 9.06708C6.78917 8.74708 7.25917 8.68708 7.57917 8.94708L10.7092 11.4471C11.4692 12.0571 12.7592 12.0571 13.5192 11.4471L16.6492 8.94708C16.9692 8.68708 17.4492 8.73708 17.6992 9.06708C17.9592 9.38708 17.9092 9.86708 17.5792 10.1171L14.4492 12.6171C13.8092 13.1471 12.9592 13.4071 12.1192 13.4071Z" fill="white"/>
</svg>
