<svg width="20" height="21" viewBox="0 0 20 21" fill="none" xmlns="http://www.w3.org/2000/svg">
<path d="M15.3447 19.0759C14.8298 18.8464 14.3755 18.5 14.018 18.064C13.6604 17.6281 13.4096 17.1148 13.2853 16.5649C13.2737 16.515 13.2463 16.4701 13.2072 16.4368C12.8216 16.1033 12.4983 15.7038 12.2525 15.2571C12.1554 15.0859 12.1089 14.8906 12.1184 14.694C12.1278 14.4974 12.1929 14.3075 12.3059 14.1463C12.419 13.9852 12.5754 13.8594 12.7571 13.7836C12.9387 13.7078 13.1381 13.6851 13.3322 13.7181C13.4579 13.7409 13.5859 13.7487 13.7135 13.7415C13.7478 13.7395 13.7813 13.7298 13.8116 13.7134C13.8418 13.6969 13.8681 13.674 13.8885 13.6462C14.3821 12.9709 15.1008 12.4943 15.915 12.3024C15.9659 12.2902 16.0111 12.2612 16.0434 12.2201C16.0757 12.179 16.0933 12.1282 16.0931 12.0759V10.3665C16.0931 10.31 16.0727 10.2553 16.0357 10.2126C15.9987 10.1698 15.9475 10.1418 15.8916 10.1337C15.7556 10.1134 15.6353 10.0915 15.5244 10.0649C15.0601 9.95273 14.6198 9.75797 14.2244 9.48994C14.1813 9.45913 14.1287 9.44472 14.076 9.44932C13.5023 9.48244 12.9274 9.4115 12.3791 9.23994C11.5167 9.01697 11.3249 7.77838 12.0791 7.30401C12.2239 7.20601 12.3553 7.08938 12.4697 6.95713C12.4921 6.93185 12.5086 6.90193 12.5181 6.86951C12.5275 6.83709 12.5297 6.80298 12.5244 6.76963C12.4185 6.02851 12.5236 5.27256 12.8275 4.58838C13.0977 3.97314 13.5208 3.43724 14.0566 3.03166C14.5924 2.62608 15.223 2.36429 15.8885 2.27119C15.9461 2.26272 15.9986 2.23305 16.0356 2.18798C16.0725 2.14291 16.0914 2.08567 16.0885 2.02744C16.0639 1.48592 15.8314 0.97473 15.4393 0.600402C15.0473 0.226073 14.5258 0.017473 13.9838 0.0180677H6.01501C5.45583 0.0188943 4.91978 0.241397 4.52437 0.636802C4.12897 1.03221 3.90647 1.56826 3.90564 2.12744V5.61182C3.90598 5.64459 3.91314 5.67694 3.92665 5.7068C3.94016 5.73666 3.95973 5.76338 3.98412 5.78527C4.00851 5.80717 4.03719 5.82375 4.06833 5.83397C4.09947 5.84419 4.13239 5.84782 4.16501 5.84463C4.34408 5.82561 4.524 5.8157 4.70408 5.81494C5.69217 5.81586 6.65912 6.10114 7.48948 6.6367C8.31985 7.17227 8.97853 7.93549 9.38689 8.83526C9.40029 8.86538 9.41987 8.89236 9.44437 8.91443C9.46886 8.9365 9.49772 8.95318 9.52908 8.96338C9.8302 9.0621 10.145 9.11272 10.4619 9.11338C10.6923 9.11445 10.9178 9.18065 11.1122 9.30433C11.3067 9.42801 11.4622 9.60414 11.5609 9.81241C11.6595 10.0207 11.6973 10.2526 11.6698 10.4814C11.6424 10.7102 11.5508 10.9266 11.4056 11.1056C10.9183 11.7242 10.3148 12.2417 9.62908 12.629C9.57896 12.6552 9.54049 12.6993 9.52126 12.7524C9.15491 13.736 8.49609 14.5836 7.63346 15.1815C6.77083 15.7793 5.74579 16.0985 4.69626 16.0962C4.51877 16.0948 4.34145 16.0844 4.16501 16.0649C4.1324 16.0618 4.0995 16.0655 4.06838 16.0757C4.03726 16.0859 4.0086 16.1025 3.98422 16.1244C3.95984 16.1463 3.94027 16.173 3.92674 16.2028C3.91322 16.2327 3.90603 16.265 3.90564 16.2978V17.9087C3.90647 18.4679 4.12897 19.0039 4.52437 19.3993C4.91978 19.7947 5.45583 20.0172 6.01501 20.0181H13.9838C14.5113 20.0182 15.0195 19.8196 15.4072 19.4618C15.4357 19.4356 15.4572 19.4027 15.4698 19.3661C15.4825 19.3295 15.4859 19.2903 15.4797 19.2521C15.4735 19.2138 15.4579 19.1777 15.4344 19.147C15.4108 19.1162 15.38 19.0918 15.3447 19.0759ZM8.53064 1.73682C8.3513 1.73121 8.17683 1.67711 8.02579 1.58027C7.87474 1.48342 7.75277 1.34745 7.67283 1.18682L7.29783 0.486818H12.7025L12.326 1.18682C12.246 1.34745 12.124 1.48342 11.973 1.58027C11.8219 1.67711 11.6475 1.73121 11.4681 1.73682H8.53064ZM11.64 17.9868H8.35876C8.2966 17.9868 8.23699 17.9621 8.19304 17.9182C8.14908 17.8742 8.12439 17.8146 8.12439 17.7524C8.12439 17.6903 8.14908 17.6307 8.19304 17.5867C8.23699 17.5428 8.2966 17.5181 8.35876 17.5181H11.64C11.7022 17.5181 11.7618 17.5428 11.8057 17.5867C11.8497 17.6307 11.8744 17.6903 11.8744 17.7524C11.8744 17.8146 11.8497 17.8742 11.8057 17.9182C11.7618 17.9621 11.7022 17.9868 11.64 17.9868ZM16.4811 16.1118H17.1002L17.2677 15.4868H16.6486L16.4811 16.1118Z" fill="#9D6B27"/>
<path d="M15.5959 12.8931C14.9843 13.1388 14.4681 13.5749 14.1237 14.1369C14.1185 14.1451 14.1117 14.1521 14.1036 14.1575C14.0955 14.1628 14.0864 14.1665 14.0769 14.1681C13.8043 14.2234 13.5239 14.2277 13.2498 14.1808C13.1436 14.1627 13.0344 14.1752 12.9349 14.2168C12.8354 14.2583 12.7498 14.3272 12.688 14.4155C12.6261 14.5038 12.5906 14.6078 12.5856 14.7155C12.5805 14.8232 12.6061 14.93 12.6594 15.0238C12.9094 15.4867 13.2557 15.8907 13.675 16.2086C13.6823 16.2137 13.6885 16.2201 13.6933 16.2276C13.698 16.2351 13.7013 16.2434 13.7028 16.2522C13.9226 17.7591 15.3411 18.9514 16.8217 18.9352C17.3885 18.9287 17.943 18.7681 18.4254 18.4705C18.9079 18.1729 19.3003 17.7495 19.5605 17.2459C19.8206 16.7422 19.9388 16.1772 19.9022 15.6115C19.8657 15.0458 19.6758 14.5007 19.3529 14.0347C18.9477 13.448 18.3558 13.0158 17.6736 12.8085C16.9913 12.6012 16.259 12.6311 15.5959 12.8931ZM18.2025 15.4869H17.7529L17.5856 16.1119H18.0462C18.1084 16.1119 18.168 16.1366 18.212 16.1805C18.2559 16.2245 18.2806 16.2841 18.2806 16.3463C18.2806 16.4084 18.2559 16.468 18.212 16.512C18.168 16.5559 18.1084 16.5806 18.0462 16.5806H17.46L17.3101 17.1395C17.3022 17.1693 17.2884 17.1972 17.2697 17.2216C17.2509 17.2461 17.2275 17.2666 17.2008 17.282C17.1742 17.2974 17.1447 17.3074 17.1142 17.3114C17.0837 17.3154 17.0526 17.3134 17.0229 17.3054C16.9931 17.2974 16.9652 17.2837 16.9408 17.2649C16.9163 17.2462 16.8958 17.2228 16.8804 17.1961C16.865 17.1694 16.855 17.14 16.851 17.1094C16.847 17.0789 16.849 17.0479 16.857 17.0181L16.9742 16.5806H16.3551L16.2036 17.1464C16.1956 17.1762 16.1818 17.2041 16.1631 17.2285C16.1443 17.2529 16.121 17.2734 16.0943 17.2888C16.0676 17.3042 16.0382 17.3142 16.0076 17.3183C15.9771 17.3223 15.9461 17.3202 15.9163 17.3123C15.8866 17.3043 15.8587 17.2905 15.8342 17.2718C15.8098 17.253 15.7893 17.2297 15.7739 17.203C15.7585 17.1763 15.7485 17.1469 15.7445 17.1163C15.7404 17.0858 15.7425 17.0548 15.7504 17.025L15.8695 16.5806H15.5462C15.4841 16.5806 15.4245 16.5559 15.3805 16.512C15.3365 16.468 15.3119 16.4084 15.3119 16.3463C15.3119 16.2841 15.3365 16.2245 15.3805 16.1805C15.4245 16.1366 15.4841 16.1119 15.5462 16.1119H15.9958L16.1631 15.4869H15.7025C15.6403 15.4869 15.5807 15.4622 15.5367 15.4182C15.4928 15.3743 15.4681 15.3147 15.4681 15.2525C15.4681 15.1903 15.4928 15.1307 15.5367 15.0868C15.5807 15.0428 15.6403 15.0181 15.7025 15.0181H16.2887L16.4386 14.4592C16.4547 14.3991 16.494 14.3479 16.5479 14.3168C16.6017 14.2857 16.6657 14.2773 16.7258 14.2934C16.7859 14.3095 16.8372 14.3488 16.8683 14.4026C16.8994 14.4565 16.9078 14.5205 16.8917 14.5806L16.7745 15.0181H17.3936L17.5451 14.4523C17.5531 14.4226 17.5669 14.3947 17.5856 14.3703C17.6044 14.3458 17.6277 14.3253 17.6544 14.3099C17.6811 14.2945 17.7105 14.2845 17.7411 14.2805C17.7716 14.2765 17.8026 14.2785 17.8324 14.2865C17.8622 14.2945 17.89 14.3082 17.9145 14.327C17.9389 14.3457 17.9594 14.3691 17.9748 14.3958C17.9902 14.4224 18.0002 14.4519 18.0042 14.4824C18.0083 14.513 18.0062 14.544 17.9983 14.5738L17.8786 15.0181H18.2025C18.2646 15.0181 18.3242 15.0428 18.3682 15.0868C18.4122 15.1307 18.4368 15.1903 18.4368 15.2525C18.4368 15.3147 18.4122 15.3743 18.3682 15.4182C18.3242 15.4622 18.2646 15.4869 18.2025 15.4869ZM13.2569 4.77781C12.9546 5.45435 12.8752 6.20947 13.0303 6.93406C13.0335 6.9495 13.0334 6.96542 13.0301 6.98082C13.0268 6.99623 13.0204 7.01079 13.0112 7.0236C12.8318 7.28609 12.6053 7.513 12.3431 7.69281C12.2476 7.75859 12.1727 7.84993 12.1267 7.95636C12.0808 8.0628 12.0658 8.18002 12.0834 8.2946C12.101 8.40917 12.1506 8.51646 12.2264 8.60417C12.3022 8.69187 12.4012 8.75644 12.512 8.79047C13.0704 8.97131 13.6612 9.0292 14.244 8.96016C14.2573 8.9582 14.2708 8.95888 14.2838 8.96215C14.2967 8.96542 14.3089 8.97122 14.3197 8.97922C14.9365 9.44901 15.6895 9.70515 16.4648 9.70891C19.0331 9.72063 20.759 6.91047 19.5722 4.60453C18.2389 2.01516 14.4386 2.10281 13.2569 4.77781ZM16.6983 7.77406C16.6328 7.81117 16.5589 7.83067 16.4837 7.83067C16.4085 7.83067 16.3346 7.81117 16.2692 7.77406C15.3525 7.25297 14.8317 6.60594 14.8539 5.78578C14.8533 5.66501 14.8766 5.54531 14.9223 5.43351C14.968 5.32172 15.0353 5.22002 15.1203 5.13423C15.2053 5.04843 15.3064 4.98023 15.4177 4.9335C15.5291 4.88677 15.6486 4.86243 15.7694 4.86188C15.9069 4.86181 16.0426 4.89295 16.1664 4.95296C16.2901 5.01296 16.3986 5.10026 16.4837 5.20828C16.5688 5.10026 16.6773 5.01296 16.8011 4.95296C16.9248 4.89295 17.0606 4.86181 17.1981 4.86188C17.3189 4.86243 17.4384 4.88677 17.5497 4.9335C17.6611 4.98023 17.7622 5.04843 17.8472 5.13423C17.9322 5.22002 17.9995 5.32172 18.0452 5.43351C18.0909 5.54531 18.1141 5.66501 18.1136 5.78578C18.1365 6.60594 17.615 7.2525 16.6983 7.77406ZM9.13998 12.4231C9.14949 12.3954 9.16442 12.3698 9.18389 12.3478C9.20336 12.3258 9.22699 12.3079 9.25341 12.2952C9.95037 11.9342 10.561 11.4267 11.0433 10.8075C11.132 10.6972 11.1878 10.5641 11.2044 10.4236C11.2209 10.283 11.1976 10.1406 11.1369 10.0127C11.0762 9.88481 10.9808 9.7766 10.8614 9.70048C10.7421 9.62437 10.6037 9.58342 10.4622 9.58235C10.0202 9.58003 9.58244 9.49569 9.17123 9.3336C9.14042 9.32199 9.11232 9.30421 9.08865 9.28135C9.06497 9.25848 9.04623 9.23101 9.03357 9.20063C8.66256 8.28455 8.01008 7.51006 7.17029 6.98891C3.86732 4.9186 -0.368618 7.66672 0.0677884 11.5213C0.325757 13.7994 2.43326 15.6813 4.7056 15.6338C6.62279 15.6756 8.55732 14.3042 9.13998 12.4231ZM3.5931 12.9433C3.52201 12.9849 3.44111 13.0069 3.35873 13.0069H2.73373C2.60941 13.0069 2.49018 12.9575 2.40227 12.8696C2.31436 12.7817 2.26498 12.6624 2.26498 12.5381V10.1944C2.26498 10.0701 2.31436 9.95083 2.40227 9.86292C2.49018 9.77501 2.60941 9.72563 2.73373 9.72563H3.35873C3.44099 9.72548 3.52184 9.74704 3.5931 9.78813V12.9433ZM4.06185 12.7333V9.9261C4.52091 9.50016 4.81623 8.63297 5.01295 8.22422C5.35919 7.50422 6.05669 8.47 5.88623 8.98985C5.82732 9.16985 5.70248 9.72422 5.70248 9.72422C6.07544 9.72422 6.43312 9.87238 6.69684 10.1361C6.96057 10.3998 7.10873 10.7575 7.10873 11.1305V11.5992C7.10873 11.9722 6.96057 12.3299 6.69684 12.5936C6.43312 12.8573 6.07544 13.0055 5.70248 13.0055H4.82998C4.68444 13.0054 4.54091 12.9715 4.41076 12.9064L4.06185 12.7333Z" fill="#0D0D0D"/>
</svg>
