<svg width="34" height="34" viewBox="0 0 34 34" fill="none" xmlns="http://www.w3.org/2000/svg">
<g clip-path="url(#clip0_761_2389)">
<path d="M21.125 0.5V11.6396C22.067 12.1819 22.8495 12.963 23.3936 13.9041C23.9377 14.8451 24.2241 15.913 24.2241 17C24.2241 18.087 23.9377 19.1549 23.3936 20.0959C22.8495 21.037 22.067 21.8181 21.125 22.3604V33.5L10.1257 25.25H0.5V8.75H10.1257L21.125 0.5ZM17 8.75L11.4993 12.875H4.625V21.125H11.4993L17 25.25V8.75Z" fill="#FEAA39"/>
<path d="M28.55 7.0998L26.9021 5.8623L24.425 9.16024L26.075 10.3977C26.7007 10.8681 27.2563 11.425 27.725 12.0519C28.7625 13.4296 29.375 15.1394 29.375 16.9998C29.375 18.8602 28.7625 20.5679 27.725 21.9498C27.256 22.5752 26.7004 23.1308 26.075 23.5998L24.425 24.8394L26.9021 28.1394L28.5521 26.8998C29.4887 26.1959 30.3207 25.3626 31.023 24.4248C32.6329 22.2844 33.5024 19.6781 33.5 16.9998C33.5 14.2154 32.5781 11.6414 31.025 9.57481C30.3215 8.63671 29.4881 7.80338 28.55 7.0998Z" fill="#FEAA39"/>
</g>
<defs>
<clipPath id="clip0_761_2389">
<rect width="33" height="33" fill="white" transform="translate(0.5 0.5)"/>
</clipPath>
</defs>
</svg>
