<svg width="22" height="16" viewBox="0 0 22 16" fill="none" xmlns="http://www.w3.org/2000/svg">
<path d="M19.2499 3.44833H5.7627C5.16596 3.44833 4.59366 3.68539 4.1717 4.10734C3.74975 4.5293 3.5127 5.1016 3.5127 5.69833V13.3506C3.5127 13.9473 3.74975 14.5196 4.1717 14.9416C4.59366 15.3635 5.16596 15.6006 5.7627 15.6006H19.2499C19.8467 15.6006 20.419 15.3635 20.8409 14.9416C21.2629 14.5196 21.4999 13.9473 21.4999 13.3506V5.69833C21.4999 5.1016 21.2629 4.5293 20.8409 4.10734C20.419 3.68539 19.8467 3.44833 19.2499 3.44833ZM14.4162 10.2336L12.4182 11.6451C12.2883 11.7369 12.1356 11.7913 11.9769 11.8023C11.8182 11.8132 11.6595 11.7803 11.5182 11.7071C11.3769 11.634 11.2584 11.5234 11.1758 11.3874C11.0931 11.2515 11.0494 11.0954 11.0494 10.9363V8.11258C11.0494 7.95348 11.0931 7.79742 11.1758 7.66148C11.2584 7.52553 11.3769 7.41493 11.5182 7.34177C11.6595 7.26861 11.8182 7.23571 11.9769 7.24665C12.1356 7.2576 12.2883 7.31197 12.4182 7.40383L14.4162 8.81533C14.5296 8.89555 14.6222 9.00182 14.6861 9.12521C14.7499 9.2486 14.7833 9.38552 14.7833 9.52446C14.7833 9.6634 14.7499 9.80032 14.6861 9.92371C14.6222 10.0471 14.5296 10.1534 14.4162 10.2336Z" fill="#0D0D0D"/>
<path opacity="0.4" d="M2.16275 5.69833C2.16275 3.71383 3.7775 2.09833 5.76275 2.09833H18.3988C18.2712 1.62176 17.9901 1.20055 17.5989 0.899953C17.2077 0.59935 16.7283 0.43613 16.235 0.435577H2.75C1.505 0.435577 0.5 1.44058 0.5 2.68558V10.3356C0.5 11.3758 1.20575 12.2398 2.16275 12.4986V5.69833Z" fill="#0D0D0D"/>
</svg>
