<svg width="25" height="25" viewBox="0 0 25 25" fill="none" xmlns="http://www.w3.org/2000/svg">
<path opacity="0.4" d="M16.69 2.46484H8.31C4.67 2.46484 2.5 4.63484 2.5 8.27484V16.6448C2.5 20.2948 4.67 22.4648 8.31 22.4648H16.68C20.32 22.4648 22.49 20.2948 22.49 16.6548V8.27484C22.5 4.63484 20.33 2.46484 16.69 2.46484Z" fill="white"/>
<path d="M11.0799 16.0448C10.8799 16.0448 10.6899 15.9648 10.5499 15.8248L7.71994 12.9948C7.42994 12.7048 7.42994 12.2248 7.71994 11.9348C8.00994 11.6448 8.48994 11.6448 8.77994 11.9348L11.0799 14.2348L16.2199 9.09484C16.5099 8.80484 16.9899 8.80484 17.2799 9.09484C17.5699 9.38484 17.5699 9.86484 17.2799 10.1548L11.6099 15.8248C11.4699 15.9648 11.2799 16.0448 11.0799 16.0448Z" fill="white"/>
</svg>
