<svg width="21" height="20" viewBox="0 0 21 20" fill="none" xmlns="http://www.w3.org/2000/svg">
<path d="M3.9375 3.53508L3.97687 4.25758C4.055 4.27696 4.1725 4.29696 4.32875 4.29696C4.64125 4.29696 5.0125 4.31633 5.28562 4.39446C5.55875 4.47258 5.6375 4.62883 5.67625 4.92196C5.71563 5.23446 5.71562 5.62508 5.71562 5.95696V9.04321C5.71562 10.0782 5.77437 10.9963 6.08687 11.7582C6.41875 12.5201 7.005 13.1451 8.07937 13.5357C8.84125 13.8095 9.68125 13.9263 10.5012 13.9263C11.3212 13.9263 12.2594 13.7895 13.0987 13.4963C13.9194 13.2032 14.6613 12.6757 15.13 11.9145C15.3256 11.5626 15.4619 11.0551 15.54 10.5276C15.5987 10.0195 15.6181 9.55071 15.6181 9.12133C15.6181 8.98446 15.6181 8.51571 15.5787 7.96883C15.5787 7.69508 15.5594 7.40258 15.5594 7.09008C15.52 6.46508 15.5006 5.91821 15.4812 5.54696C15.4619 5.39071 15.4419 5.27321 15.4419 5.23446C15.4025 5.07821 15.4025 4.94133 15.4025 4.78508C15.4025 4.62883 15.4612 4.51133 15.5587 4.45321C15.7737 4.31633 16.125 4.27758 16.4575 4.25758C16.6137 4.23821 16.7894 4.21821 16.9069 4.17946C16.9462 4.10133 16.9462 4.02321 16.9462 3.94508C16.9462 3.80821 16.9269 3.65196 16.8875 3.51508H16.7119C16.4969 3.51508 16.2819 3.51508 16.0675 3.55446C15.8525 3.57383 15.6181 3.59383 15.4031 3.59383C14.915 3.59383 14.4656 3.57446 13.9969 3.53508C13.5281 3.49571 13.0787 3.47633 12.5906 3.51571V4.19946C12.6687 4.23883 12.8644 4.23883 13.0788 4.23883H13.3719C13.4694 4.21946 13.5475 4.21946 13.5869 4.21946C13.8406 4.21946 14.0556 4.31696 14.2312 4.49321C14.2706 4.53258 14.3287 4.68883 14.3681 4.88383C14.4075 5.09883 14.4463 5.35258 14.4856 5.64571C14.5444 6.23196 14.6225 6.95446 14.6419 7.59883C14.6813 8.26321 14.7006 8.81008 14.7006 9.02446C14.7006 10.3332 14.505 11.3095 13.9388 11.9738C13.3919 12.6382 12.5131 12.9701 11.0869 12.9701C9.30937 12.9701 8.41125 11.857 8.31313 10.1963C8.25437 8.6532 8.19563 7.14946 8.19563 5.60633C8.19563 5.15696 8.235 4.82508 8.27375 4.66883C8.37125 4.31696 8.62562 4.25883 9.11375 4.29758C9.32875 4.31696 9.66062 4.29758 10.0125 4.23883V4.18008C10.0125 4.08258 10.0125 3.94571 9.99312 3.84821C9.97375 3.73071 9.97375 3.63321 9.99312 3.53571C8.89937 3.57508 7.7275 3.61383 6.61437 3.61383C6.24312 3.61383 5.83312 3.59446 5.46187 3.57446C5.09062 3.53508 4.66125 3.51571 4.27062 3.51571H4.095C4.05563 3.51571 3.9975 3.53508 3.93875 3.53508H3.9375ZM3.9375 16.5238H16.9456V15.1957H3.9375V16.5238Z" fill="white"/>
</svg>
