<svg width="24" height="25" viewBox="0 0 24 25" fill="none" xmlns="http://www.w3.org/2000/svg">
<path opacity="0.4" d="M20.7846 12.6645C20.4632 12.297 19.8981 12.7815 20.218 13.1554C21.607 14.7105 21.5924 17.2223 20.1891 18.7646C19.9724 18.9934 20.1599 19.3984 20.4704 19.3871C20.5236 19.3873 20.5762 19.376 20.6247 19.3542C20.6732 19.3323 20.7165 19.3003 20.7516 19.2604C22.4016 17.448 22.4174 14.4926 20.7846 12.6645Z" fill="#0D0D0D"/>
<path opacity="0.4" d="M19.6011 13.6854C19.2756 13.3186 18.7157 13.8092 19.0371 14.1797C19.9191 15.1502 19.909 16.7671 19.0195 17.729C18.8009 17.9578 18.988 18.3647 19.2996 18.3538C19.3524 18.3539 19.4047 18.3428 19.4529 18.3212C19.5012 18.2996 19.5442 18.268 19.5794 18.2285C20.7186 16.9952 20.731 14.9296 19.6011 13.6854Z" fill="#0D0D0D"/>
<path opacity="0.4" d="M17.8949 14.6636C17.8199 14.7288 17.7738 14.8211 17.7667 14.9202C17.7597 15.0194 17.7923 15.1172 17.8574 15.1924C18.2302 15.6086 18.2264 16.2866 17.848 16.6999C17.5252 17.0674 18.0832 17.5635 18.4102 17.1967C19.0357 16.5131 19.0413 15.39 18.424 14.7011C18.3918 14.6639 18.3526 14.6333 18.3085 14.6113C18.2645 14.5892 18.2166 14.5761 18.1674 14.5726C18.1183 14.5691 18.069 14.5754 18.0223 14.591C17.9756 14.6066 17.9324 14.6313 17.8953 14.6636H17.8949Z" fill="#0D0D0D"/>
<path d="M15.9681 6.40771C16.4819 7.15021 16.4818 8.66146 16.4481 9.35146L17.7869 10.8627C17.9519 11.0502 18.0306 11.3015 18.0006 11.549C17.9706 11.8002 17.8356 12.0252 17.6294 12.1677L16.9319 12.749L17.0894 13.6565C17.2791 14.1211 17.0361 14.6952 16.5644 14.8752L14.8168 15.5877C14.7418 15.6477 14.7306 15.7302 14.7343 15.764C14.7337 15.7972 14.7408 15.83 14.7552 15.86C14.7695 15.8899 14.7906 15.9161 14.8168 15.9365L16.4818 16.544C16.8381 16.6715 17.0444 17.0502 16.9581 17.4215L16.7744 18.2015C16.7146 18.4535 16.5828 18.6827 16.395 18.8612C16.2072 19.0396 15.9716 19.1596 15.7168 19.2065L12.6943 19.769C12.0141 20.018 12.3448 21.2832 12.4543 21.6365C12.4734 21.693 12.4788 21.7532 12.4699 21.8121C12.461 21.8711 12.4383 21.9271 12.4034 21.9755C12.3686 22.0239 12.3227 22.0633 12.2696 22.0904C12.2165 22.1175 12.1577 22.1316 12.0981 22.1315H4.26432C3.9887 22.1416 3.79932 21.8217 3.93057 21.584C5.64059 18.3552 3.09432 14.024 3.06807 13.9827C0.855555 10.2702 2.73807 6.62146 2.91807 6.29521C5.34434 0.647711 14.4306 2.54521 14.8168 2.62771C15.8031 2.82271 16.1331 2.21896 16.1368 2.21521C16.2704 1.93621 16.7068 1.95946 16.8156 2.24521C17.7306 4.40521 16.6019 5.82646 15.9681 6.40771Z" fill="#0D0D0D"/>
</svg>
