<svg width="73" height="73" viewBox="0 0 73 73" fill="none" xmlns="http://www.w3.org/2000/svg">
<path d="M46.0386 14.2685H45.9379C40.0278 11.8495 33.4038 11.8495 27.4937 14.2685H27.3931C27.3931 14.0505 27.3931 13.866 27.5105 13.648C27.6278 13.4301 27.6278 13.2792 27.6949 13.0947C28.6842 10.2945 31.6353 7.37701 33.8989 5.14693C34.8938 4.16513 35.8342 3.12957 36.7158 2.04492C37.5975 3.12957 38.5378 4.16513 39.5327 5.14693C41.9473 7.51115 45.1499 10.6802 45.9212 13.648C45.9212 13.866 45.9212 14.0505 46.0386 14.2685ZM46.0386 14.2685C46.0386 14.2685 46.0386 14.2685 46.0386 14.2685Z" stroke="#E6BA1E" stroke-width="2.29715" stroke-linecap="round" stroke-linejoin="round"/>
<path d="M46.0384 59.1382C46.0453 59.177 46.0453 59.2167 46.0384 59.2556C46.0384 59.44 46.0383 59.658 45.921 59.8424C45.1497 62.8103 41.9471 65.9961 39.5325 68.3603C38.5332 69.3378 37.5925 70.3736 36.7156 71.4623C35.8387 70.3736 34.8981 69.3378 33.8987 68.3603C31.6351 66.1302 28.684 63.2127 27.6947 60.4125C27.6947 60.2281 27.5606 60.0269 27.5103 59.8424C27.46 59.658 27.4264 59.44 27.3929 59.2556C27.386 59.2167 27.386 59.177 27.3929 59.1382H27.5103C33.4186 61.5662 40.0462 61.5662 45.9545 59.1382H46.0384Z" stroke="#E6BA1E" stroke-width="2.29715" stroke-linecap="round" stroke-linejoin="round"/>
<path d="M71.4416 36.7034C70.3523 37.5797 69.3164 38.5203 68.3395 39.5204C65.9753 41.9181 62.8063 45.1207 59.8385 45.892C59.6407 45.9472 59.4388 45.9865 59.2348 46.0094H59.1342C59.1252 45.9822 59.1252 45.9528 59.1342 45.9256C61.5477 40.0143 61.5477 33.3925 59.1342 27.4813C59.1342 27.4813 59.1342 27.4813 59.1342 27.3975H59.2348C59.4399 27.4122 59.6427 27.4516 59.8385 27.5148C60.0273 27.5552 60.2123 27.6113 60.3917 27.6825C63.1919 28.6718 66.1094 31.6229 68.3395 33.8865C69.3164 34.8865 70.3523 35.8272 71.4416 36.7034Z" stroke="#E6BA1E" stroke-width="2.29715" stroke-linecap="round" stroke-linejoin="round"/>
<path d="M14.2143 45.9591V46.0597H14.0969C13.8929 46.0368 13.6911 45.9975 13.4933 45.9423C10.5255 45.171 7.35641 41.9684 4.99219 39.5707C4.01101 38.5751 2.97536 37.6347 1.89014 36.7537C2.97536 35.8727 4.01101 34.9323 4.99219 33.9368C7.22227 31.6732 10.1398 28.7221 12.94 27.7328C13.1194 27.6616 13.3046 27.6055 13.4933 27.5651C13.6891 27.5019 13.8918 27.4625 14.0969 27.4478H14.2143C14.208 27.481 14.208 27.5151 14.2143 27.5484C11.7918 33.4578 11.7918 40.0832 14.2143 45.9926V45.9591Z" stroke="#E6BA1E" stroke-width="2.29715" stroke-linecap="round" stroke-linejoin="round"/>
<path d="M61.264 12.1392C61.1106 13.531 61.0434 14.9309 61.0628 16.331C61.0628 19.6845 61.0628 24.2285 59.5705 26.861C59.4687 27.0444 59.3509 27.2184 59.2183 27.3808C59.2183 27.3808 59.2183 27.3808 59.2183 27.297C56.7374 21.3906 52.0429 16.6901 46.1397 14.2016H46.0391C46.1997 14.0692 46.3676 13.9461 46.5421 13.8327C46.7149 13.7533 46.883 13.6638 47.0452 13.5644C49.728 12.2901 53.9031 12.3068 57.1057 12.3404C58.5053 12.3525 59.9045 12.2909 61.2976 12.1559L61.264 12.1392Z" stroke="#E6BA1E" stroke-width="2.29715" stroke-linecap="round" stroke-linejoin="round"/>
<path d="M27.4437 59.1717L27.3431 59.2555C27.182 59.3769 27.014 59.4888 26.84 59.5908C24.2075 61.1502 19.6971 61.1167 16.31 61.0999C14.9103 61.078 13.5105 61.1396 12.1182 61.2844C12.2727 59.8926 12.3399 58.4926 12.3194 57.0925C12.3194 53.9234 12.3193 49.7651 13.5434 47.032L13.8117 46.5289C13.9193 46.3493 14.0368 46.1757 14.1638 46.0091V45.9253V46.0259C16.6184 51.9402 21.3145 56.6424 27.2257 59.1046L27.4437 59.1717Z" stroke="#E6BA1E" stroke-width="2.29715" stroke-linecap="round" stroke-linejoin="round"/>
<path d="M61.2635 61.2679C59.8711 61.1235 58.4714 61.0619 57.0717 61.0835C53.7181 61.0835 49.1741 61.0834 46.5416 59.5744C46.3676 59.4723 46.1997 59.3604 46.0386 59.239L45.938 59.1552H46.0554C51.9605 56.6782 56.657 51.9817 59.134 46.0765C59.1251 46.0493 59.1251 46.0199 59.134 45.9927C59.2666 46.1552 59.3844 46.3291 59.4862 46.5125L59.7544 47.0155C61.0287 49.6983 61.0121 53.8566 60.9785 57.076C60.9858 58.4779 61.081 59.8779 61.2635 61.2679Z" stroke="#E6BA1E" stroke-width="2.29715" stroke-linecap="round" stroke-linejoin="round"/>
<path d="M27.4264 14.235H27.3258C21.4166 16.7088 16.7226 21.4149 14.2639 27.3304C14.2575 27.3636 14.2575 27.3978 14.2639 27.431V27.3471C14.1313 27.1847 14.0135 27.0107 13.9118 26.8274C12.3524 24.1949 12.3859 19.6844 12.4195 16.2974C12.4388 14.8972 12.3717 13.4973 12.2183 12.1055C13.6113 12.241 15.0106 12.3026 16.4101 12.2899C19.5792 12.2899 23.7543 12.2899 26.4707 13.5139L26.9905 13.7822C27.1649 13.8956 27.3329 14.0188 27.4935 14.1511L27.4264 14.235Z" stroke="#E6BA1E" stroke-width="2.29715" stroke-linecap="round" stroke-linejoin="round"/>
</svg>
